<svg id="undraw_address_udes-2" xmlns="http://www.w3.org/2000/svg" xmlns:xlink="http://www.w3.org/1999/xlink" width="183.27" height="140.137" viewBox="0 0 183.27 140.137">
  <defs>
    <linearGradient id="linear-gradient" x1="0.492" y1="0.75" x2="0.492" y2="0.182" gradientUnits="objectBoundingBox">
      <stop offset="0" stop-color="gray" stop-opacity="0.251"/>
      <stop offset="0.54" stop-color="gray" stop-opacity="0.122"/>
      <stop offset="1" stop-color="gray" stop-opacity="0.102"/>
    </linearGradient>
    <clipPath id="clip-path">
      <rect id="_Rectangle_" data-name="&lt;Rectangle&gt;" width="113.742" height="60.849" transform="translate(8.353 0) rotate(7.89)" fill="#667fab"/>
    </clipPath>
    <linearGradient id="linear-gradient-2" x1="0.289" y1="0.96" x2="0.289" y2="-0.045" xlink:href="#linear-gradient"/>
    <linearGradient id="linear-gradient-3" x1="0.5" y1="1" x2="0.5" y2="0" xlink:href="#linear-gradient"/>
  </defs>
  <rect id="Rectangle_593" data-name="Rectangle 593" width="68.573" height="120.665" transform="translate(54.335 69.736) rotate(-82.11)" fill="url(#linear-gradient)"/>
  <rect id="Rectangle_594" data-name="Rectangle 594" width="118.842" height="66.701" transform="translate(64.318 2.835) rotate(7.89)" fill="#fff"/>
  <g id="Group_366" data-name="Group 366" transform="translate(58.129 5.969)" opacity="0.3">
    <rect id="_Rectangle_2" data-name="&lt;Rectangle&gt;" width="113.742" height="60.849" transform="translate(8.353 0) rotate(7.89)" fill="#3d4862"/>
    <g id="Mask_Group_365" data-name="Mask Group 365" transform="translate(0 0)" clip-path="url(#clip-path)">
      <path id="Path_1896" data-name="Path 1896" d="M210.118,9.286l45.729,75.8,27.818,3.856,48.569-28.237-38.34-50.68L225.942,80.943l-38.852-14.6L256.507,5.32l56.6,87.706" transform="translate(-208.953 -10.28)" fill="#667fab" stroke="#fff" stroke-miterlimit="10" stroke-width="5"/>
    </g>
  </g>
  <path id="Path_1897" data-name="Path 1897" d="M617.275,101.647c-.806,5.815-12.768,17.977-12.768,17.977s-9.045-15.073-8.238-20.888a10.6,10.6,0,1,1,21.009,2.908Z" transform="translate(-505.845 -89.583)" fill="url(#linear-gradient-2)"/>
  <path id="Path_1898" data-name="Path 1898" d="M619.138,105.729c-.756,5.455-11.977,16.864-11.977,16.864s-8.484-14.139-7.728-19.594a9.946,9.946,0,1,1,19.7,2.731Z" transform="translate(-508.398 -93.481)" fill="#fe9d2b"/>
  <ellipse id="Ellipse_407" data-name="Ellipse 407" cx="4.986" cy="4.974" rx="4.986" ry="4.974" transform="translate(95.383 14.348) rotate(-82.11)" fill="#fff"/>
  <path id="Path_1899" data-name="Path 1899" d="M0,213.51v98.772H142.437V213.51Z" transform="translate(0 -172.145)" fill="url(#linear-gradient-3)"/>
  <rect id="Rectangle_595" data-name="Rectangle 595" width="138.814" height="90.871" transform="translate(2.113 47.51)" fill="#fff"/>
  <rect id="Rectangle_596" data-name="Rectangle 596" width="138.814" height="6.686" transform="translate(2.113 43.187)" fill="#f5f5f5"/>
  <ellipse id="Ellipse_408" data-name="Ellipse 408" cx="1.621" cy="1.621" rx="1.621" ry="1.621" transform="translate(5.775 44.81)" fill="#ff5252"/>
  <ellipse id="Ellipse_409" data-name="Ellipse 409" cx="1.621" cy="1.621" rx="1.621" ry="1.621" transform="translate(10.233 44.81)" fill="#ff0"/>
  <ellipse id="Ellipse_410" data-name="Ellipse 410" cx="1.621" cy="1.621" rx="1.621" ry="1.621" transform="translate(14.689 44.81)" fill="#69f0ae"/>
  <rect id="Rectangle_597" data-name="Rectangle 597" width="25.529" height="2.735" transform="translate(58.503 71.806)" fill="#fe9d2b" opacity="0.5"/>
  <rect id="Rectangle_598" data-name="Rectangle 598" width="27.96" height="2.735" transform="translate(40.067 83.559)" fill="#e0e0e0"/>
  <rect id="Rectangle_599" data-name="Rectangle 599" width="27.96" height="2.735" transform="translate(102.471 86.294) rotate(180)" fill="#e0e0e0"/>
  <rect id="Rectangle_600" data-name="Rectangle 600" width="62.403" height="2.735" transform="translate(39.964 89.434)" fill="#e0e0e0"/>
  <rect id="Rectangle_601" data-name="Rectangle 601" width="62.403" height="2.735" transform="translate(39.964 95.309)" fill="#e0e0e0"/>
  <rect id="Rectangle_602" data-name="Rectangle 602" width="25.934" height="5.065" transform="translate(58.201 107.872)" fill="url(#linear-gradient-3)"/>
  <path id="Path_4679" data-name="Path 4679" d="M0,0H25.529V4.144H0Z" transform="translate(58.403 108.332)" fill="#fe9d2b"/>
</svg>
