<svg xmlns="http://www.w3.org/2000/svg" width="20.659" height="19.487" viewBox="0 0 20.659 19.487">
  <path id="Icon_ionic-md-arrow-round-back" data-name="Icon ionic-md-arrow-round-back" d="M24.493,14.2H11.93L16.8,9.534a1.942,1.942,0,0,0,0-2.654,1.736,1.736,0,0,0-2.536,0L6.153,14.747a1.788,1.788,0,0,0-.528,1.315v.023A1.788,1.788,0,0,0,6.153,17.4l8.107,7.867a1.736,1.736,0,0,0,2.536,0,1.942,1.942,0,0,0,0-2.654l-4.873-4.661H24.487a1.838,1.838,0,0,0,1.8-1.879A1.818,1.818,0,0,0,24.493,14.2Z" transform="translate(-5.625 -6.33)" fill="#fe9d2b"/>
</svg>
