<svg xmlns="http://www.w3.org/2000/svg" xmlns:xlink="http://www.w3.org/1999/xlink" width="461.362" height="444" viewBox="0 0 461.362 444">
  <defs>
    <clipPath id="clip-path">
      <path id="Path_4223" data-name="Path 4223" d="M735.1,462.534c-.044,2.222.589,7.62-.444,9.943-2.587,1.365-7.284.464-10.591-1.19s-6.166-.4-10.615-1.11c-4.368-.7-7.7-2.686-8.181-4.685-.527-2.181,7.34-2.047,12.819-2.494a23.9,23.9,0,0,0,9.721-2.68Z" transform="translate(-705.239 -460.317)" fill="#1e4174"/>
    </clipPath>
    <clipPath id="clip-path-2">
      <path id="Path_4230" data-name="Path 4230" d="M769.4,452.385c1.664,1.476,6.177,4.5,7.274,6.794-.641,2.854-4.376,5.841-7.782,7.281s-4.31,4.43-7.739,7.351c-3.367,2.87-7.044,4.109-8.875,3.179-2-1.016,3.21-6.911,6.427-11.368a23.909,23.909,0,0,0,4.276-9.132Z" transform="translate(-751.832 -452.385)" fill="#1e4174"/>
    </clipPath>
    <clipPath id="clip-path-3">
      <path id="Path_4238" data-name="Path 4238" d="M771.809,489.162s-22.2-37.092-24.1-40.626c-1.608-2.976-9.164-48.646-9.76-52.347,0,0-11.218-14.152-11.494-21.935l20.771-5.735c1.271,4.774,7.988,4.836,13.1,16.252,4.448,9.943,3.227,31.236.924,58.565a13.869,13.869,0,0,1,5.761,7.5c2.642,7.489,11.947,34.981,11.947,34.981A8.437,8.437,0,0,1,771.809,489.162Z" transform="translate(-726.451 -368.52)" fill="none"/>
    </clipPath>
  </defs>
  <g id="Group_9078" data-name="Group 9078" transform="translate(-813.638 -122)">
    <g id="Group_9074" data-name="Group 9074">
      <text id="_._._._._._._._._._._._._._._._._._._._._._._._._._._._._._._" data-name=". . . . . . 
. . . . . . 
. . . . . . 
. . . . . . 
. . . . . . " transform="translate(1154 162)" fill="#0f3756" font-size="38" font-family="Roboto-Medium, Roboto" font-weight="500" opacity="0.119"><tspan x="0" y="0">. . . . . . </tspan><tspan x="0" y="22">. . . . . . </tspan><tspan x="0" y="44">. . . . . . </tspan><tspan x="0" y="66">. . . . . . </tspan><tspan x="0" y="88">. . . . . . </tspan></text>
    </g>
    <g id="Group_9077" data-name="Group 9077">
      <g id="Group_9073" data-name="Group 9073">
        <g id="Group_9071" data-name="Group 9071">
          <g id="Group_9070" data-name="Group 9070">
            <g id="Group_8687" data-name="Group 8687" transform="translate(29.108 39.344)">
              <path id="Path_4286" data-name="Path 4286" d="M228.671,0c83.445,0,101.472,51.232,90.309,131.081s-60.174,148.23-143.619,148.23S0,168.091,0,84.646,145.226,0,228.671,0Z" transform="translate(830.201 208.738) rotate(-2)" fill="#428cc6" opacity="0.172"/>
              <path id="Path_4287" data-name="Path 4287" d="M145.846,0C218,0,350.52,122.624,279.409,192.889s-127.556,128.4-199.7,128.4S0,217.138,0,136.691,73.7,0,145.846,0Z" transform="translate(925.255 526.656) rotate(-118)" fill="#fff"/>
              <g id="Group_8488" data-name="Group 8488" transform="translate(974.651 227.782)">
                <g id="Group_8487" data-name="Group 8487">
                  <g id="Group_8481" data-name="Group 8481">
                    <rect id="Rectangle_16817" data-name="Rectangle 16817" width="62.469" height="62.469" transform="translate(2.271 2.271)" fill="#ebf3fa" style="mix-blend-mode: multiply;isolation: isolate"/>
                    <rect id="Rectangle_16818" data-name="Rectangle 16818" width="62.469" height="62.468" fill="#ebf3fa" stroke="rgba(66,140,198,0.16)" stroke-width="1"/>
                  </g>
                </g>
              </g>
              <g id="Group_8804" data-name="Group 8804" transform="translate(2 36)">
                <g id="Group_8496" data-name="Group 8496" transform="translate(885.163 314.52)">
                  <g id="Group_8495" data-name="Group 8495" transform="translate(0)">
                    <g id="Group_8489" data-name="Group 8489">
                      <rect id="Rectangle_16821" data-name="Rectangle 16821" width="62.468" height="62.469" transform="translate(2.272 2.271)" fill="rgba(133,184,237,0.42)" style="mix-blend-mode: multiply;isolation: isolate"/>
                      <rect id="Rectangle_16822" data-name="Rectangle 16822" width="62.469" height="62.468" fill="#ebf3fa" stroke="rgba(66,140,198,0.16)" stroke-width="1"/>
                    </g>
                  </g>
                </g>
                <path id="Path_4610" data-name="Path 4610" d="M0,0,14.645.7,12.035,21H0Z" transform="translate(922.808 322.26) rotate(7)" fill="#cbe1f7"/>
                <g id="Group_8793" data-name="Group 8793" transform="translate(879.918 204.325)">
                  <path id="Path_4606" data-name="Path 4606" d="M55.154,138.067l.729,14.033h-42.1s-1.634-7.874,6.443-8.693a34.706,34.706,0,0,0,4.376-.724v0c.62-.145,1.236-.3,1.846-.485.435-.126.869-.262,1.294-.407a26.967,26.967,0,0,0,2.7-1.072c.421-.19.832-.394,1.231-.606a20.643,20.643,0,0,0,2-1.2c.4-.267.783-.552,1.154-.842a16.221,16.221,0,0,0,1.806-1.66,13.934,13.934,0,0,0,1.022-1.236c.842-1.149,4.957,1.984,7.638,2.9C48.707,139.221,52.7,138.067,55.154,138.067Z" transform="translate(-0.23 0)" fill="#4881b9"/>
                  <path id="Path_4607" data-name="Path 4607" d="M24.6,149.639v9.416H13.784s-1.636-7.874,6.443-8.692A35.158,35.158,0,0,0,24.6,149.639Z" transform="translate(-0.231 -6.954)" fill="#4881b9"/>
                  <path id="Path_4609" data-name="Path 4609" d="M1.534,0H24.756c.847,0,.847,3.068,0,3.068H1.534A1.534,1.534,0,0,1,1.534,0Z" transform="translate(12.974 150.101)" fill="#4881b9"/>
                  <path id="Path_4608" data-name="Path 4608" d="M1.534,0H12.756a1.534,1.534,0,1,1,0,3.068H1.534C.687,3.068.687,0,1.534,0Z" transform="translate(41.974 150.101)" fill="#4881b9"/>
                </g>
              </g>
              <g id="Group_8543" data-name="Group 8543" transform="translate(1024.553 268.633)">
                <g id="Group_8462" data-name="Group 8462" transform="translate(0 39.237)">
                  <path id="Path_4126" data-name="Path 4126" d="M756.5,339.6c-4.217.971-5.772,2.754-8.714,10.709s-9.084,26.013-9.925,26.964c0,0-22.384-2.175-27.987-3.04a56.235,56.235,0,0,0-10.345-.371c-2.282.107-6.309.414-7.952.7-4.407.779-1.29,4.2,2.2,6.411,4.635,2.935,12.427.1,18.173.589s26.5,6.722,29.341,5.6,14.8-25.651,14.8-25.651Z" transform="translate(-689.404 -339.601)" fill="#ef9779"/>
                  <path id="Path_4127" data-name="Path 4127" d="M706.869,364.738c-2.895-.37-2.078-1.264-4.182-2.3s-3.758-.853-5.362-1.59c-1.672-.766-1.541.9-.477,1.776a12.793,12.793,0,0,0,2.069.958c1.175.6-2.193.775-2.193.775Z" transform="translate(-686.403 -330.105)" fill="#ef9779"/>
                </g>
                <g id="Group_8535" data-name="Group 8535" transform="translate(15.778 0)">
                  <g id="Group_8524" data-name="Group 8524" transform="translate(6.929 193.739)">
                    <path id="Path_4218" data-name="Path 4218" d="M705.348,463.883c-.547.641-.576,2.175,2.074,4.03s8.04,2.5,10.226,2.553,3.6-.277,6.56,1.053,8.11,2.169,9.937,1.206c.669-.5.591-1.856.591-1.856Z" transform="translate(-705.052 -438.042)" fill="#aaeeed"/>
                    <g id="Group_8523" data-name="Group 8523" transform="translate(0.27 20.666)">
                      <path id="Path_4219" data-name="Path 4219" d="M735.1,462.534c-.044,2.222.589,7.62-.444,9.943-2.587,1.365-7.284.464-10.591-1.19s-6.166-.4-10.615-1.11c-4.368-.7-7.7-2.686-8.181-4.685-.527-2.181,7.34-2.047,12.819-2.494a23.9,23.9,0,0,0,9.721-2.68Z" transform="translate(-705.239 -460.317)" fill="#1e4174"/>
                      <g id="Group_8522" data-name="Group 8522" clip-path="url(#clip-path)">
                        <path id="Path_4220" data-name="Path 4220" d="M719.365,464.648s-.395-3.121-1.569-4.362" transform="translate(-699.574 -460.331)" fill="none" stroke="#aaeeed" stroke-linecap="round" stroke-miterlimit="10" stroke-width="0.561"/>
                        <path id="Path_4221" data-name="Path 4221" d="M716.438,465.124s-.393-3.123-1.569-4.363" transform="translate(-700.895 -460.117)" fill="none" stroke="#aaeeed" stroke-linecap="round" stroke-miterlimit="10" stroke-width="0.561"/>
                        <path id="Path_4222" data-name="Path 4222" d="M713.51,465.6s-.393-3.123-1.569-4.363" transform="translate(-702.215 -459.902)" fill="none" stroke="#aaeeed" stroke-linecap="round" stroke-miterlimit="10" stroke-width="0.561"/>
                      </g>
                    </g>
                    <path id="Path_4224" data-name="Path 4224" d="M729.645,461.2l-1.564,7.755a3.933,3.933,0,0,0-1.573.5c-.517.393-1.431,1.87-2.127,1.747-2.768-.491-3.591-4.466-3.591-4.466l1.2-20.666Z" transform="translate(-697.954 -446.075)" fill="#fdb59c"/>
                  </g>
                  <g id="Group_8527" data-name="Group 8527" transform="translate(74.81 197.598)">
                    <path id="Path_4225" data-name="Path 4225" d="M752.139,474.879c.132.831,1.278,1.85,4.411,1.04s7.123-4.49,8.582-6.121,2.124-2.917,5.06-4.3,6.917-4.758,7.37-6.774c.055-.834-1.027-1.656-1.027-1.656Z" transform="translate(-751.694 -444.977)" fill="#aaeeed"/>
                    <g id="Group_8526" data-name="Group 8526" transform="translate(0 5.296)">
                      <path id="Path_4226" data-name="Path 4226" d="M769.4,452.385c1.664,1.476,6.177,4.5,7.274,6.794-.641,2.854-4.376,5.841-7.782,7.281s-4.31,4.43-7.739,7.351c-3.367,2.87-7.044,4.109-8.875,3.179-2-1.016,3.21-6.911,6.427-11.368a23.909,23.909,0,0,0,4.276-9.132Z" transform="translate(-751.832 -452.385)" fill="#1e4174"/>
                      <g id="Group_8525" data-name="Group 8525" clip-path="url(#clip-path-2)">
                        <path id="Path_4227" data-name="Path 4227" d="M761.883,459.111s-2.63-1.728-4.337-1.64" transform="translate(-749.255 -450.092)" fill="none" stroke="#aaeeed" stroke-linecap="round" stroke-miterlimit="10" stroke-width="0.561"/>
                        <path id="Path_4228" data-name="Path 4228" d="M760.344,461.646s-2.629-1.728-4.337-1.64" transform="translate(-749.949 -448.949)" fill="none" stroke="#aaeeed" stroke-linecap="round" stroke-miterlimit="10" stroke-width="0.561"/>
                        <path id="Path_4229" data-name="Path 4229" d="M758.805,464.18s-2.631-1.728-4.337-1.64" transform="translate(-750.643 -447.806)" fill="none" stroke="#aaeeed" stroke-linecap="round" stroke-miterlimit="10" stroke-width="0.561"/>
                      </g>
                    </g>
                    <path id="Path_4231" data-name="Path 4231" d="M764.777,448.735l2.29,5.3a3.906,3.906,0,0,0-.637,1.522c-.036.649.493,2.3-.054,2.753-2.171,1.785-5.727-.168-5.727-.168L757,450.077Z" transform="translate(-749.501 -448.735)" fill="#fdb59c"/>
                  </g>
                  <path id="Path_4232" data-name="Path 4232" d="M728.853,374.376a68.667,68.667,0,0,0,17.735-7.187c3.342.627,8.68,10.075,11.224,14.1s-6.4,16.644-6.958,19.192c-3.61,16.494-6.793,28.1-9.133,35.62-1.584,5.095-3.934,11.33-4.178,13.286,2.346,7.282-7.734,47.961-7.734,47.961s-5.587,1.744-8.839-1.979c0,0,1.855-44.155,2-48.985.485-15.9,2.754-27.5,3.156-34.306C727.8,383.856,728.853,374.376,728.853,374.376Z" transform="translate(-690.943 -287.92)" fill="#4881b9"/>
                  <path id="Path_4233" data-name="Path 4233" d="M771.809,489.162s-22.2-37.092-24.1-40.626c-1.608-2.976-9.164-48.646-9.76-52.347,0,0-11.218-14.152-11.494-21.935l20.771-5.735c1.271,4.774,7.988,4.836,13.1,16.252,4.448,9.943,3.227,31.236.924,58.565a13.869,13.869,0,0,1,5.761,7.5c2.642,7.489,11.947,34.981,11.947,34.981A8.437,8.437,0,0,1,771.809,489.162Z" transform="translate(-688.471 -287.319)" fill="#85b8ed"/>
                  <path id="Path_4234" data-name="Path 4234" d="M778.949,485.822s-9.3-27.492-11.947-34.981a13.862,13.862,0,0,0-5.761-7.5c2.3-27.33,3.523-48.623-.924-58.565-5.108-11.416-11.825-11.478-13.1-16.252l-20.771,5.735c.1,2.909,1.735,6.708,3.738,10.326,3.711-.4,13.823-1.725,19.513-4.7,0,0,5.476,7.382,7.058,21.131s1.685,37.74,1.493,42.588c-.081,2.005,2.557,2.013,6.177,9.071,2.963,5.775,10.043,27.72,12.778,34.871A7.454,7.454,0,0,0,778.949,485.822Z" transform="translate(-688.471 -287.319)" fill="#4e7eac" opacity="0.249"/>
                  <path id="Path_4239" data-name="Path 4239" d="M748.154,337.575a4.662,4.662,0,0,0,2.245.8c1.682.772,5.9,3.7,6.88,5.514,2.345,3.236,2.007,10.146-1.017,18.873-1.512,4.366-8.357,13.167-3.21,24.665,0,0-13.7,7.328-26.2,1.154-.2-6.306,1.352-10.034,1.4-17.005a15.48,15.48,0,0,1-3.684-7.734c-.592-8.5,7.911-11.1,14.534-20.563,1.85-2.644,3.247-2.515,5.765-4.442A5.942,5.942,0,0,1,748.154,337.575Z" transform="translate(-689.338 -301.278)" fill="#ce3e3e"/>
                  <path id="Path_4240" data-name="Path 4240" d="M749.246,359.112c.038-.106.068-.207.1-.312l-.855-3.348-4.1-9.777-4.178.7a82.617,82.617,0,0,0,1.75,21.517,68.308,68.308,0,0,0,2.184,7.393C744.131,367.952,748.133,362.327,749.246,359.112Z" transform="translate(-682.323 -297.624)" fill="#ce3e3e"/>
                  <path id="Path_4241" data-name="Path 4241" d="M735.111,343.333c.062,1.258-2.316,4.034-1.73,5.951s3.4.463,5.553-1.715,4.588-7.19,7.514-9.045a5.852,5.852,0,0,1-1.479-1.271Z" transform="translate(-685.387 -301.423)" fill="#fdb59c"/>
                  <g id="Group_8533" data-name="Group 8533" transform="translate(34.353)">
                    <path id="Path_4242" data-name="Path 4242" d="M744.334,316.937s-2.584-5.442-11.13-4.189-9.773,11.082-9.094,14.389a11.9,11.9,0,0,0,5.4,7.422Z" transform="translate(-723.952 -312.561)" fill="#001c45"/>
                    <path id="Path_4243" data-name="Path 4243" d="M739.647,331.249l3.729,3.316,1.647,5.582a14.664,14.664,0,0,0-3.245,2.925c-1.1,1.656-3.558,5.634-6.517,5.974a24.062,24.062,0,0,0-.15-5.521c-.448-1.933-1.8-5.765-1.8-5.765Z" transform="translate(-719.729 -304.131)" fill="#fdb59c"/>
                    <path id="Path_4244" data-name="Path 4244" d="M739.647,331.249a15.545,15.545,0,0,1,.393,3.87c-.135,1.585-1.717,4.056-5.382,6.74-.586-1.86-1.345-4.1-1.345-4.1Z" transform="translate(-719.729 -304.131)" fill="#ef9779"/>
                    <path id="Path_4245" data-name="Path 4245" d="M727.805,326.406c-.7,2.51-3.572,6.028-2.946,6.653.519.521,2.969.4,2.969.4a4.6,4.6,0,0,0,1.19-4.17C728.409,326.859,727.805,326.406,727.805,326.406Z" transform="translate(-723.582 -306.316)" fill="#fdb59c"/>
                    <path id="Path_4246" data-name="Path 4246" d="M733.309,315.63c-3.472.316-6.954,5.128-6.887,9.5s1.077,6.759.8,9.85a19.129,19.129,0,0,0,1.038,9.312c.865,2.156,3.116,2.642,6.11,1.92a22.014,22.014,0,0,0,7.358-4.137c.862-.83,1.027-3.737,1.027-3.737a8.585,8.585,0,0,0,5.971-4.35C750.6,330.244,750.263,314.086,733.309,315.63Z" transform="translate(-722.837 -311.223)" fill="#fdb59c"/>
                    <path id="Path_4247" data-name="Path 4247" d="M741.934,339.388a5.626,5.626,0,0,0,3.4-5.617c-.342-4.263-6.084-4.417-5.851-.665.02.311-2.237-.794-2.357-.872a28.422,28.422,0,0,1-2.68-1.966,19.042,19.042,0,0,1-4.4-5.093,12.81,12.81,0,0,1-1.587-8.83,2.57,2.57,0,0,1,2.108-2.436,9.865,9.865,0,0,1,4.664-.64,12.26,12.26,0,0,1,7.157,3.378s4.285-1.782,7.489.749,5.466,9.071,2.713,15.841-6.936,9.467-6.936,9.467Z" transform="translate(-722.017 -312.27)" fill="#001c45"/>
                    <path id="Path_4248" data-name="Path 4248" d="M738.29,315.891a8.707,8.707,0,0,1,6.277-.765c3.786.843,6.993,5.82,7.075,12.826s-.6,13.453-2.875,15.985-6.656,5.305-11.418,4.8c0,0,2.7-5.3.477-10.11,0,0,2.595,1.638,4.957-1.569S738.29,315.891,738.29,315.891Z" transform="translate(-717.908 -311.514)" fill="#001c45"/>
                    <g id="Group_8532" data-name="Group 8532" transform="translate(6.414 17.787)">
                      <g id="Group_8531" data-name="Group 8531">
                        <path id="Path_4249" data-name="Path 4249" d="M728.944,327.453a1.006,1.006,0,1,1,.947,1.062A1.007,1.007,0,0,1,728.944,327.453Z" transform="translate(-728.115 -324.059)" fill="#001c45"/>
                        <path id="Path_4250" data-name="Path 4250" d="M728.372,325.578l4.6,1.458a2.4,2.4,0,0,0-1.683-2.053A2.713,2.713,0,0,0,728.372,325.578Z" transform="translate(-728.372 -324.819)" fill="#001c45"/>
                      </g>
                      <path id="Path_4251" data-name="Path 4251" d="M739.06,326.806a2.354,2.354,0,0,0-2.084.234c-.195.157.141.479.328.409,1.056-.393,2.351-.448,2.872.789.029.067.076,0,.067-.046A1.73,1.73,0,0,0,739.06,326.806Z" transform="translate(-724.517 -323.984)" fill="#ef9779"/>
                      <path id="Path_4252" data-name="Path 4252" d="M738.45,326.832c-.118-.055-.385.237-.361.319a1.424,1.424,0,0,1,.578.506,1.921,1.921,0,0,1,.251,1.2,2.141,2.141,0,0,1-1.708,2.052c-.019,0-.049.058-.019.065a2.05,2.05,0,0,0,2.116-1.506A2.189,2.189,0,0,0,738.45,326.832Z" transform="translate(-724.4 -323.914)" fill="#ef9779"/>
                    </g>
                  </g>
                  <path id="Path_4253" data-name="Path 4253" d="M721.484,389.543c1.328-.076,1.982-.327,1.3-.881-1.209-.985-2.3-1.637-2.483-2.809-.216-1.422,1.2-.454,1.982-.062,1.975.987,4.6,1.522,6.244,3.166,4.755-1.238,17.353-6.7,26.172-11.138,0,0-4.881-20.216-5.433-25.475-.533-5.082.133-10.261,5.794-11.543,2.747-.621,4.479,2.515,5.469,9.066s3.8,29.574,3.464,32.093-3.081,4.387-13.094,7.595c-5.648,1.81-21.791,5.826-21.791,5.826a16.259,16.259,0,0,1-4.105,1.434" transform="translate(-691.254 -299.858)" fill="#fdb59c"/>
                  <g id="Group_8534" data-name="Group 8534" transform="translate(0 89.049)">
                    <path id="Path_4254" data-name="Path 4254" d="M714.783,391.565v-9.007a8.629,8.629,0,0,1,8.63-8.63h0a8.63,8.63,0,0,1,8.633,8.63v9.007" transform="translate(-693.734 -373.929)" fill="none" stroke="#fffff8" stroke-linecap="round" stroke-miterlimit="10" stroke-width="0.83"/>
                    <path id="Path_4255" data-name="Path 4255" d="M741.136,383.092H704.57l-4.292,51.092h36.566Z" transform="translate(-700.277 -369.796)" fill="#fe9d2b"/>
                    <path id="Path_4631" data-name="Path 4631" d="M741.136,383.092H704.57l-4.292,25.546h36.566Z" transform="translate(-700.277 -344.25)" fill="#fe9d2b"/>
                    <path id="Path_4256" data-name="Path 4256" d="M736.184,383.092h-6.415l-4.292,51.092h15Z" transform="translate(-688.911 -369.796)" fill="#b5680e"/>
                    <path id="Path_4257" data-name="Path 4257" d="M725.477,420.391l7.5-6.72,7.5,6.72Z" transform="translate(-688.911 -356.002)" fill="#b5680e"/>
                    <path id="Path_4258" data-name="Path 4258" d="M708.836,387.02a1.5,1.5,0,1,1,1.5,1.5A1.5,1.5,0,0,1,708.836,387.02Z" transform="translate(-696.416 -368.699)" fill="#a52f2f"/>
                    <path id="Path_4259" data-name="Path 4259" d="M720.73,387.02a1.5,1.5,0,1,1,1.5,1.5A1.5,1.5,0,0,1,720.73,387.02Z" transform="translate(-691.052 -368.699)" fill="#a52f2f"/>
                    <path id="Path_4260" data-name="Path 4260" d="M709.868,391.565v-9.007a8.629,8.629,0,0,1,8.629-8.63h0a8.629,8.629,0,0,1,8.631,8.63v9.007" transform="translate(-695.951 -373.929)" fill="none" stroke="#fffff8" stroke-linecap="round" stroke-miterlimit="10" stroke-width="0.83"/>
                  </g>
                  <path id="Path_4261" data-name="Path 4261" d="M728.068,382.249a18.815,18.815,0,0,1-8.155-.007,13.186,13.186,0,0,1-1.686-.495c-2.539-.94-5.762-3.565-4.42-6.631a3.467,3.467,0,0,1,1.641-1.92,4.226,4.226,0,0,1,3.142.371,20.556,20.556,0,0,0,3.172,1.155c.821.18,2.011.152,2.785.255" transform="translate(-694.316 -285.293)" fill="#ef9779"/>
                </g>
              </g>
            </g>
          </g>
          <g id="Group_8689" data-name="Group 8689" transform="translate(37 5)">
            <g id="Group_8688" data-name="Group 8688" transform="translate(1965.762 296.595)">
              <path id="Path_4464" data-name="Path 4464" d="M-966.6,136.975c.544-3.946-16.1-3.8-6.7,3.284-3.717,3.431-7.9,10.784-1.347,13.237-1.825,3.244-4.433,8.794-.452,11.312,4.005,2.534,6.056-1.547,6.017-5.353,4.327.009,5.269-2.158,6.565-6.231.668-2.1,1.607-4.347,1.16-6.589-.374-1.876-1.3-2.219-2.532-3.327,4.4-3.157-1.24-5.687-3.544-7.5" fill="#292830"/>
              <path id="Path_4465" data-name="Path 4465" d="M-982.571,183.038a.133.133,0,0,0,.028.086v.008a.322.322,0,0,0,.061.1c.154.207.606.31,1.818-1.155l.158-.176c-.17.256-1.985,3.107-.3,5.812a.027.027,0,0,1,.016.008c.108.066.712.36.627-.344a.564.564,0,0,0-.017-.159v-.039a2.452,2.452,0,0,1-.027-.644.384.384,0,0,1,.009-.128,8.054,8.054,0,0,1,.814-3.714,14.485,14.485,0,0,0-.3,1.521c0,.072-.025.136-.03.2-.176,1.308-.213,3.03.569,3.944a.093.093,0,0,0,.032.014.888.888,0,0,0,.2.077.549.549,0,0,0,.12.018c.127-.007.251-.085.268-.373,0,0-.339-.675.194-5.027-.045.663-.249,5.062.386,5.172a.787.787,0,0,0,.268.089.374.374,0,0,0,.457-.239v-.009a1.444,1.444,0,0,0,.058-.25,28.85,28.85,0,0,1-.182-4.027c-.005,1.107.093,3.252.818,3.413,0,0,.659.259.412-2.435,0-.072-.015-.135-.018-.206a2.288,2.288,0,0,1,.226-1.286.116.116,0,0,1,.02-.065,2.429,2.429,0,0,1,.3-.478,5.471,5.471,0,0,0,.593-.979c.064-.155.143-.318.2-.5.076-.219.153-.43.221-.64.034-.122.06-.242.093-.356.1-.371.181-.774.254-1.215.011-.089.014-.185.033-.281.006-.032,0-.08.01-.12l.138-.23-3.13-1.808c-.154.541-.241.856-.241.856a.021.021,0,0,0-.015.009c-.039.034-.077.06-.115.094-.068.059-2.054,1.646-2.828,2.364-.289.27-.56.555-.832.824a4.322,4.322,0,0,0-1.364,2.215.121.121,0,0,0-.005.056" fill="#fdb59c"/>
              <path id="Path_4467" data-name="Path 4467" d="M-977.225,181.294a6.893,6.893,0,0,0-.606,4.63l.579.206s1.3-1.024,2.257-4.363" fill="#fdb59c"/>
              <path id="Path_4468" data-name="Path 4468" d="M-973.579,178.9l-4.146-1.864.032-.08c.025-.016,8.579-17.484,8.579-17.484a3.586,3.586,0,0,1,.994-1.174c4.294-3.473,9.284,1.962,5.6,6.741-.474.613-8.609,10.8-11.063,13.861" fill="#ebf3fa"/>
              <path id="Path_4469" data-name="Path 4469" d="M-935.453,225.533l-.12.07-2.86,1.69s-.64-.61-1.72-1.73c-5.5-5.69-22.33-24.5-23.91-42.91l13.45-.03.229,2.67a75.978,75.978,0,0,0,7.511,26.76c2.33,4.73,4.72,8.93,6.14,11.34.509.86.889,1.5,1.1,1.84.12.2.181.3.181.3" fill="#fdb59c"/>
              <path id="Path_4470" data-name="Path 4470" d="M-936.793,228.923c-.99.57-2.091,1.21-2.49,1.43a5.187,5.187,0,0,1-2.4.64c-.78.01-1.719.01-2.229-.04a9.245,9.245,0,0,1-1.4-.24c-.86-.23-.87-1.84-.009-2.01.41-.1,4.96-3,4.96-3l.21-.14,3.42-2.17c.509.86.889,1.5,1.1,1.84l.061.37.05.28v.02a2.778,2.778,0,0,1-1.27,3.02" fill="#292830"/>
              <path id="Path_4471" data-name="Path 4471" d="M-966.367,177.774l9.795,9.21-1.659,2.107a75.737,75.737,0,0,0-12.9,24.61c-2.416,7.863-3.852,14.9-3.852,14.9l-3.382-.768s-1.747-32.737,12-50.058" fill="#fdb59c"/>
              <path id="Path_4472" data-name="Path 4472" d="M-987,228.229a8.319,8.319,0,0,0,1.286.619,68.087,68.087,0,0,0,8.443,2.394,2.244,2.244,0,0,0,2.6-2.082l.31-2.961-4.025-.711s-7.658.828-8.073.806c-.878-.065-1.3,1.481-.544,1.935" fill="#292830"/>
              <path id="Path_4473" data-name="Path 4473" d="M-976.581,198.252s7.427,7.085,30.617-.383l-5.819-13.168-16.823-.81Z" fill="#1e4072"/>
              <path id="Path_4474" data-name="Path 4474" d="M-969.879,180.731s-4.309,7.468-9.67,17.521a14.688,14.688,0,0,0,5.193,2.2,40.746,40.746,0,0,1,6.7-12.255s-3.7,7.895-4.244,12.926a12.976,12.976,0,0,0,10.232.861,127.422,127.422,0,0,0,0-13.692s3.57,10,3.57,12.947c0,0,4.309.745,7.373-1.457,0,0-2.585-10.436-4.021-12.926,0,0,5.361,8.426,6.128,12.447a7.352,7.352,0,0,0,4.308-1.532l-6.8-17.521Z" fill="#4881b9"/>
              <path id="Path_4475" data-name="Path 4475" d="M-949.644,183.733c-10.38,4.86-22.24,1.39-22.26.57l.651-17.48a11.5,11.5,0,0,1,2.409-7.31,10.575,10.575,0,0,1,6.2-3.92c2.41-.5,5.57-.35,7.84,1.79a9.321,9.321,0,0,1,2.6,5.12c3.09,15.26,2.56,21.23,2.56,21.23" fill="#ebf3fa"/>
              <path id="Path_4476" data-name="Path 4476" d="M-954.8,157.383s-4.218.024-6.568,5.742a3.354,3.354,0,0,1-3.089,2.108,3.323,3.323,0,0,1-2.572-1.216,6.889,6.889,0,0,1-1.811-4.5,10.575,10.575,0,0,1,6.2-3.92c2.41-.5,5.57-.35,7.84,1.79" fill="#4881b9"/>
              <path id="Path_4477" data-name="Path 4477" d="M-958.828,157.057v-4.233a2.033,2.033,0,0,0-2.033-2.033h-.808a2.034,2.034,0,0,0-2.01,1.727l-.593,3.9a2.03,2.03,0,0,0,1.543,2.284l1.4.331a2.034,2.034,0,0,0,2.5-1.979" fill="#ef9779"/>
              <path id="Path_4478" data-name="Path 4478" d="M-969.737,148.851c-.583-1.527-.447-3.668.851-3.967a2.242,2.242,0,0,1,1.326.191c.35-4.625,2.97-10.094,6.213-10.84,4.242-.977,8.259.615,10.481,11.644a8.136,8.136,0,0,1-5.553,9.617c-3.089,1-7.277-.745-9.523-4.094-1.457-.2-3.056-.615-3.795-2.551" fill="#fdb59c"/>
              <path id="Path_4479" data-name="Path 4479" d="M-960.573,147.436a.87.87,0,0,0,1.014.691.869.869,0,0,0,.59-1.075.868.868,0,0,0-1.013-.691.87.87,0,0,0-.591,1.075" fill="#292830"/>
              <path id="Path_4480" data-name="Path 4480" d="M-954.642,146.018a.87.87,0,0,0,1.014.691.868.868,0,0,0,.59-1.075.868.868,0,0,0-1.012-.691.87.87,0,0,0-.592,1.075" fill="#292830"/>
              <path id="Path_4481" data-name="Path 4481" d="M-962.042,145.826a.282.282,0,0,0,.214-.217,1.769,1.769,0,0,1,2.015-1.516.282.282,0,0,0,.321-.234.283.283,0,0,0-.236-.322,2.32,2.32,0,0,0-2.652,1.956.281.281,0,0,0,.218.333.256.256,0,0,0,.12,0" fill="#292830"/>
              <path id="Path_4482" data-name="Path 4482" d="M-955.969,142.954a.237.237,0,0,0,.255-.021,1.485,1.485,0,0,1,2.112.137.237.237,0,0,0,.333.027.237.237,0,0,0,.027-.334,1.949,1.949,0,0,0-2.76-.205.235.235,0,0,0-.043.331.225.225,0,0,0,.076.065" fill="#292830"/>
              <path id="Path_4483" data-name="Path 4483" d="M-956.616,151.556a.236.236,0,0,0-.233-.1,1.482,1.482,0,0,1-1.8-1.111.238.238,0,0,0-.282-.18.236.236,0,0,0-.178.282,1.945,1.945,0,0,0,2.334,1.476.236.236,0,0,0,.193-.272.221.221,0,0,0-.037-.094" fill="#292830"/>
              <path id="Path_4484" data-name="Path 4484" d="M-954.577,149.939a1.108,1.108,0,0,0,.779-.588,1.014,1.014,0,0,0-.17-1.124,1.76,1.76,0,0,0-.982-.383.252.252,0,0,0-.272.228.251.251,0,0,0,.227.273,1.285,1.285,0,0,1,.664.228.516.516,0,0,1,.081.561c-.124.26-.456.383-.935.345a.248.248,0,0,0-.271.23.25.25,0,0,0,.23.27,2.078,2.078,0,0,0,.649-.04" fill="#292830"/>
              <path id="Path_4485" data-name="Path 4485" d="M-953.995,189.639a.132.132,0,0,0,.077.047l.006,0a.3.3,0,0,0,.112.036c.252.056.661-.16.621-2.062l.005-.236c.038.3.528,3.649,3.574,4.594,0,0,0-.006.016,0,.124-.02.775-.192.25-.67a.53.53,0,0,0-.116-.109l-.027-.029a2.48,2.48,0,0,1-.441-.47.383.383,0,0,1-.076-.1,8.037,8.037,0,0,1-1.811-3.343,14.729,14.729,0,0,0,.766,1.348c.044.057.07.12.108.171.72,1.106,1.818,2.432,3.007,2.614a.071.071,0,0,0,.033-.01.869.869,0,0,0,.2-.07.52.52,0,0,0,.1-.064c.092-.089.135-.228-.041-.457,0,0-.7-.29-3.136-3.933.4.531,3.118,3.995,3.67,3.663a.749.749,0,0,0,.261-.107.374.374,0,0,0,.19-.48l-.005-.006a1.615,1.615,0,0,0-.119-.227,28.939,28.939,0,0,1-2.77-2.93c.72.841,2.2,2.4,2.85,2.048,0,0,.668-.234-1.28-2.112-.049-.052-.1-.092-.148-.144a2.293,2.293,0,0,1-.669-1.121.127.127,0,0,1-.027-.063,2.4,2.4,0,0,1-.084-.558,5.577,5.577,0,0,0-.191-1.129c-.053-.158-.1-.334-.17-.509-.086-.216-.166-.426-.251-.63-.054-.114-.114-.221-.162-.329-.168-.347-.368-.705-.6-1.087-.049-.074-.11-.148-.158-.234-.017-.028-.05-.062-.072-.1l-.045-.266-3.551.676c.237.511.377.806.377.806a.028.028,0,0,0-.005.017c-.007.05-.02.1-.026.146-.013.089-.48,2.588-.6,3.637-.042.393-.061.786-.091,1.168a4.315,4.315,0,0,0,.414,2.568.118.118,0,0,0,.033.045" fill="#fdb59c"/>
              <path id="Path_4486" data-name="Path 4486" d="M-949.891,180.631l-4.357,1.3-.029-.081c.518-.01.5-1.591.286-3.564a40.65,40.65,0,0,0-3.349-12.131c-.33-.738-.748-1.806-1.157-2.895a3.758,3.758,0,0,1,5.058-4.762,6.953,6.953,0,0,1,2.113,2.594c3.3,6.1,2.354,16.158,1.435,19.542" fill="#ebf3fa"/>
              <path id="Path_4487" data-name="Path 4487" d="M-967.616,144.531c.87.811,2.721,1.586,3.758.719a3.057,3.057,0,0,0,.944-2.266c.028-.948-.7-1.572-.682-2.428.838-.026,1.887.443,2.813.108a2.668,2.668,0,0,0,1.569-2.583c1.094.716,1.893,1.965,3.122,2.509.619.273,2.386.629,2.661-.233-.652,1.964,1.779,2.042,2.235,3.251.3.791-.55,2.773,1.273,2.57.068-1.78-.013-3.731-.083-5.519a5.283,5.283,0,0,0-1.706-3.047c-.162-.168-.826-.576-.886-.727-.118-.29.237-1.013.2-1.379-.217-1.894-2.91-3.975-4.714-4.067a7.336,7.336,0,0,0-1.35,0c-.585.087-.671.4-1.091.606-.874.428-2.049.178-3.053.5-2.168.69-6.452,2.656-4.389,5.359a15.659,15.659,0,0,0-1.813,1.457,9.488,9.488,0,0,0-1.549,2.773,5.614,5.614,0,0,0-.322,2.936c.152.587.967,1.179,1.031,1.678.049.379-.566,1.356-.663,1.8a6.375,6.375,0,0,0-.161,2.072c.2,1.516,1.3,3.131,2.963,3.149-.127.7-.3,1.376.47,1.742a4.619,4.619,0,0,0,2.009.09c2.115-.228,2.454-2.208,1.595-3.85,1.093-.906.589-2.722.273-3.89a6.2,6.2,0,0,0-.761-1.941c-.244-.35-.9-.8-.923-1.014" fill="#292830"/>
            </g>
          </g>
        </g>
      </g>
      <g id="Group_9075" data-name="Group 9075">
        <g id="Group_9072" data-name="Group 9072">
          <g id="Group_8798" data-name="Group 8798" transform="translate(986.283 -117.386)">
            <g id="Group_8795" data-name="Group 8795" transform="translate(41.625 390.386)">
              <path id="Path_4611" data-name="Path 4611" d="M62.548,390.386H53.975a2.812,2.812,0,0,0-2.813,2.81v5.394h14.2V393.2A2.809,2.809,0,0,0,62.548,390.386Zm.966,6.36H53.005V393.2a.97.97,0,0,1,.97-.966h8.573a.967.967,0,0,1,.966.966Z" transform="translate(-51.162 -390.386)" fill="#85b8ed"/>
              <path id="Path_4612" data-name="Path 4612" d="M60.032,390.386v1.844H55.748a.97.97,0,0,0-.97.966v.14s-.107-2.95,1.246-2.95Z" transform="translate(-52.935 -390.386)" fill="#1e4174"/>
              <path id="Path_4613" data-name="Path 4613" d="M65.092,390.386v1.844h4.284a.97.97,0,0,1,.97.966v.14s.107-2.95-1.246-2.95Z" transform="translate(-57.994 -390.386)" fill="#1e4174"/>
            </g>
            <path id="Rectangle_16845" data-name="Rectangle 16845" d="M9.875,0h7.442a9.875,9.875,0,0,1,9.875,9.875v6.993a0,0,0,0,1,0,0H0a0,0,0,0,1,0,0V9.875A9.875,9.875,0,0,1,9.875,0Z" transform="translate(35.128 395.979)" fill="#4881b9"/>
            <rect id="Rectangle_16846" data-name="Rectangle 16846" width="34.013" height="31.525" rx="10.625" transform="translate(31.717 409.622)" fill="#4881b9"/>
            <path id="Path_4616" data-name="Path 4616" d="M26.539,0A2.866,2.866,0,0,1,29.4,2.866V19.257a2.866,2.866,0,0,1-2.866,2.866H2.866A2.866,2.866,0,0,1,0,19.257V2.866L6.2,2.2Z" transform="translate(33.929 416.765)" fill="#85b8ed"/>
          </g>
          <g id="Group_8806" data-name="Group 8806" transform="translate(8 24)">
            <g id="Group_8472" data-name="Group 8472" transform="translate(909.271 274.324)">
              <g id="Group_8471" data-name="Group 8471" transform="translate(0)">
                <g id="Group_8465" data-name="Group 8465">
                  <path id="Path_4284" data-name="Path 4284" d="M1.443,0H61.026a1.443,1.443,0,0,1,1.443,1.443V61.026a1.443,1.443,0,0,1-1.443,1.443H1.443A1.443,1.443,0,0,1,0,61.026V1.443A1.443,1.443,0,0,1,1.443,0Z" transform="translate(2.272 2.271)" fill="rgba(133,184,237,0.42)" style="mix-blend-mode: multiply;isolation: isolate"/>
                  <path id="Path_4630" data-name="Path 4630" d="M0,0H62.469V62.468H0Z" fill="#fff" stroke="rgba(66,140,198,0.16)" stroke-width="1"/>
                </g>
              </g>
            </g>
            <g id="Group_8805" data-name="Group 8805">
              <g id="Group_81" data-name="Group 81" transform="translate(915.172 283.737)" opacity="0.5">
                <path id="Path_114" data-name="Path 114" d="M497.456,219.9a9.7,9.7,0,0,1,4.884,1.356,27.38,27.38,0,0,0,6.916,0c2.44-.544,3.675-2.44,4.138-1.9s.474,5.63.474,5.63l-2.1,5.63-4.748,3.524-7.526-2.168L497,225.6Z" transform="translate(-483.13 -219.259)" fill="#85b8ed"/>
                <path id="Path_115" data-name="Path 115" d="M513.867,225.011l-2.1,5.63-4.748,3.524L499.491,232,497,225.621l.474-5.7h.11a9.966,9.966,0,0,1,4.777,1.36,27.379,27.379,0,0,0,6.916,0c2.319-.514,3.539-2.256,4.042-1.962h0a.227.227,0,0,1,.077.059C513.867,219.918,513.867,225.011,513.867,225.011Z" transform="translate(-483.13 -219.279)" fill="#85b8ed" opacity="0.1"/>
                <path id="Path_116" data-name="Path 116" d="M513.867,225.075l-2.1,5.63-4.748,3.524-7.526-2.168L497,225.685l.474-5.7h.11c.419,1.8,2.2,7.471,7.893,7.871,5.85.408,7.511-6.552,7.856-8.47a.228.228,0,0,1,.077.059C513.867,219.982,513.867,225.075,513.867,225.075Z" transform="translate(-483.13 -219.342)" fill="#85b8ed" opacity="0.1"/>
                <path id="Path_117" data-name="Path 117" d="M473.581,220.064s1.22,7.934,8,8.408,7.934-8.951,7.934-8.951,9.833,3.223,12.126,8.97,4,10.359,4,10.359-.735,1.286-1.562,1.422-6.442,4-6.442,4-.066,10.987.544,11.663.408,3.594-1.426,3.458-14.511-2.984-25.355-.61c0,0-4.542,1.628-4.41-1.018s.338-13.019.338-13.019-6.85-2.984-7.254-2.984-1.426-.537-.342-2.3,2.444-7.8,2.444-7.8S464.9,223,473.581,220.064Z" transform="translate(-459.255 -219.424)" fill="#85b8ed"/>
                <path id="Path_118" data-name="Path 118" d="M555.63,259.77s2.036,1.492,1.562,2.646S555.63,259.77,555.63,259.77Z" transform="translate(-520.215 -244.884)" fill="#85b8ed" opacity="0.1"/>
                <path id="Path_119" data-name="Path 119" d="M563.505,263.67a3.676,3.676,0,0,0,0,2.025" transform="translate(-525.107 -247.351)" fill="#85b8ed" opacity="0.1"/>
                <path id="Path_120" data-name="Path 120" d="M566.51,273.8s.272,1.837-.54,2.032" transform="translate(-526.756 -253.758)" fill="#85b8ed" opacity="0.1"/>
                <path id="Path_121" data-name="Path 121" d="M487.372,258.48s-3.8,3.307-2.51,4.612" transform="translate(-475.284 -244.068)" fill="#85b8ed" opacity="0.1"/>
                <path id="Path_122" data-name="Path 122" d="M485.689,280.26s-.062,3.458.985,3.73" transform="translate(-475.975 -257.844)" fill="#85b8ed" opacity="0.1"/>
                <path id="Path_123" data-name="Path 123" d="M515.4,308.891s2.572-1.76,3.256-1.694" transform="translate(-494.769 -274.882)" fill="#85b8ed" opacity="0.1"/>
                <path id="Path_124" data-name="Path 124" d="M522.4,313.626s2.785-1.97,3.531-1.837" transform="translate(-499.196 -277.784)" fill="#85b8ed" opacity="0.1"/>
              </g>
              <path id="Path_4617" data-name="Path 4617" d="M-11179.576-410.871l-2.494,13.2,3.74,10.037,4.4-10.037-2.95-13.2Z" transform="translate(12116 697)" fill="#1e4174"/>
              <path id="Path_4619" data-name="Path 4619" d="M-11185.973-412.263l2.711-4.852,4.9,3.281,6.19-3.281,1.55,4.852-6.278,2.646h-2.8Z" transform="translate(12116 696)" fill="#c1dbf2"/>
            </g>
          </g>
          <g id="Group_8807" data-name="Group 8807" transform="translate(-11 -18)">
            <g id="Group_8794" data-name="Group 8794" transform="translate(1004.271 364.863)">
              <g id="Group_8495-2" data-name="Group 8495" transform="translate(0)">
                <g id="Group_8489-2" data-name="Group 8489">
                  <rect id="Rectangle_16821-2" data-name="Rectangle 16821" width="62.468" height="62.469" transform="translate(2.272 2.271)" fill="rgba(133,184,237,0.42)" style="mix-blend-mode: multiply;isolation: isolate"/>
                  <rect id="Rectangle_16822-2" data-name="Rectangle 16822" width="62.469" height="62.468" fill="#fff" stroke="rgba(66,140,198,0.16)" stroke-width="1"/>
                </g>
              </g>
            </g>
            <path id="Path_160" data-name="Path 160" d="M481,591.451h0s-2.528.632-6.449,11.252-5.31,24.341-5.31,24.341-2.2,3.733,7.206,3.983c0,0-.757,2.466,4.553,2.087s4.546-.375,4.546-.375,3.414-2.15,4.931-1.771a7.989,7.989,0,0,1,4.108,1.9c1.643,1.389,6.894.823,6.956-.25a9.921,9.921,0,0,0,0-1.584s8.029.507,6.512-5.31-2.782-15.364-2.782-15.364-4.108-18.649-8.79-18.9S481,591.451,481,591.451Z" transform="translate(547.74 -214.877)" fill="#4881b9"/>
            <rect id="Rectangle_16847" data-name="Rectangle 16847" width="17" height="3" transform="translate(1028 374)" fill="#cbe1f7"/>
            <rect id="Rectangle_16848" data-name="Rectangle 16848" width="6" height="3" transform="translate(1034 374)" fill="#4881b9"/>
          </g>
        </g>
        <g id="Group_8811" data-name="Group 8811" transform="matrix(0.035, -0.999, 0.999, 0.035, 1068.147, 457.039)">
          <g id="Group_8455" data-name="Group 8455" transform="translate(-1.175 10.912)">
            <text id="Ed_art" data-name="Ed  art" transform="translate(20 17)" fill="#fff" font-size="21" font-family="Helvetica"><tspan x="-30.931" y="0" xml:space="preserve">Ed  art</tspan></text>
            <path id="Path_4118" data-name="Path 4118" d="M396.955,58.954q0-4.1-.8-5.332a2.865,2.865,0,0,0-2.589-1.228,4.844,4.844,0,0,0-1.167.131v1.74a1.281,1.281,0,0,1,1.078-.5,1.328,1.328,0,0,1,1.282.858,14.644,14.644,0,0,1,.394,4.5,12.8,12.8,0,0,1-.294,3.707l-.89-1.251-.973.708,1.156,1.556a2.058,2.058,0,0,1-.771.142,1.2,1.2,0,0,1-.983-.468v1.737a4.272,4.272,0,0,0,.956.1,7.973,7.973,0,0,0,1.734-.252L396,66.328l.937-.69-.942-1.288Q396.955,63.284,396.955,58.954Z" transform="translate(-376.393 -48.516)" fill="#fff"/>
          </g>
        </g>
      </g>
    </g>
  </g>
</svg>
