<svg xmlns="http://www.w3.org/2000/svg" width="92.731" height="80.01" viewBox="0 0 92.731 80.01">
  <g id="Group_9082" data-name="Group 9082" transform="translate(-929.269 -435.987)">
    <g id="undraw_active_support_6rwo" transform="translate(892.629 435.384)">
      <path id="Path_1911" data-name="Path 1911" d="M298.613,375.85h4.207a18.233,18.233,0,0,1,18.233,18.233v13.255H280.38V394.083A18.233,18.233,0,0,1,298.613,375.85Z" transform="translate(-243.74 -326.725)" fill="#4881b9"/>
      <circle id="Ellipse_418" data-name="Ellipse 418" cx="18.589" cy="18.589" r="18.589" transform="translate(38.428 4.858)" fill="#333"/>
      <path id="Path_1912" data-name="Path 1912" d="M390.1,334.43h5.376a3.79,3.79,0,0,1,3.79,3.79v3.694a5.8,5.8,0,0,1-5.8,5.8H392.1a5.8,5.8,0,0,1-5.8-5.8v-3.688a3.79,3.79,0,0,1,3.79-3.79Z" transform="translate(-335.816 -290.719)" fill="#181d21" opacity="0.1"/>
      <path id="Path_1913" data-name="Path 1913" d="M386.3,331.53h12.968v7.489a5.8,5.8,0,0,1-5.8,5.8H392.1a5.8,5.8,0,0,1-5.8-5.8V331.53Z" transform="translate(-335.816 -288.198)" fill="#fdb797"/>
      <path id="Path_1914" data-name="Path 1914" d="M536.43,437.147a18.665,18.665,0,0,0,12.968.035V435.59H536.43Z" transform="translate(-485.922 -391.944)" fill="#181d21" opacity="0.1"/>
      <circle id="Ellipse_419" data-name="Ellipse 419" cx="18.589" cy="18.589" r="18.589" transform="translate(38.428 8.893)" fill="#fdb59c"/>
      <path id="Path_1915" data-name="Path 1915" d="M450.26,172.133h35.447s-3.026-14.313-16.427-13.407S450.26,172.133,450.26,172.133Z" transform="translate(-411.015 -151.231)" fill="#181d21" opacity="0.1"/>
      <path id="Path_1916" data-name="Path 1916" d="M450.26,168.493h35.447s-3.026-14.313-16.427-13.4S450.26,168.493,450.26,168.493Z" transform="translate(-411.015 -148.072)" fill="#333"/>
      <ellipse id="Ellipse_420" data-name="Ellipse 420" cx="1.729" cy="3.243" rx="1.729" ry="3.243" transform="translate(37.083 23.447)" fill="#fdb797"/>
      <ellipse id="Ellipse_421" data-name="Ellipse 421" cx="1.729" cy="3.243" rx="1.729" ry="3.243" transform="translate(73.395 23.447)" fill="#fdb797"/>
      <path id="Path_1917" data-name="Path 1917" d="M467.628,116.6a6.586,6.586,0,0,1,2.389-3.542,12.466,12.466,0,0,1,3.028-1.3,23.144,23.144,0,0,0,4.4-2.106,28.127,28.127,0,0,1,4.793-2.783c2.987-1.1,6.313-.507,9.4.285a7.886,7.886,0,0,1,2.2.817,8.321,8.321,0,0,1,1.95,1.887l4.894,5.9a9.32,9.32,0,0,1,1.216,1.714,5.894,5.894,0,0,1,.557,1.933,5.081,5.081,0,0,1-.523,3.172,5,5,0,0,1-4.168,2.188,15.177,15.177,0,0,1-4.811-.869,94.308,94.308,0,0,0-15.449-3.482,43.578,43.578,0,0,0-7.862-.255c-.823.054-1.911.431-2.411-.408C466.793,119.032,467.4,117.334,467.628,116.6Z" transform="translate(-425.632 -105.668)" fill="#333"/>
      <line id="Line_67" data-name="Line 67" y2="14.432" transform="translate(44.602 66.18)" fill="none" stroke="#181d21" stroke-miterlimit="10" stroke-width="4" opacity="0.05"/>
      <line id="Line_68" data-name="Line 68" y2="14.432" transform="translate(69.676 66.18)" fill="none" stroke="#181d21" stroke-miterlimit="10" stroke-width="4" opacity="0.05"/>
    </g>
    <circle id="Ellipse_1378" data-name="Ellipse 1378" cx="26" cy="26" r="26" transform="translate(970 458)" fill="#dedde3"/>
    <path id="Icon_feather-phone-call" data-name="Icon feather-phone-call" d="M22.575,7.5A7.5,7.5,0,0,1,28.5,13.425M22.575,1.5A13.5,13.5,0,0,1,34.5,13.41M33,25.38v4.5a3,3,0,0,1-3.27,3,29.685,29.685,0,0,1-12.945-4.6,29.25,29.25,0,0,1-9-9A29.685,29.685,0,0,1,3.18,6.27,3,3,0,0,1,6.165,3h4.5a3,3,0,0,1,3,2.58A19.26,19.26,0,0,0,14.715,9.8a3,3,0,0,1-.675,3.165l-1.905,1.9a24,24,0,0,0,9,9l1.9-1.905a3,3,0,0,1,3.165-.675,19.26,19.26,0,0,0,4.215,1.05A3,3,0,0,1,33,25.38Z" transform="translate(976.832 468.5)" fill="none" stroke="#3d4862" stroke-linecap="round" stroke-linejoin="round" stroke-width="2"/>
  </g>
</svg>
