<svg xmlns="http://www.w3.org/2000/svg" width="190.615" height="98.962" viewBox="0 0 190.615 98.962">
  <g id="Group_9079" data-name="Group 9079" transform="translate(-580.999 -1508.581)">
    <ellipse id="Ellipse_82" data-name="Ellipse 82" cx="14.362" cy="14.362" rx="14.362" ry="14.362" transform="translate(665.451 1515.326)" fill="#fdb59c"/>
    <g id="Group_9078" data-name="Group 9078">
      <path id="Path_769" data-name="Path 769" d="M215.765,704.422a31.589,31.589,0,0,1-2.75,5.288A22.766,22.766,0,0,1,211.35,712H25.15c.168-.131,1.151-.927,2.681-2.29,1.1-.977,2.475-2.247,4.021-3.775l19.625-4.055a3.824,3.824,0,0,1,.771-.079l20.922-.03h.022l10.363-.013h.023l8.746-.01h11.589l24.03-.034h10.34l4.127-.047h1.364l12-.017h5.677l13.865-.018h4.128l13.133-.018,11.085-.013a3.935,3.935,0,0,1,.916.109Z" transform="translate(555.849 895.543)" fill="#0f3756"/>
      <g id="Group_9077" data-name="Group 9077">
        <path id="Path_775" data-name="Path 775" d="M518.223,338.052a4.56,4.56,0,0,1-.25,3.083c-.705,1.213-2.243,1.6-3.619,1.875l-4.775.955a1.853,1.853,0,0,0-.913.362,1.6,1.6,0,0,0-.426,1.044,11.993,11.993,0,0,0,.977,5.08c1.128,3.336,2.074,6.742,3.5,9.961a21.363,21.363,0,0,0,6.176,8.443,11.942,11.942,0,0,0,9.909,2.456c2.979-.732,5.422-2.835,7.528-5.065A18.221,18.221,0,0,0,540.535,360a22.24,22.24,0,0,0,.953-5.124l.848-7.969c.132-1.247.219-2.649-.59-3.606a4.294,4.294,0,0,0-1.33-.96,54.6,54.6,0,0,1-5.469-2.951,8.771,8.771,0,0,1-3.736-4.792,20.059,20.059,0,0,0-.783-3.634,4.907,4.907,0,0,0-3.183-2.481,10.857,10.857,0,0,0-4.135-.168c-1.381.156-6.7.555-7.273,2.111-.307.838.965,2.636,1.267,3.46A24.16,24.16,0,0,1,518.223,338.052Z" transform="translate(153.731 1206.379)" fill="#f7a285"/>
        <path id="Path_776" data-name="Path 776" d="M518.888,414.021l2.8-5.928c1.312-2.778,2.652-5.7,2.513-8.764-.027-.61-.034-1.372.5-1.649a1.438,1.438,0,0,1,.736-.094,29.756,29.756,0,0,1,8.631,1.746,3.423,3.423,0,0,1,1.466.848,3.5,3.5,0,0,1,.659,1.558,45.517,45.517,0,0,1,.96,5.675,89.639,89.639,0,0,1,0,14.242l-.744,14.481a1.382,1.382,0,0,1-.122.6,1.288,1.288,0,0,1-.973.511,21.136,21.136,0,0,1-4.368.141c-10.254-.389-20.562-.985-30.749.258q.069-2.26-.072-4.524c-.4-6.516-2.093-12.873-3.751-19.186-.967-3.686-1.9-7.707-.347-11.181a4.791,4.791,0,0,1,.97-1.478,5.512,5.512,0,0,1,2.46-1.235,15.654,15.654,0,0,1,4.74-.536l10.564,23c.483,1.052.88,2.16,1.361,3.2.432-1.794-.087-3.9.432-5.842A36.773,36.773,0,0,1,518.888,414.021Z" transform="translate(164.558 1148.63)" fill="#faba66"/>
        <path id="Path_779" data-name="Path 779" d="M513.393,213.278c.394-3.716-1.151-7.352-2.9-10.654a21.466,21.466,0,0,1-2.156-4.886,6.153,6.153,0,0,1,.776-5.124,10.5,10.5,0,0,1,3.708-2.58c3.788-2.011,7.252-4.966,8.917-8.919-.942.513-.7,2.042.134,2.718a8.6,8.6,0,0,0,2.986,1.128c3.726,1.173,5.961,4.889,7.754,8.361a4,4,0,0,1,.588,1.8,3.657,3.657,0,0,1-.6,1.748,18.938,18.938,0,0,0-2.369,4.849,11.7,11.7,0,0,0,.657,6.1,13.059,13.059,0,0,0,3.168,5.717,5.619,5.619,0,0,0,6.082,1.28c-1.975-3.4-4.021-7.191-3.251-11.042.372-1.843,1.372-3.519,1.8-5.352.811-3.5-.54-7.094-1.865-10.432l-3.961-9.961c-.6-1.523-1.293-3.148-2.681-4.011A7.26,7.26,0,0,0,527,173.18a22.842,22.842,0,0,0-10.5,1.106c-6,2.4-9.765,8.309-12.751,14.042a11.723,11.723,0,0,0-1.741,5.479,15.2,15.2,0,0,0,.558,3.132,59.852,59.852,0,0,1,1.086,12.911c.039,3.321-.134,6.451-1.587,9.475,1.99.4,4.877,1.463,6.848.682C511.488,218.991,513.069,215.863,513.393,213.278Z" transform="translate(158.884 1335.55)" fill="#454b69"/>
        <g id="Group_9076" data-name="Group 9076">
          <path id="Path_778" data-name="Path 778" d="M457.733,427.883a6.591,6.591,0,0,0,5.026-2.218,15.531,15.531,0,0,0,2.884-4.859,47.922,47.922,0,0,0,2.478-7.726,18.647,18.647,0,0,0,.513-6.844c-.479-3.142-2.257-6-2.56-9.16a1.671,1.671,0,0,1,.426-1.533,1.767,1.767,0,0,1,.979-.255c3.16-.188,6.632-.152,9.079,1.853.746.61,1.35,1.372,2.079,2,1.736,1.508,4.189,2.275,5.3,4.278a14.848,14.848,0,0,1,.846,2.237,20.577,20.577,0,0,0,2.848,4.874c-1.067,4.5-2.294,9.011-3.361,13.515a59.087,59.087,0,0,1-2.237,7.825c-.643,1.659-1.453,3.351-1.255,5.127a11.706,11.706,0,0,0,.514,2.041,23.454,23.454,0,0,1,.987,7.293l-47.809.117A17.707,17.707,0,0,0,437.2,435.14a12.356,12.356,0,0,0-1.508-5.5c-1.518-2.6-4.189-4.289-6.821-5.739-1.843-1.005-3.822,4.651-5.814,4a130.409,130.409,0,0,0,.335-13.349,6.117,6.117,0,0,1,.121-2.238c.158-.491.447-.93.643-1.407.786-1.912.037-4.356,1.307-5.983.878-1.131,2.418-1.453,3.669-2.15a22.046,22.046,0,0,0,3.4-2.8,15.112,15.112,0,0,1,7.734-3.453,9.741,9.741,0,0,1,1.476,4.356c.085.973.023,1.96.159,2.929a14.419,14.419,0,0,0,1.267,3.756,136.439,136.439,0,0,0,7.327,14.882,15.764,15.764,0,0,0,2.838,3.725A6.486,6.486,0,0,0,457.733,427.883Z" transform="translate(224.609 1150.593)" fill="#667fab"/>
          <path id="Path_787" data-name="Path 787" d="M697.5,482.979a4.723,4.723,0,0,1,3.016,2.27c2.059,2.966,2.947,6.561,3.936,10.035a133.566,133.566,0,0,0,4.334,12.754,19.2,19.2,0,0,0,1.3,2.8,7.824,7.824,0,0,1,1.1,2.143c.442,1.9-1.124,3.686-2.758,4.745a10.911,10.911,0,0,1-2.823,1.361,16.818,16.818,0,0,1-3,.513l-9.3,1.005a60.775,60.775,0,0,1-12.883.482c-.27-.938.26-1.6.221-2.579a5.76,5.76,0,0,0-.61-1.992,12.736,12.736,0,0,1-.994-3.6,4.892,4.892,0,0,0-.239-1.352,1.268,1.268,0,0,0-1.005-.838c2.513-.25,4.422-.724,6.935-.975a6.192,6.192,0,0,0,2.7-.7,5.625,5.625,0,0,0,1.979-2.8,14.812,14.812,0,0,0,1.216-8.421c-.469-2.314-1.778-4.469-1.771-6.829a10.218,10.218,0,0,1,1.046-4.055,6.7,6.7,0,0,1,2.7-3.441A9.141,9.141,0,0,1,697.5,482.979Z" transform="translate(12.559 1077.622)" fill="#667fab"/>
        </g>
        <path id="Path_810" data-name="Path 810" d="M137.065,690.4H120.7a.7.7,0,0,1-.7-.7v-8.158a.7.7,0,0,1,.994-.628c4.7,2.232,8.433,4.834,15.75.035a.682.682,0,0,1,1.005.622V689.7A.7.7,0,0,1,137.065,690.4Z" transform="translate(476.891 912.817)" fill="#3d4862"/>
      </g>
      <path id="Path_814" data-name="Path 814" d="M803.24,568.694l-5.422,25.141a1.605,1.605,0,0,0,1.779,1.932l34.3-4.541a1.605,1.605,0,0,0,1.314-1.086l7.4-22.318a1.608,1.608,0,0,0-1.6-2.111l-36.278,1.722A1.608,1.608,0,0,0,803.24,568.694Z" transform="translate(-87.328 1008.664)" fill="#3d4862"/>
    </g>
  </g>
</svg>
