<svg xmlns="http://www.w3.org/2000/svg" width="77.179" height="81.171" viewBox="0 0 77.179 81.171">
  <g id="Group_8677" data-name="Group 8677" transform="translate(0)">
    <path id="Path_4330" data-name="Path 4330" d="M-139.286,386.749h21.176V365.572h-21.176v21.177Z" transform="translate(142.476 -345.9)" fill="#faba66"/>
    <path id="Path_4331" data-name="Path 4331" d="M-138.69,382.43h16.263V366.167H-138.69V382.43Z" transform="translate(144.337 -344.039)" fill="#f18400"/>
    <path id="Path_4332" data-name="Path 4332" d="M-138.25,379.234h12.626V366.608H-138.25v12.626Z" transform="translate(145.717 -342.663)" fill="#faba66"/>
    <path id="Path_4333" data-name="Path 4333" d="M-145.783,407h7.926l-8.039-38.358h-4.12L-145.783,407Z" transform="translate(206.473 -336.308)" fill="#959290"/>
    <path id="Path_4334" data-name="Path 4334" d="M-148.225,383.221h45.9v-6.968h-45.9v6.968Z" transform="translate(163.557 -312.529)" fill="#959290"/>
    <path id="Path_4335" data-name="Path 4335" d="M-144.088,390.746h28.837l-3.287-18.691h-21.72l-3.83,18.691Z" transform="translate(159.421 -325.648)" fill="#959290"/>
    <path id="Path_4336" data-name="Path 4336" d="M-143.623,375.95h28.47v-4.74h-28.47v4.74Z" transform="translate(157.405 -328.287)" fill="#302d2a"/>
    <path id="Path_4337" data-name="Path 4337" d="M-139.114,385.194a9.553,9.553,0,0,0,9.551,9.556,9.557,9.557,0,0,0,9.56-9.556,9.557,9.557,0,0,0-9.56-9.556,9.553,9.553,0,0,0-9.551,9.556Z" transform="translate(143.659 -314.452)" fill="#302d2a"/>
    <path id="Path_4338" data-name="Path 4338" d="M-137.985,381.67a4.9,4.9,0,0,0,4.9,4.9,4.9,4.9,0,0,0,4.9-4.9,4.9,4.9,0,0,0-4.9-4.9,4.9,4.9,0,0,0-4.9,4.9Z" transform="translate(147.182 -310.928)" fill="#c2bfbe"/>
    <path id="Path_4339" data-name="Path 4339" d="M-152.092,385.406a9.556,9.556,0,0,0,9.556,9.552,9.558,9.558,0,0,0,9.556-9.552,9.556,9.556,0,0,0-9.556-9.556,9.554,9.554,0,0,0-9.556,9.556Z" transform="translate(210.16 -313.787)" fill="#302d2a"/>
    <path id="Path_4340" data-name="Path 4340" d="M-150.964,381.883a4.9,4.9,0,0,0,4.9,4.9,4.9,4.9,0,0,0,4.9-4.9,4.9,4.9,0,0,0-4.9-4.9,4.9,4.9,0,0,0-4.9,4.9Z" transform="translate(213.688 -310.263)" fill="#c2bfbe"/>
    <path id="Path_4341" data-name="Path 4341" d="M-140.326,372.93h28.656v-2.272h-28.656v2.272Z" transform="translate(140.326 -330.008)" fill="#959290"/>
    <path id="Path_4342" data-name="Path 4342" d="M-145.525,389.523l1.764-.56-4.495-14.213-1.76.56,4.491,14.213Z" transform="translate(212.377 -317.225)" fill="#74706f"/>
    <path id="Path_4343" data-name="Path 4343" d="M-140.392,374.348v4.021a10.8,10.8,0,0,1,10.8,10.805h4.029a14.83,14.83,0,0,0-14.83-14.826Z" transform="translate(154.488 -318.483)" fill="#c5c2c2"/>
    <path id="Path_4344" data-name="Path 4344" d="M-150.448,380.255a2.784,2.784,0,0,0,2.78,2.78,2.78,2.78,0,0,0,2.776-2.78,2.781,2.781,0,0,0-2.776-2.784,2.784,2.784,0,0,0-2.78,2.784Z" transform="translate(215.292 -308.726)" fill="#eae9ea"/>
    <path id="Path_4345" data-name="Path 4345" d="M-137.471,380.048a2.78,2.78,0,0,0,2.776,2.78,2.784,2.784,0,0,0,2.784-2.78,2.782,2.782,0,0,0-2.784-2.78,2.777,2.777,0,0,0-2.776,2.78Z" transform="translate(148.792 -309.357)" fill="#eae9ea"/>
    <path id="Path_4346" data-name="Path 4346" d="M-148.183,370.159h10.54V368.6h-10.54v1.563Z" transform="translate(198.699 -336.452)" fill="#74706f"/>
    <path id="Path_4347" data-name="Path 4347" d="M-146.647,370.159h4.209V368.6h-4.209v1.563Z" transform="translate(197.164 -336.452)" fill="#302d2a"/>
    <path id="Path_4348" data-name="Path 4348" d="M-145.455,368.139v6.5a3.252,3.252,0,0,1-3.25-3.254,3.247,3.247,0,0,1,3.25-3.246Z" transform="translate(208.666 -337.88)" fill="#302d2a"/>
    <path id="Path_4349" data-name="Path 4349" d="M-148.3,374.636h-.535v-6.5h.535v6.5Z" transform="translate(212.046 -337.879)" fill="#959290"/>
    <path id="Path_4350" data-name="Path 4350" d="M-136.008,378.6h-3.56l-4.128-.395v.395h-3.133v-3.125l3.979.04,6.843,1.945v1.14Z" transform="translate(191.487 -314.973)" fill="#3b342f"/>
    <path id="Path_4351" data-name="Path 4351" d="M-146.82,369.418a1.093,1.093,0,0,0,.932,1.229l2.685.375a1.1,1.1,0,0,0,1.233-.936h0a1.093,1.093,0,0,0-.928-1.233l-2.689-.371a1.1,1.1,0,0,0-1.233.936Z" transform="translate(197.44 -336.841)" fill="#fde3ce"/>
    <path id="Path_4352" data-name="Path 4352" d="M-142.911,366.891l3.1.52.532-3.189-3.1-.516-.535,3.185Z" transform="translate(178.595 -351.73)" fill="#fde3ce"/>
    <path id="Path_4353" data-name="Path 4353" d="M-125.759,374.694l1.885-4-22.006-.6.439,4.6Z" transform="translate(175.433 -331.772)" fill="#3d4862"/>
    <path id="Path_4354" data-name="Path 4354" d="M-145.88,392.19h4.064l2.908-21.95-5.61,1.108-1.361,20.842Z" transform="translate(190.468 -331.314)" fill="#3d4862"/>
    <path id="Path_4355" data-name="Path 4355" d="M-143.128,388.623l7.967.1,2.791-23.331-6.118-1.063-4.64,24.3Z" transform="translate(172.581 -349.793)" fill="#667fab"/>
    <path id="Path_4356" data-name="Path 4356" d="M-143.757,365.221c-.425,2.256-.243,4.434,1.4,5.172l-.392,2.631,3.1.5c2.252.421,2.978-1.105,3.4-3.353l1.118.017-.549-3.06.2-1.064a4.135,4.135,0,0,0-3.308-4.838h0a4.145,4.145,0,0,0-4.846,3.308l-.128.684Z" transform="translate(178.738 -359.699)" fill="#fde3ce"/>
    <path id="Path_4357" data-name="Path 4357" d="M-142.832,369.065c1.526.363,1.081-2.442,2.627-2.009,1.357.379.227,1.588.957,1.811,1.159.355.062-3.98,2.5-3.629,2.367.342.759-1.085.821-2.553-1.353,1.08-.111-1.258-2.359-1.679h0a4.15,4.15,0,0,0-4.85,3.308s-1.658,4.293.309,4.751Z" transform="translate(178.415 -360.392)" fill="#7c3c13"/>
    <path id="Path_4358" data-name="Path 4358" d="M-146.137,366.637a1.918,1.918,0,0,1,1.815-2.017,1.91,1.91,0,0,1,1.872,1.192s.107.355.124.466c.548,2.4,3.65,13.329,14.822,14.257a8.92,8.92,0,0,1-.338,2.322c-16.385-.553-18.286-16.134-18.286-16.134h0l-.012-.087Z" transform="translate(180.136 -348.882)" fill="#7891bc"/>
    <path id="Path_4359" data-name="Path 4359" d="M-143.518,362.937a.4.4,0,0,0,.289.491.409.409,0,0,0,.487-.293.4.4,0,0,0-.293-.495.408.408,0,0,0-.483.3Z" transform="translate(184.602 -355.089)" fill="#474341"/>
    <path id="Path_4360" data-name="Path 4360" d="M-143.679,362.666l1.458.362.064-.258-1.458-.359-.065.254Z" transform="translate(184.638 -355.773)" fill="#474341"/>
    <path id="Path_4361" data-name="Path 4361" d="M-136.008,376.073v.644h-3.56l-4.128-.395v.395h-3.133v-.644Z" transform="translate(191.487 -313.094)" fill="#6b605b"/>
    <path id="Path_4362" data-name="Path 4362" d="M-142.743,363.289a.9.9,0,0,0,.536,1.147.915.915,0,0,0,1.019-.767.912.912,0,0,0-.54-1.151.905.905,0,0,0-1.015.771Z" transform="translate(179.927 -355.507)" fill="#fef0e6"/>
    <path id="Path_4363" data-name="Path 4363" d="M-142.681,363.076a.562.562,0,0,0,.33.709.563.563,0,0,0,.627-.478.562.562,0,0,0-.334-.709.566.566,0,0,0-.623.479Z" transform="translate(180.161 -355.224)" fill="#f5d8c1"/>
    <path id="Path_4364" data-name="Path 4364" d="M-135.058,374.36v4.025a10.8,10.8,0,0,0-10.8,10.8h-4.025a14.823,14.823,0,0,1,14.826-14.826Z" transform="translate(203.131 -318.445)" fill="#c5c2c2"/>
    <path id="Path_4365" data-name="Path 4365" d="M-138.225,360.93a4.953,4.953,0,0,0-5.935,3.708l9.646,2.227a4.957,4.957,0,0,0-3.712-5.935Z" transform="translate(178.852 -360.802)" fill="#4b5e82"/>
    <path id="Path_4366" data-name="Path 4366" d="M-141.4,363.339l-3.427-.721.1-.5,3.427.721-.1.5Z" transform="translate(188.513 -356.7)" fill="#4b5e82"/>
  </g>
</svg>
