<svg xmlns="http://www.w3.org/2000/svg" xmlns:xlink="http://www.w3.org/1999/xlink" width="140.64" height="110.093" viewBox="0 0 140.64 110.093">
  <defs>
    <linearGradient id="linear-gradient" x1="0.5" y1="1" x2="0.5" gradientUnits="objectBoundingBox">
      <stop offset="0" stop-color="gray" stop-opacity="0.251"/>
      <stop offset="0.54" stop-color="gray" stop-opacity="0.122"/>
      <stop offset="1" stop-color="gray" stop-opacity="0.102"/>
    </linearGradient>
    <linearGradient id="linear-gradient-2" x1="0.5" x2="0.5" xlink:href="#linear-gradient"/>
  </defs>
  <g id="Group_9080" data-name="Group 9080" transform="translate(-343.962 -432.837)">
    <g id="browser" transform="translate(343.962 432.837)">
      <path id="Path_1957" data-name="Path 1957" d="M319.29,189.309V117H178.65v68.161a28,28,0,0,0,6.209,3.8q1.665.767,3.4,1.4H317.612Z" transform="translate(-178.65 -117)" fill="url(#linear-gradient)"/>
      <path id="Path_1958" data-name="Path 1958" d="M320.79,201.269V131H180.73v66.243a28.284,28.284,0,0,0,6.179,3.7q1.659.739,3.388,1.363H319.115Z" transform="translate(-180.423 -128.93)" fill="#fff"/>
      <rect id="Rectangle_617" data-name="Rectangle 617" width="140.059" height="3.716" transform="translate(0.309 0.205)" fill="#0f3756"/>
    </g>
    <g id="boxes" transform="translate(348.029 444.926)">
      <rect id="Rectangle_618" data-name="Rectangle 618" width="23.136" height="14.538" transform="translate(32.034)" fill="#fe9d2b"/>
      <rect id="Rectangle_619" data-name="Rectangle 619" width="23.136" height="14.538" fill="#5a5773" opacity="0.2"/>
      <rect id="Rectangle_620" data-name="Rectangle 620" width="23.136" height="14.538" transform="translate(64.067)" fill="#5a5773" opacity="0.2"/>
      <rect id="Rectangle_621" data-name="Rectangle 621" width="23.136" height="14.538" transform="translate(0 20.784)" fill="#5a5773" opacity="0.2"/>
      <rect id="Rectangle_622" data-name="Rectangle 622" width="23.136" height="14.538" transform="translate(32.034 20.784)" fill="#5a5773" opacity="0.2"/>
      <rect id="Rectangle_623" data-name="Rectangle 623" width="23.136" height="14.538" transform="translate(64.067 20.784)" fill="#5a5773" opacity="0.2"/>
      <rect id="Rectangle_624" data-name="Rectangle 624" width="23.136" height="14.538" transform="translate(0 41.566)" fill="#5a5773" opacity="0.2"/>
      <rect id="Rectangle_625" data-name="Rectangle 625" width="23.136" height="14.538" transform="translate(32.034 41.566)" fill="#5a5773" opacity="0.2"/>
      <rect id="Rectangle_626" data-name="Rectangle 626" width="23.136" height="14.538" transform="translate(64.067 41.566)" fill="#5a5773" opacity="0.2"/>
    </g>
    <g id="woman" transform="translate(374.689 448.557)">
      <path id="Path_1959" data-name="Path 1959" d="M410.873,256.136s-4.156-7.6-3.455-8.831a16.833,16.833,0,0,0,1.217-3.025s1.534-1.05,1.534-1.478,1.215-1.421,1.855-1.852.319-2.47,0-2.717a5.632,5.632,0,0,1-.826-1.112s.444-1.234,0-1.605.065-.739,0-1.112a14.92,14.92,0,0,1,0-1.728,2.786,2.786,0,0,0-1.635-1.183l-.047-.2-.273-1.152s1.33-2.55-.828-3.885a3.6,3.6,0,0,0-.477-.251,1.655,1.655,0,0,0-.012-.167,10.45,10.45,0,0,0-.313-1.953c-.112-.358-.259-.6-.444-.544a.3.3,0,0,0-.121.069,1.347,1.347,0,0,0-.229.271h0a.061.061,0,0,1-.01.016,4.637,4.637,0,0,0-.509,1.412,8.155,8.155,0,0,0-.148.887h0a4.879,4.879,0,0,0-.247.548,3.162,3.162,0,0,0-.01,2.723c.473.739,1.11,1.755,1.573,2.494l.015.024.028.046-.049.031v.114l.043.622.358,5.378a2.282,2.282,0,0,0-.328-.069,2.983,2.983,0,0,0-.477-.031c-.312-1.226-1.168-2.365-1.331-3.646a3.391,3.391,0,0,1-.025-.386c.013-.806.214-1.614.2-2.419,0-.148,0-.3-.015-.443h0a1.181,1.181,0,0,0-.012-.123,3.635,3.635,0,0,0-1.977-2.754c-.371-.185-.773-.307-1.134-.51a20.125,20.125,0,0,1-2.124-1.888,2.352,2.352,0,0,0-2.033-.443,9.387,9.387,0,0,0-.989.2h0a8.922,8.922,0,0,0-2.263.94c-.1.058-.192.117-.284.185a1.251,1.251,0,0,0-.457.534,1.4,1.4,0,0,0-.071.575c0,.14,0,.284.009.424-.041,2.365-2.59,4.2-2.8,6.5,0,.055-.009.109-.012.164v.253h0v.185c.037,1.013.563,1.956.659,2.964.009.09.013.179.015.269a4.471,4.471,0,0,1-.262,1.357,3.971,3.971,0,0,0-.918.373,5.72,5.72,0,0,0-2.683,3,4.4,4.4,0,0,0-.194,1.319,27.533,27.533,0,0,1-.432,4.708,8.8,8.8,0,0,1-.272,1.158.272.272,0,0,0-.009.114l-.307,3.991-.055.7-.077,1s.022.061.055.163a4.7,4.7,0,0,1,.121.461,2.481,2.481,0,0,1,.04,1.035.712.712,0,0,1-.216.38.158.158,0,0,0-.025.028,3.069,3.069,0,0,0-.234,1.017c-.027.207-.052.444-.077.689-.148,1.574-.239,3.931-.3,5.879-.053,1.922-.072,3.44-.072,3.44a3.924,3.924,0,0,0,.794.393c-.021.052-.043.1-.064.161a7.765,7.765,0,0,0-.482,2.031,3.542,3.542,0,0,0,2.309,3.9,3.257,3.257,0,0,0,.4.136,1.261,1.261,0,0,0,1.011-.062c0,.087.01.172.015.256.021.361.038.69.047.967.064,1.73.492,4.754.492,4.754a6.3,6.3,0,0,1,.019,1.605,8.718,8.718,0,0,0,0,1.852s.443.739,0,1.112a3.94,3.94,0,0,0-.444,2.47.082.082,0,0,1,.007.028c.1.613-.454,9.729-.454,9.729s-.522,1.4-.937,2.844c-.405,1.41-.71,2.871-.334,3.144a3.138,3.138,0,0,0,1.169.316c0,.061-.009.121-.015.183a5.268,5.268,0,0,1-.259,1.531,17.884,17.884,0,0,0-.451,3.252l-.009.117a10.9,10.9,0,0,0-.476,1.381s-1.415,3.548-.936,4.469a.754.754,0,0,0,.176.217h0a.393.393,0,0,0,.046.041,6.509,6.509,0,0,0,3.008.684l-.024.878v.033h.806v-.022c0-.111.018-.619.044-1.3,0-.121.009-.248.015-.378,0-.1.01-.205.015-.312a5.47,5.47,0,0,0,.35-1.974,8.658,8.658,0,0,1,.31-2.288,6.354,6.354,0,0,1,.41-1.116,5.1,5.1,0,0,0-.1-2.272,1.641,1.641,0,0,0-.3-.512v-.3a8.529,8.529,0,0,1,.189-1.9.208.208,0,0,1,0-.03c.012-.052.025-.1.038-.148l.009-.033.262.009c.8.022,1.393.022,1.393.022a30.031,30.031,0,0,0,.577-4.692v-.192a18.277,18.277,0,0,1,.387-3.328l.516-5a2.632,2.632,0,0,1,0-1.478c.158-.381.485-1.09.713-1.577.106-.226.191-.4.226-.48l.021-.041a.957.957,0,0,1-.228-.114h0c-.208-.139-.395-.411.229-.812.959-.618.64-2.161.64-2.161a1.11,1.11,0,0,1,.05-1.05c.333-.494,0-2.346,0-2.346a7.759,7.759,0,0,0,.656-1.545c.238-.739.84-4.354,1.124-6.1.093-.572.148-.942.148-.942l.009.09.009.1h0l.08.823.01.109.148,1.557a47.919,47.919,0,0,1,.111,5.7v.03a1.9,1.9,0,0,1-.108.486,19.3,19.3,0,0,0-.26,4.5v.136a2.72,2.72,0,0,0-.18,1.044h0a.67.67,0,0,0,.117.31.786.786,0,0,1,.114.48v.015a1.737,1.737,0,0,1-.018.213,4.061,4.061,0,0,1-.225.837,3.063,3.063,0,0,0-.213,1.373h0a.435.435,0,0,0,.084.167.4.4,0,0,1,.049.177.064.064,0,0,0,0,.016c.12.995-.189,5.387-.373,7.791-.074.949-.127,1.588-.127,1.588l-.507,5.248.05.035c.058.041.166.112.31.2v.012l-.022.158c-.072.506-.17,1.094-.276,1.543-.009.034-.016.067-.025.1a1.415,1.415,0,0,0-.543.217c-1.076,1.911-.6,3.427,0,3.867a1.554,1.554,0,0,1,.362.9l.148,1.906v.219a.568.568,0,0,0,.028.174l.046.578.062.8h.491v-.974h.027c.775.027,2.024.059,2.568.016h.015a.958.958,0,0,0,.148-.016.371.371,0,0,0,.086-.024c.288-.139,1.007-2.176.359-2.639a2.988,2.988,0,0,1-.791-1.774c-.056-.171-.112-.334-.17-.489v-.1a8.127,8.127,0,0,1,.077-1.694,12.887,12.887,0,0,0,.168-2.024V306.9a2.522,2.522,0,0,0,.33-.108l.024-.01a2.322,2.322,0,0,0,.551-.327l1.809-8.018.191-.933,1.087-5.306s-.383-1.852,0-2.16c.14-.112.179-.591.17-1.146-.015-.97-.17-2.189-.17-2.189s.512-.8.769-1.3a4.028,4.028,0,0,0,0-1.79l.5-2.969a28.054,28.054,0,0,1,1.982-6.484c1.035-2.181.375-8.069-.3-11.2-.018-.081-.035-.161-.053-.238v-.012c.316-.157.7-.346,1.118-.544l.157-.074c.525-.247,1.081-.5,1.579-.713l.033-.013a11.025,11.025,0,0,1,1.1-.411,1.844,1.844,0,0,1,.337-.069C413.559,260.828,410.873,256.136,410.873,256.136Zm-20,10.045h.266c-.031.058-.061.117-.09.176-.018.035-.035.069-.052.1-.1.2-.188.41-.262.612.03-.219.067-.457.108-.711C390.851,266.307,390.861,266.24,390.87,266.181Zm-.718,3.854a.107.107,0,0,0,0-.021l-.022-.069c-.016-.047-.031-.095-.046-.148q.137-.041.279-.093h.019v.049c-.007.069-.016.139-.025.207h0a.149.149,0,0,1,0,.027,1.437,1.437,0,0,1-.019.163c-.013.106-.027.21-.038.309-.028-.093-.056-.185-.086-.275A.7.7,0,0,1,390.152,270.035Z" transform="translate(-386.5 -223.338)" fill="url(#linear-gradient-2)"/>
      <path id="Path_1960" data-name="Path 1960" d="M518,234.163l-1.6.565-.579-.961c-.443-.739-1.058-1.75-1.512-2.485-.8-1.292.247-3.261.247-3.261s.189-1.977.863-2.586.862,2.586.862,2.586c2.707,1.23,1.257,4.123,1.257,4.123l.263,1.147Z" transform="translate(-495.159 -225.059)" fill="#efb7b9"/>
      <path id="Path_1961" data-name="Path 1961" d="M528.456,279.585l-1.6.565-.58-.961V279.1a2.78,2.78,0,0,1,1.982-.392Z" transform="translate(-505.616 -270.482)" fill="#181d21" opacity="0.1"/>
      <path id="Path_1962" data-name="Path 1962" d="M523.56,287.121l.8-.677-.4-6.094a2.532,2.532,0,0,1,3.6.8,15.54,15.54,0,0,0,0,1.724c.062.37-.43.739,0,1.107s0,1.6,0,1.6a5.559,5.559,0,0,0,.794,1.107c.307.245.617,2.278,0,2.708s-1.772,1.416-1.772,1.846-1.478,1.478-1.478,1.478l-1.3-1.716Z" transform="translate(-503.298 -271.542)" fill="#667fab"/>
      <path id="Path_1963" data-name="Path 1963" d="M393.632,533.681c-2.983-1.265-2.321-4.357-1.759-5.913a8.045,8.045,0,0,1,.395-.922l1.673-1.016s.341.871.707,2.039C395.494,530.586,396.468,534.886,393.632,533.681Z" transform="translate(-390.666 -481.112)" fill="#efb7b9"/>
      <path id="Path_1964" data-name="Path 1964" d="M411.786,765.122a5.025,5.025,0,0,0-.443,1.245,8.99,8.99,0,0,0-.192,2.119c.012.492.053.815.053.815l-3.323,2.285s.019-.268.052-.661a18.438,18.438,0,0,1,.433-3.24,5.4,5.4,0,0,0,.25-1.526c.052-.651.072-1.221.072-1.221S412.686,763.438,411.786,765.122Z" transform="translate(-404.719 -684.347)" fill="#efb7b9"/>
      <path id="Path_1965" data-name="Path 1965" d="M468.619,779.09s0,.636-.024,1.375a14.083,14.083,0,0,1-.161,2.018,8.309,8.309,0,0,0-.075,1.688c.022.739.075,1.4.075,1.4s-3.393-3.208-3.047-3.462a1.573,1.573,0,0,0,.269-.705c.1-.443.2-1.035.266-1.537.083-.6.135-1.081.135-1.081Z" transform="translate(-453.704 -696.677)" fill="#efb7b9"/>
      <path id="Path_1966" data-name="Path 1966" d="M416.064,765.122a5.025,5.025,0,0,0-.444,1.245,27.143,27.143,0,0,1-2.72-.208c.05-.636.072-1.221.072-1.221S416.964,763.438,416.064,765.122Z" transform="translate(-408.997 -684.347)" fill="#181d21" opacity="0.1"/>
      <path id="Path_1967" data-name="Path 1967" d="M471.846,779.107s0,.636-.024,1.375a3.7,3.7,0,0,1-2.673-.591c.083-.6.135-1.081.135-1.081Z" transform="translate(-456.932 -696.694)" fill="#181d21" opacity="0.1"/>
      <path id="Path_1968" data-name="Path 1968" d="M423.515,492a28.712,28.712,0,0,0-1.909,6.463l-.492,2.957a4.165,4.165,0,0,1,0,1.784c-.247.492-.739,1.294-.739,1.294s.37,3.016,0,3.323,0,2.154,0,2.154l-1.231,6.209-1.724,8c-1.662,1.356-3.873-.368-3.873-.368l.488-5.232s.739-9.166.432-9.541.123-1.539.123-1.539.432-1.109.124-1.539.061-1.354.061-1.354-.123-3.755.247-4.617,0-6.193,0-6.193l-.148-1.66-.086-.919-.007-.09s-.056.368-.148.939c-.272,1.737-.852,5.337-1.081,6.077a7.912,7.912,0,0,1-.631,1.539s.319,1.846,0,2.339a1.145,1.145,0,0,0-.049,1.047s.307,1.539-.616,2.154,0,.924,0,.924-.677,1.478-.922,2.092a2.736,2.736,0,0,0,0,1.478l-.492,4.985a18.031,18.031,0,0,0-.37,3.508,30.829,30.829,0,0,1-.554,4.677s-4.739,0-5.47-.554,1.22-5.962,1.22-5.962.554-9.479.43-9.724a4.038,4.038,0,0,1,.432-2.461c.432-.368,0-1.109,0-1.109a9.078,9.078,0,0,1,0-1.846,6.549,6.549,0,0,0-.019-1.6s-.412-3.016-.473-4.74-.37-5.6-.37-5.6.322-2.4.371-3.539a4.02,4.02,0,0,1,.444-1.438,12.838,12.838,0,0,1,.917-1.608s14.584-4.311,15.2-3.882a5.572,5.572,0,0,1,.633,2.006C423.876,483.96,424.512,489.829,423.515,492Z" transform="translate(-401.654 -441.032)" fill="#0f3756"/>
      <circle id="Ellipse_430" data-name="Ellipse 430" cx="4.247" cy="4.247" r="4.247" transform="translate(8.629 4.857)" fill="#a1616a"/>
      <path id="Path_1969" data-name="Path 1969" d="M435.886,480.836c-.489.251-.818.424-.818.424s-6.893,3.263-8.854,3.078c-1.517-.148-5.388-.064-7.075-.022a12.84,12.84,0,0,1,.917-1.608s14.585-4.309,15.2-3.881A5.6,5.6,0,0,1,435.886,480.836Z" transform="translate(-414.315 -441.032)" fill="#181d21" opacity="0.1"/>
      <path id="Path_1970" data-name="Path 1970" d="M405.665,324.544s-3.934.621-4.862,1.23a5.046,5.046,0,0,0-2.767,4.309,24.447,24.447,0,0,1-.677,5.847c-.247.738,3.878,6.709,3.878,6.709l-1.478,9.049s5.913-.185,7.882,0,8.86-3.078,8.86-3.078,4.062-2.154,4.924-2.217-1.724-4.739-1.724-4.739-4-7.569-3.325-8.8a17.008,17.008,0,0,0,1.174-3.016l-.739-6.277a2.415,2.415,0,0,0-2.031.307c-.924.677-4.062.307-4.062.307Z" transform="translate(-395.744 -308.658)" fill="#667fab"/>
      <path id="Path_1971" data-name="Path 1971" d="M393.178,387.345l-1.543.43-.427,5.792s.554,1.539,0,2.031-.677,11.018-.677,11.018a4.025,4.025,0,0,0,3.878.307s-.308-1.169.616-5.417a33.845,33.845,0,0,0,.922-6.4s0-5.294.432-6.156,0-3.016,0-3.016-.862-1.169-.8-1.6S393.178,387.345,393.178,387.345Z" transform="translate(-389.934 -360.503)" fill="#181d21" opacity="0.1"/>
      <path id="Path_1972" data-name="Path 1972" d="M397.435,527.9a3.931,3.931,0,0,1-2.775-.1,8.055,8.055,0,0,1,.395-.922l1.673-1.016S397.076,526.731,397.435,527.9Z" transform="translate(-393.454 -481.138)" fill="#181d21" opacity="0.1"/>
      <path id="Path_1973" data-name="Path 1973" d="M392.556,387.311l-1.539.43-.43,5.792s.554,1.539,0,2.031-.677,11.018-.677,11.018a4.02,4.02,0,0,0,3.878.3s-.308-1.169.615-5.417a34.116,34.116,0,0,0,.924-6.4s0-5.294.43-6.156,0-3.016,0-3.016-.862-1.169-.8-1.6S392.556,387.311,392.556,387.311Z" transform="translate(-389.406 -360.469)" fill="#667fab"/>
      <path id="Path_1974" data-name="Path 1974" d="M496.3,411.15s-.8,6.893-3.14,8.187C493.16,419.337,498.392,417.86,496.3,411.15Z" transform="translate(-477.392 -383.385)" fill="#181d21" opacity="0.1"/>
      <path id="Path_1975" data-name="Path 1975" d="M434.88,415.32s2.892,1.415,2.218,2.4S434.88,415.32,434.88,415.32Z" transform="translate(-427.728 -386.939)" fill="#181d21" opacity="0.1"/>
      <path id="Path_1976" data-name="Path 1976" d="M434.88,434.47s1.846,1.908,1.478,2.586S434.88,434.47,434.88,434.47Z" transform="translate(-427.728 -403.258)" fill="#181d21" opacity="0.1"/>
      <path id="Path_1977" data-name="Path 1977" d="M535.63,327.47a6.542,6.542,0,0,1,.794,2.031C536.493,330.3,535.63,327.47,535.63,327.47Z" transform="translate(-513.584 -312.076)" fill="#181d21" opacity="0.1"/>
      <path id="Path_1978" data-name="Path 1978" d="M535.63,315.438s.364-.309,1.292,0S535.63,315.438,535.63,315.438Z" transform="translate(-513.584 -301.706)" fill="#181d21" opacity="0.1"/>
      <path id="Path_1979" data-name="Path 1979" d="M480.673,552a8.559,8.559,0,0,1-4.5-.577l-.776,1.987-.086-.919c.127-.772.374-1.6.862-1.807A7.471,7.471,0,0,0,480.673,552Z" transform="translate(-462.181 -502.288)" fill="#181d21" opacity="0.1"/>
      <path id="Path_1980" data-name="Path 1980" d="M426.18,577.07a28.017,28.017,0,0,0,4.847.646Z" transform="translate(-420.314 -524.777)" fill="#181d21" opacity="0.1"/>
      <path id="Path_1981" data-name="Path 1981" d="M428.84,583.744a7.821,7.821,0,0,1,2.423.254Z" transform="translate(-422.581 -530.459)" fill="#181d21" opacity="0.1"/>
      <path id="Path_1982" data-name="Path 1982" d="M430.09,588.31a14.493,14.493,0,0,0,2.238.3Z" transform="translate(-423.646 -534.356)" fill="#181d21" opacity="0.1"/>
      <path id="Path_1983" data-name="Path 1983" d="M429.46,643.044c.069-.046,3.232-.785,3.625-.254Z" transform="translate(-423.109 -580.618)" fill="#181d21" opacity="0.1"/>
      <path id="Path_1984" data-name="Path 1984" d="M429.46,651.341s2.747-.324,2.816,0S429.46,651.341,429.46,651.341Z" transform="translate(-423.109 -587.946)" fill="#181d21" opacity="0.1"/>
      <path id="Path_1985" data-name="Path 1985" d="M429.46,655.324a18.718,18.718,0,0,1,3.277-.458C433.083,655.014,429.46,655.324,429.46,655.324Z" transform="translate(-423.109 -591.053)" fill="#181d21" opacity="0.1"/>
      <path id="Path_1986" data-name="Path 1986" d="M411.243,790.892l-3.323,2.285s.019-.268.052-.661a8.96,8.96,0,0,1,1.7-2.778,1.362,1.362,0,0,1,1.517.339C411.2,790.568,411.243,790.892,411.243,790.892Z" transform="translate(-404.753 -705.938)" fill="#181d21" opacity="0.1"/>
      <path id="Path_1987" data-name="Path 1987" d="M403.413,793.469a8.248,8.248,0,0,0-.693,3.4,5.273,5.273,0,0,1-.7,2.736,2.688,2.688,0,0,1-.234.334s-2.309-.019-3.118-.689a.8.8,0,0,1-.217-.266c-.463-.922.9-4.454.9-4.454a9.809,9.809,0,0,1,2.169-4.178C404.1,789.682,403.413,793.469,403.413,793.469Z" transform="translate(-396.6 -706.462)" fill="#444053"/>
      <path id="Path_1988" data-name="Path 1988" d="M403.821,824.231a2.685,2.685,0,0,1-.234.334s-2.309-.019-3.118-.689c.4-1.316,1.666-5.3,2.26-4.62C403.289,819.892,403.678,822.951,403.821,824.231Z" transform="translate(-398.405 -731.095)" fill="#181d21" opacity="0.1"/>
      <path id="Path_1989" data-name="Path 1989" d="M420.071,819.5l-.161,5.964h.775s.126-5.232.472-5.964S420.071,819.5,420.071,819.5Z" transform="translate(-414.971 -731.087)" fill="#444053"/>
      <path id="Path_1990" data-name="Path 1990" d="M468.434,800.546s-3.393-3.208-3.047-3.462a1.573,1.573,0,0,0,.269-.705c.652-.114,1.774.158,2.7,2.763C468.381,799.881,468.434,800.546,468.434,800.546Z" transform="translate(-453.704 -711.647)" fill="#181d21" opacity="0.1"/>
      <path id="Path_1991" data-name="Path 1991" d="M463.937,804.666a.344.344,0,0,1-.081.024,24.106,24.106,0,0,1-2.693,0,.583.583,0,0,1-.563-.581c0-.222,0-.492-.018-.781-.038-.911-.148-1.994-.475-2.238-.578-.443-1.035-1.948,0-3.854,0,0,1.984-1.515,3.415,3.039a3.026,3.026,0,0,0,.761,1.761C464.9,802.5,464.214,804.534,463.937,804.666Z" transform="translate(-448.7 -712.189)" fill="#444053"/>
      <path id="Path_1992" data-name="Path 1992" d="M470.124,826.8a24.106,24.106,0,0,1-2.693,0,.582.582,0,0,1-.563-.581c0-.222,0-.492-.018-.781.25-1.1.609-2.238,1.072-2.5C467.925,822.942,469.325,822.784,470.124,826.8Z" transform="translate(-454.972 -734.302)" fill="#181d21" opacity="0.1"/>
      <path id="Path_1993" data-name="Path 1993" d="M423.46,798.143l.372,4.963h.473V797.72Z" transform="translate(-411.802 -709.636)" fill="#444053"/>
      <path id="Path_1994" data-name="Path 1994" d="M424.623,239.075a8.488,8.488,0,0,0-3.787,1.217,1.574,1.574,0,0,0-.714.717,2.376,2.376,0,0,0-.058.887c.04,2.546-2.8,4.472-2.71,7.016.035,1.01.543,1.95.636,2.957.155,1.679-.838,3.224-1.79,4.615a3.823,3.823,0,0,0,2.7-.894,20.458,20.458,0,0,1,.377,10.311h1.362a1.035,1.035,0,0,1,.4.049,1,1,0,0,1,.315.235,5.188,5.188,0,0,1,1.639,4.87l2.9-1.087a8.61,8.61,0,0,0,2-.954,2.888,2.888,0,0,0,1.236-1.781c.078-.444.053-.973.418-1.23a2.277,2.277,0,0,1,.571-.211,2.5,2.5,0,0,0,1.31-2.028,11.681,11.681,0,0,0,.185-3.085c-.129-1.73-.64-3.486-.219-5.174a14.563,14.563,0,0,0,.81-2.809c.07-1.613-1.192-3-1.379-4.606-.132-1.118.272-2.249.14-3.366a3.616,3.616,0,0,0-1.9-2.745c-.356-.183-.739-.306-1.091-.509a19.562,19.562,0,0,1-2.044-1.88c-.729-.577-1.943-.794-2.491-.044Z" transform="translate(-411.809 -236.739)" fill="#181d21" opacity="0.1"/>
      <path id="Path_1995" data-name="Path 1995" d="M424.623,237.808a8.488,8.488,0,0,0-3.787,1.217,1.574,1.574,0,0,0-.714.717,2.376,2.376,0,0,0-.058.887c.04,2.546-2.8,4.472-2.71,7.018.035,1.008.543,1.948.636,2.957.155,1.679-.838,3.224-1.79,4.617a3.843,3.843,0,0,0,2.7-.894,20.451,20.451,0,0,1,.377,10.308h1.362a1.036,1.036,0,0,1,.4.05.973.973,0,0,1,.315.234,5.189,5.189,0,0,1,1.639,4.87l2.9-1.087a8.607,8.607,0,0,0,2-.954,2.888,2.888,0,0,0,1.236-1.781c.078-.443.053-.973.418-1.23a2.278,2.278,0,0,1,.571-.211,2.5,2.5,0,0,0,1.31-2.028,11.679,11.679,0,0,0,.189-3.088c-.129-1.73-.64-3.486-.219-5.174a14.567,14.567,0,0,0,.81-2.809c.069-1.613-1.192-3-1.379-4.606-.132-1.118.272-2.247.14-3.366a3.619,3.619,0,0,0-1.9-2.745c-.356-.183-.739-.306-1.091-.507a19.74,19.74,0,0,1-2.044-1.882c-.729-.577-1.943-.794-2.491-.044Z" transform="translate(-411.809 -235.657)" fill="#181d21"/>
      <g id="Group_379" data-name="Group 379" transform="translate(4.391 4.357)" opacity="0.1">
        <path id="Path_1996" data-name="Path 1996" d="M442.269,252.81a1.643,1.643,0,0,0-.009.172C442.264,252.925,442.267,252.868,442.269,252.81Z" transform="translate(-438.408 -252.81)" fill="#181d21"/>
        <path id="Path_1997" data-name="Path 1997" d="M514.927,279.291a15.731,15.731,0,0,0,.163-2.351A17,17,0,0,0,514.927,279.291Z" transform="translate(-500.321 -273.373)" fill="#181d21"/>
        <path id="Path_1998" data-name="Path 1998" d="M424.636,303.689c-.086-.917-.513-1.774-.614-2.689a3.38,3.38,0,0,0-.022.506c.035,1,.531,1.931.631,2.924A3.992,3.992,0,0,0,424.636,303.689Z" transform="translate(-422.846 -293.876)" fill="#181d21"/>
        <path id="Path_1999" data-name="Path 1999" d="M518.07,329.069a6.34,6.34,0,0,0-.148,1.836,5.572,5.572,0,0,1,.148-1.066,14.562,14.562,0,0,0,.81-2.809,3.051,3.051,0,0,0-.024-.52A24.525,24.525,0,0,1,518.07,329.069Z" transform="translate(-502.872 -315.615)" fill="#181d21"/>
        <path id="Path_2000" data-name="Path 2000" d="M418.9,344.36a3.843,3.843,0,0,1-2.182.887c-.169.263-.343.52-.516.775a3.843,3.843,0,0,0,2.7-.894,20.4,20.4,0,0,1,.86,5.536A20.445,20.445,0,0,0,418.9,344.36Z" transform="translate(-416.2 -330.826)" fill="#181d21"/>
        <path id="Path_2001" data-name="Path 2001" d="M470.582,388.964a2.494,2.494,0,0,1-1.31,2.027,2.218,2.218,0,0,0-.571.213c-.365.257-.34.789-.418,1.23a2.851,2.851,0,0,1-1.236,1.774,8.887,8.887,0,0,1-2,.955l-2.764,1.035a3.816,3.816,0,0,1-.133.82l2.9-1.087a8.606,8.606,0,0,0,2-.954,2.888,2.888,0,0,0,1.236-1.781c.078-.443.053-.973.418-1.23a2.276,2.276,0,0,1,.571-.211,2.5,2.5,0,0,0,1.31-2.028,11.6,11.6,0,0,0,.208-2.617A11.577,11.577,0,0,1,470.582,388.964Z" transform="translate(-455.357 -367.256)" fill="#181d21"/>
        <path id="Path_2002" data-name="Path 2002" d="M439.138,414.342a.979.979,0,0,0-.315-.235,1.057,1.057,0,0,0-.4-.05h-1.208c-.047.257-.1.514-.148.77h1.362a1.035,1.035,0,0,1,.4.05.974.974,0,0,1,.315.234,5.857,5.857,0,0,1,1.758,3.462A5.515,5.515,0,0,0,439.138,414.342Z" transform="translate(-433.985 -390.218)" fill="#181d21"/>
      </g>
      <path id="Path_2003" data-name="Path 2003" d="M405.37,448.9s1.1-.461,1.345,0S405.37,448.9,405.37,448.9Z" transform="translate(-402.58 -415.379)" fill="#181d21" opacity="0.1"/>
      <path id="Path_2004" data-name="Path 2004" d="M408,454.248s1.1-.461,1.347,0S408,454.248,408,454.248Z" transform="translate(-404.822 -419.938)" fill="#181d21" opacity="0.1"/>
    </g>
  </g>
</svg>
