<svg id="undraw_Presentation_62e1" xmlns="http://www.w3.org/2000/svg" xmlns:xlink="http://www.w3.org/1999/xlink" width="185.068" height="146.585" viewBox="0 0 185.068 146.585">
  <defs>
    <linearGradient id="linear-gradient" x1="0.5" y1="1" x2="0.5" gradientUnits="objectBoundingBox">
      <stop offset="0" stop-color="gray" stop-opacity="0.251"/>
      <stop offset="0.535" stop-color="gray" stop-opacity="0.122"/>
      <stop offset="1" stop-color="gray" stop-opacity="0.102"/>
    </linearGradient>
  </defs>
  <rect id="Rectangle_163" data-name="Rectangle 163" width="137.599" height="80.178" fill="url(#linear-gradient)"/>
  <rect id="Rectangle_164" data-name="Rectangle 164" width="134.159" height="4.102" transform="translate(1.852 1.323)" fill="#f5f5f5"/>
  <rect id="Rectangle_165" data-name="Rectangle 165" width="134.159" height="72.636" transform="translate(1.852 5.425)" fill="#fff"/>
  <ellipse id="Ellipse_119" data-name="Ellipse 119" cx="1.164" cy="1.164" rx="1.164" ry="1.164" transform="translate(3.758 2.143)" fill="url(#linear-gradient)"/>
  <ellipse id="Ellipse_120" data-name="Ellipse 120" cx="1.164" cy="1.164" rx="1.164" ry="1.164" transform="translate(6.404 2.143)" fill="url(#linear-gradient)"/>
  <ellipse id="Ellipse_121" data-name="Ellipse 121" cx="1.164" cy="1.164" rx="1.164" ry="1.164" transform="translate(9.05 2.143)" fill="url(#linear-gradient)"/>
  <ellipse id="Ellipse_122" data-name="Ellipse 122" cx="0.953" cy="0.953" rx="0.953" ry="0.953" transform="translate(3.969 2.355)" fill="#ff5252"/>
  <ellipse id="Ellipse_123" data-name="Ellipse 123" cx="0.953" cy="0.953" rx="0.953" ry="0.953" transform="translate(6.589 2.355)" fill="#ff0"/>
  <ellipse id="Ellipse_124" data-name="Ellipse 124" cx="0.953" cy="0.953" rx="0.953" ry="0.953" transform="translate(9.209 2.355)" fill="#69f0ae"/>
  <rect id="Rectangle_166" data-name="Rectangle 166" width="78.938" height="39.058" transform="translate(30.779 11.145)" fill="url(#linear-gradient)"/>
  <rect id="Rectangle_167" data-name="Rectangle 167" width="77.294" height="37.002" transform="translate(31.601 11.968)" fill="#faba66"/>
  <line id="Line_10" data-name="Line 10" y2="26.724" transform="translate(35.712 16.901)" stroke-dasharray="0 4" stroke="#fff" stroke-linecap="round" stroke-linejoin="round" stroke-width="1" fill="none"/>
  <line id="Line_11" data-name="Line 11" x2="68.249" transform="translate(35.507 45.475)" fill="none" stroke="#fff" stroke-linecap="round" stroke-linejoin="round" stroke-width="1"/>
  <line id="Line_12" data-name="Line 12" x2="53.037" transform="translate(43.318 18.34)" opacity="0.3" stroke="#fff" stroke-linecap="round" stroke-linejoin="round" stroke-width="1" fill="none"/>
  <line id="Line_13" data-name="Line 13" x2="53.037" transform="translate(43.318 24.507)" opacity="0.3" stroke="#fff" stroke-linecap="round" stroke-linejoin="round" stroke-width="1" fill="none"/>
  <line id="Line_14" data-name="Line 14" x2="53.037" transform="translate(43.318 30.674)" opacity="0.3" stroke="#fff" stroke-linecap="round" stroke-linejoin="round" stroke-width="1" fill="none"/>
  <line id="Line_15" data-name="Line 15" x2="53.037" transform="translate(43.318 36.841)" opacity="0.3" stroke="#fff" stroke-linecap="round" stroke-linejoin="round" stroke-width="1" fill="none"/>
  <path id="Path_910" data-name="Path 910" d="M381.8,225.711v-14.8s-1.233-6.373,11.306-6.167c11.4-1.618,11.4-6.326,11.4-6.326s10.488-1.141,11.02,10.019a6.078,6.078,0,0,0,2.517,4.68c4.321,3.048,8.074-3.025,9.8-8.373v20.968Z" transform="translate(-334.985 -180.236)" fill="#fff" opacity="0.2"/>
  <ellipse id="Ellipse_125" data-name="Ellipse 125" cx="1.645" cy="1.645" rx="1.645" ry="1.645" transform="translate(55.447 22.657)" fill="tomato"/>
  <ellipse id="Ellipse_126" data-name="Ellipse 126" cx="1.645" cy="1.645" rx="1.645" ry="1.645" transform="translate(55.447 22.657)" fill="#fff" opacity="0.5"/>
  <ellipse id="Ellipse_127" data-name="Ellipse 127" cx="2.056" cy="2.056" rx="2.056" ry="2.056" transform="translate(44.757 28.824)" fill="url(#linear-gradient)"/>
  <ellipse id="Ellipse_128" data-name="Ellipse 128" cx="2.056" cy="2.056" rx="2.056" ry="2.056" transform="translate(55.036 22.246)" fill="#575a88"/>
  <ellipse id="Ellipse_129" data-name="Ellipse 129" cx="2.056" cy="2.056" rx="2.056" ry="2.056" transform="translate(67.536 16.441)" fill="url(#linear-gradient)"/>
  <ellipse id="Ellipse_130" data-name="Ellipse 130" cx="2.056" cy="2.056" rx="2.056" ry="2.056" transform="translate(78.882 28.824)" fill="url(#linear-gradient)"/>
  <ellipse id="Ellipse_131" data-name="Ellipse 131" cx="2.056" cy="2.056" rx="2.056" ry="2.056" transform="translate(90.805 23.068)" fill="url(#linear-gradient)"/>
  <ellipse id="Ellipse_132" data-name="Ellipse 132" cx="1.645" cy="1.645" rx="1.645" ry="1.645" transform="translate(45.169 29.235)" fill="tomato"/>
  <ellipse id="Ellipse_133" data-name="Ellipse 133" cx="1.645" cy="1.645" rx="1.645" ry="1.645" transform="translate(45.169 29.235)" fill="#575a88" opacity="0.2"/>
  <ellipse id="Ellipse_134" data-name="Ellipse 134" cx="1.645" cy="1.645" rx="1.645" ry="1.645" transform="translate(67.947 16.852)" fill="tomato"/>
  <ellipse id="Ellipse_135" data-name="Ellipse 135" cx="1.645" cy="1.645" rx="1.645" ry="1.645" transform="translate(67.947 16.852)" fill="#575a88" opacity="0.2"/>
  <ellipse id="Ellipse_136" data-name="Ellipse 136" cx="1.645" cy="1.645" rx="1.645" ry="1.645" transform="translate(79.293 29.235)" fill="tomato"/>
  <ellipse id="Ellipse_137" data-name="Ellipse 137" cx="1.645" cy="1.645" rx="1.645" ry="1.645" transform="translate(79.293 29.235)" fill="#575a88" opacity="0.5"/>
  <ellipse id="Ellipse_138" data-name="Ellipse 138" cx="1.645" cy="1.645" rx="1.645" ry="1.645" transform="translate(91.216 23.479)" fill="tomato"/>
  <ellipse id="Ellipse_139" data-name="Ellipse 139" cx="1.645" cy="1.645" rx="1.645" ry="1.645" transform="translate(91.216 23.479)" fill="#575a88" opacity="0.2"/>
  <rect id="Rectangle_168" data-name="Rectangle 168" width="78.214" height="2.535" transform="translate(31.141 54.754)" fill="url(#linear-gradient)"/>
  <rect id="Rectangle_169" data-name="Rectangle 169" width="78.214" height="2.535" transform="translate(31.141 58.375)" fill="url(#linear-gradient)"/>
  <rect id="Rectangle_170" data-name="Rectangle 170" width="78.214" height="2.535" transform="translate(31.141 61.996)" fill="url(#linear-gradient)"/>
  <rect id="Rectangle_171" data-name="Rectangle 171" width="78.214" height="2.535" transform="translate(31.141 65.617)" fill="url(#linear-gradient)"/>
  <rect id="Rectangle_172" data-name="Rectangle 172" width="77.49" height="1.811" transform="translate(31.503 55.116)" fill="#e0e0e0"/>
  <rect id="Rectangle_173" data-name="Rectangle 173" width="77.49" height="1.811" transform="translate(31.503 58.737)" fill="#e0e0e0"/>
  <rect id="Rectangle_174" data-name="Rectangle 174" width="77.49" height="1.811" transform="translate(31.503 62.358)" fill="#e0e0e0"/>
  <rect id="Rectangle_175" data-name="Rectangle 175" width="77.49" height="1.811" transform="translate(31.503 65.979)" fill="#e0e0e0"/>
  <path id="Path_911" data-name="Path 911" d="M889.865,150.62s.394,1.312-1.837,2.493-2.886,5.642-.262,6.954,3.411,3.018,2.1,4.2-3.674,4.33-.525,5.117,3.542,2.362,2.624,3.018,2.1-1.181,2.1-1.181.525,3.149,3.28,2.362,10.5-15.744,6.56-17.843S889.865,150.62,889.865,150.62Z" transform="translate(-738.793 -141.989)" fill="#2f2e41"/>
  <path id="Path_912" data-name="Path 912" d="M805.742,601.511l-.853,7.961,3.7,2.275,3.412-.569-1.706-9.667Z" transform="translate(-644.505 -481.652)" fill="#fdb59c"/>
  <ellipse id="Ellipse_140" data-name="Ellipse 140" cx="7.961" cy="7.961" rx="7.961" ry="7.961" transform="translate(150.433 8.403)" fill="#fdb59c"/>
  <path id="Path_913" data-name="Path 913" d="M921.868,206.789s-.711,12.084-1.564,12.084,9.951-.569,9.951-.569-4.549-7.961-2.275-10.52S921.868,206.789,921.868,206.789Z" transform="translate(-766.176 -186.587)" fill="#fdb59c"/>
  <path id="Path_914" data-name="Path 914" d="M800.571,421.723l-3.7,14.216,2.843,24.168-6.539-.569-2.559-37.815Z" transform="translate(-633.079 -337.689)" fill="#2f2e41"/>
  <path id="Path_915" data-name="Path 915" d="M800.571,421.723l-3.7,14.216,2.843,24.168-6.539-.569-2.559-37.815Z" transform="translate(-633.079 -337.689)" fill="#181d21" opacity="0.2"/>
  <path id="Path_916" data-name="Path 916" d="M904.993,738.588s-.284-1.706-3.128,0-14.785,7.108-8.53,8.245,19.05-1.422,19.05-2.275.284-6.255-.853-5.687S906.7,743.137,904.993,738.588Z" transform="translate(-743.187 -612.19)" fill="#2f2e41"/>
  <path id="Path_917" data-name="Path 917" d="M977.573,720.22s4.549,7.108,4.833,9.1,4.549-4.549,4.549-4.549l-3.981-7.392Z" transform="translate(-812.071 -595.813)" fill="#fdb59c"/>
  <path id="Path_918" data-name="Path 918" d="M901.948,532.45l5.118,17.06s9.1,24.168,9.667,23.883,7.393-1.99,7.677-2.843-8.53-23.883-8.53-23.883l-1.137-14.785Z" transform="translate(-751.515 -447.279)" fill="#2f2e41"/>
  <path id="Path_919" data-name="Path 919" d="M999.369,748.733a3.732,3.732,0,0,0-3.7,2.275,5.793,5.793,0,0,1-2.843,3.128c-.284.284.853,6.255,0,6.824s-1.706,6.539,1.137,6.539,7.392-3.128,7.108-3.7a12.7,12.7,0,0,1,.569-6.255c.853-1.706,2.275-4.549,0-6.255S999.369,748.733,999.369,748.733Z" transform="translate(-823.631 -620.914)" fill="#2f2e41"/>
  <path id="Path_920" data-name="Path 920" d="M826.9,377.743l-.569,5.118s-4.265,4.265-5.687,9.383-13.079,13.648-9.667,14.785,7.392,1.706,17.344,0,25.589,1.99,25.589-7.392c0,0,1.99-2.559,3.412,1.137a74.327,74.327,0,0,0,3.412,7.393s3.412-5.971,2.275-8.53,0-2.275-1.422-5.118-8.53-13.363-11.373-13.932-8.246-7.961-7.961-8.814S826.9,377.743,826.9,377.743Z" transform="translate(-678.174 -319.015)" fill="#faba66"/>
  <path id="Path_921" data-name="Path 921" d="M892.74,242.222s-11.657,2.559-12.226,4.265a17.276,17.276,0,0,1-3.051,4.093,15.98,15.98,0,0,0-4.013,8.143c-.3,1.814.95,3.445,1.52,5.534,1.706,6.255,2.985,4.691,1.279,9.241s8.53,6.255,12.51,4.265,8.388-13.79,8.388-15.211,3.838-17.486.711-18.623S892.74,242.222,892.74,242.222Z" transform="translate(-728.659 -215.338)" fill="#575a88"/>
  <path id="Path_922" data-name="Path 922" d="M794.833,310.713l-3.412,15.069-11.231,4.976s-8.53-1.99-8.814,1.137c-.186,2.042,9.667,2.843,9.667,2.843l16.349-6.4,3.7-13.932Z" transform="translate(-646.96 -270.181)" fill="#fdb59c"/>
  <path id="Path_923" data-name="Path 923" d="M886.311,282.175s-7.108,4.265-5.4,6.539,5.971,5.971,7.108,5.971,1.99-6.824,1.99-8.814S886.311,282.175,886.311,282.175Z" transform="translate(-734.456 -247.33)" fill="#575a88"/>
  <path id="Path_924" data-name="Path 924" d="M927.839,137.546s.436,1.453-2.035,2.761-3.2,6.25-.291,7.7,3.779,3.343,2.325,4.651-4.07,4.8-.581,5.668,3.924,2.616,2.907,3.343,2.326-1.308,2.326-1.308.581,3.488,3.634,2.616,6.1-16.724,2.7-20.807C935.655,138.378,927.839,137.546,927.839,137.546Z" transform="translate(-768.872 -131.52)" fill="#2f2e41"/>
  <path id="Path_925" data-name="Path 925" d="M940.116,126.049c0-2.129,6.371-.6,9.1,2.374,1.891,2.059,4.764,5.156,2.357,7.339s4.126,5.045,5.879,5.913,5.212,3.521,2.088,5.3-3.073,3.577-1.9,4-2.592-.633-2.592-.633.381,3.516-2.794,3.5-12.281-17.462-10.106-22.311C944.176,127.027,940.116,126.049,940.116,126.049Z" transform="translate(-782.077 -121.519)" fill="#2f2e41"/>
  <path id="Path_926" data-name="Path 926" d="M909.371,127.579c-8.519-.513-9.374,5.9-9.374,5.9.059,3.711,5.952,1.9,7.589,2.456,1.975-1.421,5.781-4.108,8.5-6.026A12.875,12.875,0,0,0,909.371,127.579Z" transform="translate(-749.953 -123.516)" fill="#2f2e41"/>
</svg>
