<svg xmlns="http://www.w3.org/2000/svg" width="42.728" height="42.709" viewBox="0 0 42.728 42.709">
  <g id="Group_9075" data-name="Group 9075" transform="translate(142.185 96.971)">
    <path id="Path_4620" data-name="Path 4620" d="M-120.792-97.006a21.4,21.4,0,0,0-21.393,21.345,21.6,21.6,0,0,0,16.758,20.889,21.778,21.778,0,0,0,4.635.475,14,14,0,0,0,1.911-.087A21.4,21.4,0,0,0-99.457-75.661a21.369,21.369,0,0,0-21.335-21.345Zm0,1.047a20.27,20.27,0,0,1,20.288,20.3,20.271,20.271,0,0,1-18.562,20.23,9.391,9.391,0,0,1-1.726.107,19.827,19.827,0,0,1-4.4-.475,20.391,20.391,0,0,1-15.943-19.861,20.319,20.319,0,0,1,20.346-20.3" transform="translate(0 0.035)" fill="#fff"/>
    <path id="Path_4621" data-name="Path 4621" d="M-130.7-90.547a2.371,2.371,0,0,1,1.833-.64,10.725,10.725,0,0,1,2.773.388l.8-4.257a14.932,14.932,0,0,0-5.033-.727,8.2,8.2,0,0,0-4.2.9,4.576,4.576,0,0,0-2.25,2.3,10.94,10.94,0,0,0-.63,4.3v1.678h-3.365v4.868h3.365v15.313a19.827,19.827,0,0,0,4.4.475,9.391,9.391,0,0,0,1.726-.107V-81.742h4.461V-86.61h-4.461v-1.571a3.337,3.337,0,0,1,.582-2.366Z" transform="translate(12.22 10.664)" fill="#fff"/>
  </g>
</svg>
