<svg xmlns="http://www.w3.org/2000/svg" width="388.676" height="252.421" viewBox="0 0 388.676 252.421">
  <g id="Group_9085" data-name="Group 9085" transform="translate(-192.367 -251.12)">
    <g id="Group_9084" data-name="Group 9084">
      <g id="Group_9083" data-name="Group 9083">
        <path id="Path_1325" data-name="Path 1325" d="M236.756,83.988c-24.914.033-48.894-7.029-71.831-14.875s-45.7-16.631-70.148-20.354c-15.725-2.393-33.606-2.173-45.9,6.516C37.048,63.634,33.621,77.469,31.968,90.251c-1.243,9.615-1.816,19.708,2.84,28.5,3.233,6.106,8.766,11.139,12.665,16.958,13.612,20.244,5.426,46.1-7.8,66.818-6.2,9.719-13.468,19.034-18.158,29.31s-6.613,21.927-1.83,32.069c4.739,10.052,15.445,17.348,26.933,22.331,23.33,10.139,50.494,12.312,76.927,13.148,58.513,1.856,117.139-1.93,175.608-5.716,21.637-1.4,43.371-2.81,64.562-6.866,11.765-2.25,23.88-5.589,32.223-12.908,10.589-9.292,12.755-24.464,5.049-35.369-12.922-18.291-46.994-21.741-56.26-41.531-5.109-10.9-.7-23.39,5.786-33.892,13.918-22.534,37.875-42.718,38.279-67.922.277-17.308-12.182-34.192-30.789-41.715-19.5-7.879-46.1-5.853-59.763,8.832C284.187,77.429,258.753,83.965,236.756,83.988Z" transform="translate(175.457 203.666)" fill="#cee2f1" opacity="0.454"/>
      </g>
    </g>
  </g>
</svg>
