<svg xmlns="http://www.w3.org/2000/svg" width="388.676" height="267.86" viewBox="0 0 388.676 267.86">
  <g id="Group_9093" data-name="Group 9093" transform="translate(-192.367 -251.12)">
    <g id="Group_9089" data-name="Group 9089">
      <g id="Group_9086" data-name="Group 9086">
        <g id="Group_9085" data-name="Group 9085">
          <g id="Group_9084" data-name="Group 9084">
            <g id="Group_9083" data-name="Group 9083">
              <path id="Path_1325" data-name="Path 1325" d="M236.756,83.988c-24.914.033-48.894-7.029-71.831-14.875s-45.7-16.631-70.148-20.354c-15.725-2.393-33.606-2.173-45.9,6.516C37.048,63.634,33.621,77.469,31.968,90.251c-1.243,9.615-1.816,19.708,2.84,28.5,3.233,6.106,8.766,11.139,12.665,16.958,13.612,20.244,5.426,46.1-7.8,66.818-6.2,9.719-13.468,19.034-18.158,29.31s-6.613,21.927-1.83,32.069c4.739,10.052,15.445,17.348,26.933,22.331,23.33,10.139,50.494,12.312,76.927,13.148,58.513,1.856,117.139-1.93,175.608-5.716,21.637-1.4,43.371-2.81,64.562-6.866,11.765-2.25,23.88-5.589,32.223-12.908,10.589-9.292,12.755-24.464,5.049-35.369-12.922-18.291-46.994-21.741-56.26-41.531-5.109-10.9-.7-23.39,5.786-33.892,13.918-22.534,37.875-42.718,38.279-67.922.277-17.308-12.182-34.192-30.789-41.715-19.5-7.879-46.1-5.853-59.763,8.832C284.187,77.429,258.753,83.965,236.756,83.988Z" transform="translate(175.457 203.666)" fill="#cee2f1" opacity="0.454"/>
            </g>
          </g>
        </g>
        <path id="Path_1363" data-name="Path 1363" d="M86.87,166.19V353.247A5.753,5.753,0,0,0,92.623,359H407.077a5.753,5.753,0,0,0,5.753-5.753V166.19Z" transform="translate(128.814 124.503)" fill="#fff"/>
        <rect id="Rectangle_230" data-name="Rectangle 230" width="257.968" height="112.653" transform="translate(247.984 322.756)" fill="#0f3756"/>
      </g>
    </g>
    <g id="Group_9092" data-name="Group 9092">
      <path id="Path_1366" data-name="Path 1366" d="M328.776,327.38a33,33,0,1,0,33,33A33,33,0,0,0,328.776,327.38Zm5.916,33.789V376.79H323.027V361.169a9.665,9.665,0,1,1,11.665,0Z" transform="translate(-10.468 18.037)" fill="#faba66"/>
      <g id="Group_9091" data-name="Group 9091">
        <rect id="Rectangle_231" data-name="Rectangle 231" width="106.653" height="11.332" transform="translate(364.969 373.083)" fill="#fff"/>
        <g id="Group_9090" data-name="Group 9090">
          <rect id="Rectangle_232" data-name="Rectangle 232" width="22.997" height="11.332" transform="translate(448.625 393.747)" fill="#faba66"/>
          <g id="Group_9088" data-name="Group 9088">
            <path id="Path_1385" data-name="Path 1385" d="M874.061,529.951a37.867,37.867,0,0,1-2.04,7.509,28.264,28.264,0,0,0-1.2,3.366c-.257,1.033-.207,2.14-.443,3.176-.293,1.29-.587,2.583-.823,3.883a25.468,25.468,0,0,0-.473,6.032,2.518,2.518,0,0,0,.18.93c.11.24.287.447.39.693a1.667,1.667,0,0,1-.093,1.333,3.855,3.855,0,0,1-.687,1.04c-3.106.927-6.429.623-9.665.82-2.983.18-6,.793-8.939.283a7.086,7.086,0,0,1,.7-4.029c1.383-3.776,2.913-7.709,2.666-11.665a12.023,12.023,0,0,0-.156-1.377,18.251,18.251,0,0,1,.886-8.422,14.453,14.453,0,0,0,.38-5.259,9.6,9.6,0,0,1-.024-1.723,3.031,3.031,0,0,1,.627-1.61c0-.023.03-.047.046-.07a.455.455,0,0,1,.25,0h0a.215.215,0,0,0,.167,0l.037-.023a.083.083,0,0,1,.1,0c.076.047.12.207.287.237a6.629,6.629,0,0,0,.743.07,4.009,4.009,0,0,1,.887.127h.04a2.6,2.6,0,0,0,1.293-.11,3.429,3.429,0,0,0,.793-.307c.073-.08.533-.153.627-.21.3-.183.237-1.043.3-1.4a3.857,3.857,0,0,1,.25-1.033,1.76,1.76,0,0,1,1.427-.83,7.589,7.589,0,0,1,1.71.153c1.243.177,2.516.147,3.736.433a2.784,2.784,0,0,0,1.846.08c.153.037.176.17.176.333a2.13,2.13,0,0,1-.093.457c-.213.92.51,1.766,1.176,2.433a3.771,3.771,0,0,0,.983.783c.333.153.667.217,1,.383a1.821,1.821,0,0,1,.667.61,2.547,2.547,0,0,1,.38.97A5.8,5.8,0,0,1,874.061,529.951Z" transform="translate(-380.082 -112.307)" fill="#faba66"/>
            <path id="Path_1389" data-name="Path 1389" d="M841.37,521.622a2.428,2.428,0,0,1-1.443-.827l-1.263-1.173a1.173,1.173,0,0,1-.22-.246,1.732,1.732,0,0,1-.153-.41,4.7,4.7,0,0,0-1.227-1.76.8.8,0,0,0-.363-.26.729.729,0,0,0-.4.04,6.092,6.092,0,0,0-2.19,1.333,2.489,2.489,0,0,0-.747.96,2.218,2.218,0,0,0-.107.8,6.117,6.117,0,0,0,.58,2.546c.057.123.12.247.187.367a11.538,11.538,0,0,0,1.566,2.037l.793.886c.78.873,1.56,1.747,2.406,2.55a3.181,3.181,0,0,0,1.08.753,1.207,1.207,0,0,0,1.24-.2,1.793,1.793,0,0,0,.353-.633,12.469,12.469,0,0,0,1.03-4.156,15.723,15.723,0,0,0-.073-1.723C842.367,521.9,841.937,521.659,841.37,521.622Z" transform="translate(-368.805 -109.34)" fill="#667fab"/>
            <g id="Group_9087" data-name="Group 9087">
              <path id="Path_1390" data-name="Path 1390" d="M838.178,640.277a77.02,77.02,0,0,1-.713,10.022c-.066.536-.14,1.073-.177,1.61-.11,1.557.07,3.12-.077,4.666-.077.837-.25,1.666-.4,2.483a44.152,44.152,0,0,0-.567,11.049c.46,6.143-.95,12.289-.31,18.414a14.88,14.88,0,0,1-.2,3.563,15.1,15.1,0,0,1-.516,2.153q-.73,2.5-1.467,5a1.734,1.734,0,0,1-.333.693,1.58,1.58,0,0,1-1.25.37,14.417,14.417,0,0,1-5.479-1.7,1.912,1.912,0,0,1-.55-.333c-.363-.377-.333-.97-.493-1.467a13.948,13.948,0,0,0-.84-1.473,4.818,4.818,0,0,1-.363-1.516q-.333-2.56-.453-5.139c-.127-2.42,1.473-4.646,2-7,1-4.626.153-9.585,1.93-13.975.56-1.386-.253-3.066-.333-4.559a14.461,14.461,0,0,0-.373-2.86c-.333-1.253-1.036-2.433-1.086-3.733a13.7,13.7,0,0,1,.423-2.783,12.518,12.518,0,0,0-.057-4.109c-.177-1.12-.447-2.24-.717-3.333l-.06.123a37.625,37.625,0,0,0-2.09,4.916c-.267.817-.5,1.65-.833,2.443-.273.667-.61,1.277-.94,1.9a54.646,54.646,0,0,0-3.083,6.849c-.413,1.153-.777,2.333-1.137,3.49l-2.47,8c-.667,2.1-1.4,4.136-2.05,6.236-.923,3-1.846,5.972-2.92,8.905-1,2.783-2.19,5.666-1.833,8.606a6.331,6.331,0,0,1-2.943.6,17.222,17.222,0,0,1-5-1.213,3.888,3.888,0,0,1-1.727-1.027c-.74-.9-.556-2.226-.333-3.376a8.135,8.135,0,0,1,.4-1.52c.253-.613.667-1.157.927-1.763a14.8,14.8,0,0,0,.763-3.743,4.618,4.618,0,0,1,1.747-3.283c.183-2.22,1.1-4.409,1.6-6.579.38-1.643.506-3.333.807-5a10.981,10.981,0,0,1,1.79-4.683,7.422,7.422,0,0,1,.906-4,4.376,4.376,0,0,0,.4-.85,4.895,4.895,0,0,0,.107-.88,5.2,5.2,0,0,1,1.406-3.09,6.269,6.269,0,0,1,.547-3.666,12.739,12.739,0,0,0,.7-4.689,4.112,4.112,0,0,1,.063-1.333c.093-.333.277-.617.383-.936a5.353,5.353,0,0,0,.15-1.2,13.843,13.843,0,0,1,1.666-5.113c.48-.94.073-2.216.173-3.263a12.614,12.614,0,0,1,1.227-5.056c.16-.287.333-.56.477-.857a3.716,3.716,0,0,0,.277-1.333,4.91,4.91,0,0,0-.137-2.106c1.783-1.483,4.216-1.9,6.536-2a40.764,40.764,0,0,0,6.936-.383c.667-.15,1.333-.357,2.036-.457a13.176,13.176,0,0,1,4.793.49,5.708,5.708,0,0,0,.666,2.89A31.016,31.016,0,0,1,838.178,640.277Z" transform="translate(-345.415 -181.335)" fill="#0f3756"/>
            </g>
            <path id="Path_1394" data-name="Path 1394" d="M862.37,470.286c-.22.7.123,1.47-.033,2.183-.17.787-.91,1.333-1.12,2.123-.334,1.2.687,2.3,1.433,3.3,2.766,3.713,2.4,8.852,1.456,13.382a69.064,69.064,0,0,1-3.15,10.665,8.172,8.172,0,0,1-1.7,2.976,8.773,8.773,0,0,1,4.7-.457c1.946.54,3.626,2.43,5.6,2,1.187-.263,2.02-1.317,3.086-1.9,2-1.077,4.409-.4,6.639-.053a2.607,2.607,0,0,0,1.45-.073,2.411,2.411,0,0,0,.88-.81,8.219,8.219,0,0,0,1.713-4.433,5.685,5.685,0,0,0-1.636-4.376,9.381,9.381,0,0,1-1.4-1.333,4.141,4.141,0,0,1-.55-2.02c-.263-3.666.63-7.409-.29-10.955a27.059,27.059,0,0,1-1.023-3.766c-.183-1.61.253-3.333-.387-4.806a4.713,4.713,0,0,0-2.81-2.426,15.385,15.385,0,0,0-3.746-.667C869.656,468.686,863.133,467.9,862.37,470.286Z" transform="translate(-386.145 -77.112)" fill="#33313f"/>
          </g>
        </g>
      </g>
    </g>
  </g>
</svg>
