<svg id="undraw_Security_on_ff2u" xmlns="http://www.w3.org/2000/svg" xmlns:xlink="http://www.w3.org/1999/xlink" width="134.854" height="120.479" viewBox="0 0 134.854 120.479">
  <defs>
    <linearGradient id="linear-gradient" y1="0.5" x2="1" y2="0.5" gradientUnits="objectBoundingBox">
      <stop offset="0" stop-color="gray" stop-opacity="0.251"/>
      <stop offset="0.535" stop-color="gray" stop-opacity="0.122"/>
      <stop offset="1" stop-color="gray" stop-opacity="0.102"/>
    </linearGradient>
  </defs>
  <path id="Path_887" data-name="Path 887" d="M374.319,76.854,332,102.9s0,53.715,42.321,83.014c42.321-29.3,42.321-83.014,42.321-83.014Z" transform="translate(-306.625 -75.168)" fill="#667fab"/>
  <path id="Path_888" data-name="Path 888" d="M599.423,76.854l-.723.445V185.4c.24.17.48.34.723.508,42.321-29.3,42.321-83.014,42.321-83.014Z" transform="translate(-531.477 -75.168)" fill="#3e5784"/>
  <g id="Group_133" data-name="Group 133" transform="translate(54.124 47.507)" opacity="0.7">
    <path id="Path_889" data-name="Path 889" d="M348.245,309.7l7.978,7.313,9.89-14.268,3.989,3.324-13.879,17.592-11.3-12.632Z" transform="translate(-344.921 -302.75)" fill="url(#linear-gradient)"/>
  </g>
  <path id="Path_890" data-name="Path 890" d="M363.618,309.3l6.472,5.932,9.168-13.483,3.236,2.7-12.4,16.18-9.168-10.247Z" transform="translate(-304.287 -254.4)" fill="#3ad29f"/>
  <path id="Path_891" data-name="Path 891" d="M325.233,108.329a.577.577,0,0,1-.321-.7.278.278,0,0,0,.013-.064h0a.289.289,0,0,0-.519-.192h0a.275.275,0,0,0-.032.057.577.577,0,0,1-.7.321.276.276,0,0,0-.064-.013h0a.289.289,0,0,0-.192.519h0a.278.278,0,0,0,.057.032.577.577,0,0,1,.321.7.278.278,0,0,0-.013.064h0a.289.289,0,0,0,.519.192h0a.278.278,0,0,0,.032-.057.577.577,0,0,1,.7-.321.276.276,0,0,0,.064.013h0a.289.289,0,0,0,.192-.519h0a.278.278,0,0,0-.057-.032Z" transform="translate(-299.297 -100.804)" fill="#4d8af0" opacity="0.5"/>
  <path id="Path_892" data-name="Path 892" d="M179.233,433.329a.577.577,0,0,1-.321-.7.279.279,0,0,0,.013-.064h0a.289.289,0,0,0-.519-.192h0a.276.276,0,0,0-.032.057.577.577,0,0,1-.7.321.278.278,0,0,0-.064-.013h0a.289.289,0,0,0-.192.519h0a.275.275,0,0,0,.057.032.577.577,0,0,1,.321.7.278.278,0,0,0-.013.064h0a.289.289,0,0,0,.519.192h0a.28.28,0,0,0,.032-.057.577.577,0,0,1,.7-.321.28.28,0,0,0,.064.012h0a.289.289,0,0,0,.192-.519h0A.274.274,0,0,0,179.233,433.329Z" transform="translate(-176.206 -374.805)" fill="#4d8af0" opacity="0.5"/>
  <circle id="Ellipse_113" data-name="Ellipse 113" cx="0.942" cy="0.942" r="0.942" transform="translate(116.495 38.916)" fill="#f55f44" opacity="0.5"/>
  <circle id="Ellipse_114" data-name="Ellipse 114" cx="0.942" cy="0.942" r="0.942" transform="translate(18.107 106.233)" fill="#f55f44" opacity="0.5"/>
  <circle id="Ellipse_115" data-name="Ellipse 115" cx="0.942" cy="0.942" r="0.942" transform="translate(132.501 75.164)" fill="#f55f44" opacity="0.5"/>
  <path id="Path_893" data-name="Path 893" d="M864.233,137.329a.577.577,0,0,1-.321-.7.282.282,0,0,0,.013-.064h0a.289.289,0,0,0-.52-.192h0a.271.271,0,0,0-.032.057.577.577,0,0,1-.7.321.275.275,0,0,0-.064-.013h0a.289.289,0,0,0-.192.519h0a.276.276,0,0,0,.057.032.577.577,0,0,1,.321.7.275.275,0,0,0-.012.064h0a.289.289,0,0,0,.52.192h0a.277.277,0,0,0,.032-.057.576.576,0,0,1,.7-.321.275.275,0,0,0,.064.013h0a.289.289,0,0,0,.192-.519h0A.277.277,0,0,0,864.233,137.329Z" transform="translate(-753.718 -125.253)" fill="#4d8af0" opacity="0.5"/>
  <path id="Path_894" data-name="Path 894" d="M964.233,765.329a.577.577,0,0,1-.321-.7.275.275,0,0,0,.013-.064h0a.289.289,0,0,0-.52-.192h0a.283.283,0,0,0-.032.057.577.577,0,0,1-.7.321.268.268,0,0,0-.064-.013h0a.289.289,0,0,0-.192.519h0a.275.275,0,0,0,.057.032.577.577,0,0,1,.321.7.273.273,0,0,0-.012.064h0a.289.289,0,0,0,.519.192h0a.275.275,0,0,0,.032-.057.577.577,0,0,1,.7-.321.274.274,0,0,0,.064.013h0a.289.289,0,0,0,.192-.519h0A.273.273,0,0,0,964.233,765.329Z" transform="translate(-838.026 -654.708)" fill="#4d8af0" opacity="0.5"/>
  <path id="Path_895" data-name="Path 895" d="M172.233,243.329a.577.577,0,0,1-.321-.7.277.277,0,0,0,.013-.064h0a.289.289,0,0,0-.519-.192h0a.277.277,0,0,0-.032.057.577.577,0,0,1-.7.321.276.276,0,0,0-.064-.013h0a.289.289,0,0,0-.192.519h0a.277.277,0,0,0,.057.032.577.577,0,0,1,.321.7.279.279,0,0,0-.013.064h0a.289.289,0,0,0,.519.192h0a.276.276,0,0,0,.032-.057.577.577,0,0,1,.7-.321.275.275,0,0,0,.064.013h0a.289.289,0,0,0,.192-.519h0A.276.276,0,0,0,172.233,243.329Z" transform="translate(-170.305 -214.62)" fill="#4d8af0" opacity="0.5"/>
  <circle id="Ellipse_116" data-name="Ellipse 116" cx="0.942" cy="0.942" r="0.942" transform="translate(11.517 43.623)" fill="#47e6b1" opacity="0.5"/>
  <circle id="Ellipse_117" data-name="Ellipse 117" cx="0.942" cy="0.942" r="0.942" transform="translate(132.971 51.155)" fill="#47e6b1" opacity="0.5"/>
  <g id="Group_134" data-name="Group 134" transform="translate(90.447)" opacity="0.5">
    <rect id="Rectangle_154" data-name="Rectangle 154" width="0.471" height="2.668" transform="translate(1.098)" fill="#47e6b1"/>
    <rect id="Rectangle_155" data-name="Rectangle 155" width="0.471" height="2.668" transform="translate(2.668 1.098) rotate(90)" fill="#47e6b1"/>
  </g>
  <g id="Group_135" data-name="Group 135" transform="translate(92.173 104.507)" opacity="0.5">
    <rect id="Rectangle_156" data-name="Rectangle 156" width="0.471" height="2.668" transform="translate(1.098)" fill="#47e6b1"/>
    <rect id="Rectangle_157" data-name="Rectangle 157" width="0.471" height="2.668" transform="translate(2.668 1.098) rotate(90)" fill="#47e6b1"/>
  </g>
  <g id="Group_136" data-name="Group 136" transform="translate(3.043 110.156)" opacity="0.5">
    <rect id="Rectangle_158" data-name="Rectangle 158" width="0.471" height="2.668" transform="translate(1.098)" fill="#47e6b1"/>
    <rect id="Rectangle_159" data-name="Rectangle 159" width="0.471" height="2.668" transform="translate(2.668 1.098) rotate(90)" fill="#47e6b1"/>
  </g>
  <g id="Group_137" data-name="Group 137" transform="translate(110.218 62.139)" opacity="0.5">
    <rect id="Rectangle_160" data-name="Rectangle 160" width="0.471" height="2.668" transform="translate(1.098)" fill="#47e6b1"/>
    <rect id="Rectangle_161" data-name="Rectangle 161" width="0.471" height="2.668" transform="translate(2.668 1.098) rotate(90)" fill="#47e6b1"/>
  </g>
  <path id="Path_896" data-name="Path 896" d="M793.342,116.68l1.011.927,1.432-2.106.506.421-1.938,2.528-1.432-1.6Z" transform="translate(-668.498 -97.376)" fill="#47e6b1" opacity="0.5"/>
  <rect id="Rectangle_162" data-name="Rectangle 162" width="3.49" height="4.487" transform="translate(92.494 37.681) rotate(-2.221)" fill="tomato"/>
  <path id="Path_897" data-name="Path 897" d="M656.171,399.411s-4.83-2.308-4.752-.315,4.868,3.3,4.868,3.3Z" transform="translate(-575.923 -346.161)" fill="#ffb9b9"/>
  <path id="Path_898" data-name="Path 898" d="M674.987,498.59a69.682,69.682,0,0,0-3.12,9.6c-.842,4.024-2.124,9.563-.475,13.491s6.338,15.472,6.387,16.718-.4,2.511.595,2.472,6.419-1.746,6.639-2.5-1.85-2.673-1.85-2.673l-5.112-16.018,5.333-10.436,3.847,15.568.753,19.431s3.7-1.141,4.235-.164a15.039,15.039,0,0,0,1.867-3.316c.21-1.006-.782-20.178-.782-20.178s3.394-21.837.654-21.731S680.485,492.389,674.987,498.59Z" transform="translate(-592.089 -428.477)" fill="#0f3756"/>
  <path id="Path_899" data-name="Path 899" d="M699.141,766.8s-2.528,5.587-2.767,5.846-1.887,2.818-.641,2.769,4.187-1.41,6.351-3.49,5.019-5.683,4.76-5.923a14.7,14.7,0,0,0-2.032-.919Z" transform="translate(-612.895 -655.398)" fill="#0f3756"/>
  <path id="Path_900" data-name="Path 900" d="M779.586,793.356a14.515,14.515,0,0,1-.612,3.517c-.46,1.016-.4,2.51.844,2.462s4.465-.672,4.465-.672.191-1.5-.068-1.744-1.362-2.941-.892-3.708S779.586,793.356,779.586,793.356Z" transform="translate(-683.24 -678.857)" fill="#0f3756"/>
  <path id="Path_901" data-name="Path 901" d="M776.614,278.6a46.453,46.453,0,0,0,3.691,5.1c1.035.958-1.877,3.067-1.877,3.067l-5.212.7s.066-4.743-.2-5.231S776.614,278.6,776.614,278.6Z" transform="translate(-678.426 -245.257)" fill="#ffb9b9"/>
  <path id="Path_902" data-name="Path 902" d="M737.4,306.983s1.074,1.954,2.07,1.916,6.151-2.234,6.371-2.991,1.707,5.423,1.707,5.423l-12.612,22.195L731.86,331.4l1.491-13.031,1.224-7.033Z" transform="translate(-643.742 -268.225)" fill="#faba66"/>
  <path id="Path_903" data-name="Path 903" d="M712.272,318.791a6.978,6.978,0,0,0-.774,3.273c0,.05,0,.1.008.149.119,2.306.969,4.972,1.273,6.911.221,1.391.158,2.406-.656,2.645-1.974.576.288.987-7.348,3.528s-8.968.348-8.987-.15,1.081-4.283.823-4.523-3.621,3.134-4.637,2.675-.116-2.989-.116-2.989,2.288-5.328,2.24-6.574,3.466-7.12,3.466-7.12l2.391-15.561s.919-2.031,2.155-2.329a3.061,3.061,0,0,1,2.261.411L702.3,303.71l-2.182,8.068.365,2.98a53.113,53.113,0,0,1,4.2-7.4c1.667-2.061,5.22-6.939,5.22-6.939s.83-2.8.2-3.635,2.612-.965,3.993,2.475c.732,1.823,1.92,4.541,2.664,7.072.663,2.242.976,4.338.319,5.536C716.086,313.7,713.56,316.1,712.272,318.791Z" transform="translate(-609.707 -260.169)" fill="#667fab"/>
  <path id="Path_904" data-name="Path 904" d="M823.352,362.5c-1,1.83-3.531,4.236-4.819,6.923-.336-1.212-.747-2.466-.747-2.466s-1.574-8.422,3.082-10.6a3.116,3.116,0,0,1,2.164.6C823.7,359.208,824.009,361.3,823.352,362.5Z" transform="translate(-715.969 -310.803)" fill="#181d21" opacity="0.1"/>
  <path id="Path_905" data-name="Path 905" d="M683.161,392.191l-3.947,1.151-5.481.213-.564,4.762,9.007.649S684.426,392.641,683.161,392.191Z" transform="translate(-594.261 -341.023)" fill="#575a89"/>
  <path id="Path_906" data-name="Path 906" d="M755,494.231s-5.281.876-4.075,2.465,5.883-.082,5.883-.082Z" transform="translate(-659.668 -427.051)" fill="#ffb9b9"/>
  <path id="Path_907" data-name="Path 907" d="M777.311,461.5c.119,2.306.969,4.972,1.273,6.911-1.682,1.592-3.282,3-3.885,3.02a21.128,21.128,0,0,0-3.986.155c-.738.278-1.17-4.445-1.17-4.445a4.085,4.085,0,0,1,2.4-2.339A27.353,27.353,0,0,0,777.311,461.5Z" transform="translate(-675.512 -399.46)" fill="#181d21" opacity="0.1"/>
  <path id="Path_908" data-name="Path 908" d="M780.042,346.823s4.216-.662,3.988,6.332.444,11.459-1.251,12.772-7.2,7.265-8.448,7.313a21.137,21.137,0,0,0-3.986.155c-.738.278-1.17-4.445-1.17-4.445a4.085,4.085,0,0,1,2.4-2.339c1.964-.825,6.591-3.748,6.552-4.745a31.777,31.777,0,0,0-1.17-4.445S775.386,349,780.042,346.823Z" transform="translate(-675.201 -302.76)" fill="#667fab"/>
  <ellipse id="Ellipse_118" data-name="Ellipse 118" cx="5.485" cy="5.485" rx="5.485" ry="5.485" transform="translate(88.986 28.502)" fill="#ffb9b9"/>
  <path id="Path_909" data-name="Path 909" d="M733.126,226.651a1.058,1.058,0,0,1-.461.231.329.329,0,0,1-.381-.264,1.367,1.367,0,0,1-.523.671c-.256.134-.652.022-.689-.265a1.211,1.211,0,0,1-.278.587.417.417,0,0,1-.586.02,15.061,15.061,0,0,1,.078,1.866,2.376,2.376,0,0,0,.671,1.691,3.309,3.309,0,0,0,2.619.336.8.8,0,0,1,.411.022c.338.144.322.614.327.981a2.726,2.726,0,0,0,2.387,2.589,1.367,1.367,0,0,0,1.016-.248c.256-.217.387-.571.68-.734.477-.265,1.056.122,1.405.542s.693.937,1.234,1.014c.715.1,1.26-.627,1.527-1.3a7.567,7.567,0,0,0-.15-5.88C740.918,225.259,735.818,224.744,733.126,226.651Z" transform="translate(-642.348 -200.525)" fill="#2f2e41"/>
</svg>
