<svg xmlns="http://www.w3.org/2000/svg" width="62.974" height="85.313" viewBox="0 0 62.974 85.313">
  <g id="Group_9099" data-name="Group 9099" transform="translate(-740 -596.112)">
    <g id="Group_8686" data-name="Group 8686" transform="translate(875.468 241.596)">
      <path id="Path_4450" data-name="Path 4450" d="M-99.569,421.436h-20.25V408.058h20.25v13.378Zm-21.825,6.228h-11.084V407.807h11.084v19.858Zm-12.56-27.29v29.273h35.843V400.374Z" transform="translate(1.826 4.788)" fill="#cac7c6"/>
      <path id="Path_4451" data-name="Path 4451" d="M-92.467,409.763h-43v-12.99h43v12.99Z" transform="translate(0 0.445)" fill="#fff"/>
      <path id="Path_4452" data-name="Path 4452" d="M-131.76,409.763h-3.708v-12.99h3.708v12.99Z" transform="translate(0 0.445)" fill="#fcdeb8"/>
      <path id="Path_4453" data-name="Path 4453" d="M-128.205,409.763h-3.712v-12.99h3.712v12.99Z" transform="translate(4.283 0.445)" fill="#fcdeb8"/>
      <path id="Path_4454" data-name="Path 4454" d="M-124.654,409.763h-3.71v-12.99h3.71v12.99Z" transform="translate(8.568 0.445)" fill="#fcdeb8"/>
      <path id="Path_4455" data-name="Path 4455" d="M-121.1,409.763h-3.71v-12.99h3.71v12.99Z" transform="translate(12.853 0.445)" fill="#fcdeb8"/>
      <path id="Path_4456" data-name="Path 4456" d="M-117.551,409.763h-3.709v-12.99h3.709v12.99Z" transform="translate(17.138 0.445)" fill="#fcdeb8"/>
      <path id="Path_4457" data-name="Path 4457" d="M-114,409.763h-3.709v-12.99H-114v12.99Z" transform="translate(21.422 0.445)" fill="#ee7105"/>
      <path id="Path_4458" data-name="Path 4458" d="M-92.577,396.4h-42.891v.814h42.891V396.4Z" fill="#faba66"/>
      <path id="Path_4459" data-name="Path 4459" d="M-92.577,402.254h-42.891v2.374h42.891v-2.374Z" transform="translate(0 7.056)" fill="#faba66"/>
      <path id="Path_4460" data-name="Path 4460" d="M-122.2,423.6h-11.085V403.743H-122.2V423.6Z" transform="translate(2.633 8.852)" fill="#f3f3f4"/>
      <path id="Path_4462" data-name="Path 4462" d="M-107.3,417.235h-20.249V403.857H-107.3v13.378Z" transform="translate(9.554 8.989)" fill="#f3f3f4"/>
    </g>
    <g id="Group_9098" data-name="Group 9098">
      <g id="Group_8681" data-name="Group 8681" transform="translate(10 -40)">
        <g id="Group_8680" data-name="Group 8680" transform="translate(968.65 273.397)">
          <path id="Path_4399" data-name="Path 4399" d="M-201.7,369.016h-3.751v-3.853h3.751v3.853Z" transform="translate(11.432 12.734)" fill="#f5d8c1"/>
          <path id="Path_4400" data-name="Path 4400" d="M-201.069,408.111h-5.9V371.7h9.092l-3.2,36.413Z" transform="translate(6.029 36.113)" fill="#3d4862"/>
          <path id="Path_4401" data-name="Path 4401" d="M-195.676,408.111h-5.9L-205.2,371.7h9.524v36.413Z" transform="translate(12.347 36.113)" fill="#3d4862"/>
          <path id="Path_4402" data-name="Path 4402" d="M-193.6,370.017c0,4.417-2.875,8-6.417,8s-6.427-3.58-6.427-8,2.879-8,6.427-8,6.417,3.575,6.417,8Z" transform="translate(7.876 1.492)" fill="#fde3ce"/>
          <path id="Path_4403" data-name="Path 4403" d="M-206.089,369.7c10.4-.086,13.906-5.176,7.957-7.3-6.276.711-9.484,2.876-7.957,7.3Z" transform="matrix(0.998, 0.07, -0.07, 0.998, 32.913, 15.6)" fill="#7c3c13"/>
          <path id="Path_4404" data-name="Path 4404" d="M-201.153,367.819c-3.058-.078-4.092-3.877-2.339-5.465,1.836.54,2.783,2.151,2.339,5.465Z" transform="translate(15.406 2.687)" fill="#7c3c13"/>
          <path id="Path_4405" data-name="Path 4405" d="M-204.813,364.09a.481.481,0,0,1-.476.485.488.488,0,0,1-.481-.485.483.483,0,0,1,.481-.476.476.476,0,0,1,.476.476Z" transform="translate(10.305 8.194)" fill="#474341"/>
          <path id="Path_4406" data-name="Path 4406" d="M-203.549,364.09a.478.478,0,0,1-.476.485.481.481,0,0,1-.476-.485.476.476,0,0,1,.476-.476.473.473,0,0,1,.476.476Z" transform="translate(14.845 8.194)" fill="#474341"/>
          <path id="Path_4407" data-name="Path 4407" d="M-202.795,363.733h-1.8v-.318h1.8v.318Z" transform="translate(14.513 7.485)" fill="#474341"/>
          <path id="Path_4408" data-name="Path 4408" d="M-204.065,363.733h-1.8v-.318h1.8v.318Z" transform="translate(9.977 7.485)" fill="#474341"/>
          <path id="Path_4409" data-name="Path 4409" d="M-205.1,364.363a.8.8,0,0,1-.792.792.791.791,0,0,1-.787-.792.79.79,0,0,1,.787-.787.794.794,0,0,1,.792.787Z" transform="translate(7.039 7.058)" fill="#fde3ce"/>
          <path id="Path_4410" data-name="Path 4410" d="M-202.192,364.326a.791.791,0,0,1-.787.792.789.789,0,0,1-.792-.792.783.783,0,0,1,.792-.778.785.785,0,0,1,.787.778Z" transform="translate(17.457 6.958)" fill="#fde3ce"/>
          <path id="Path_4411" data-name="Path 4411" d="M-202.738,364.094a.485.485,0,0,1-.481.49.489.489,0,0,1-.485-.49.482.482,0,0,1,.485-.48.478.478,0,0,1,.481.48Z" transform="translate(17.696 7.191)" fill="#f5d8c1"/>
          <path id="Path_4412" data-name="Path 4412" d="M-205.65,364.127a.486.486,0,0,1-.485.485.485.485,0,0,1-.481-.485.484.484,0,0,1,.481-.485.485.485,0,0,1,.485.485Z" transform="translate(7.279 7.294)" fill="#f5d8c1"/>
          <path id="Path_4413" data-name="Path 4413" d="M-204.036,367.271H-205.3l1.062-3.607.2.058-.984,3.339h.986v.21Z" transform="translate(11.991 8.372)" fill="#4a413b"/>
          <path id="Path_4414" data-name="Path 4414" d="M-188.485,394.882h-18.721V365.947h18.721v28.935Z" transform="translate(5.168 15.54)" fill="#667fab"/>
          <path id="Path_4449" data-name="Path 4449" d="M-199.1,395.883h-8.109V365.947h8.109v29.936Z" transform="translate(10.816 14.539)" fill="#fdfefe"/>
          <path id="Path_4415" data-name="Path 4415" d="M-208.644,383.457h4.327l5.026-.483v.483h3.8v-3.8l-4.832.045-8.323,2.369v1.39Z" transform="translate(0.026 64.571)" fill="#3b342f"/>
          <path id="Path_4416" data-name="Path 4416" d="M-208.644,380.312v.787h4.327l5.026-.483v.483h3.8v-.787Z" transform="translate(0.026 66.929)" fill="#6b605b"/>
          <path id="Path_4417" data-name="Path 4417" d="M-191.164,383.457h-4.322l-5.031-.483v.483h-3.8v-3.8l4.839.045,8.318,2.369v1.39Z" transform="translate(15.488 64.571)" fill="#3b342f"/>
          <path id="Path_4418" data-name="Path 4418" d="M-191.164,380.312v.787h-4.322l-5.031-.483v.483h-3.8v-.787Z" transform="translate(15.488 66.929)" fill="#6b605b"/>
          <path id="Path_4419" data-name="Path 4419" d="M-203.435,365.443a5.585,5.585,0,0,1-2.11-.384l.082-.179a6.1,6.1,0,0,0,4.156,0l.069.183a6.642,6.642,0,0,1-2.2.38Z" transform="translate(11.11 11.723)" fill="#4a413b"/>
          <path id="Path_4423" data-name="Path 4423" d="M-201.261,375.248l1.327-2.064-2.151-1.35-1.318,2.032a1.272,1.272,0,0,0,.384,1.753,1.271,1.271,0,0,0,1.758-.371Z" transform="translate(18.059 36.596)" fill="#fde3ce"/>
          <path id="Path_4424" data-name="Path 4424" d="M-199.631,366.652a2.235,2.235,0,0,0-3.158-.1,2.216,2.216,0,0,0-.508,2.531s.211.375.293.485c1.575,2.389,8.258,13.8.046,23.926a9.382,9.382,0,0,0,2.22,1.588c12.734-14.208,1.172-28.352,1.172-28.352l-.009,0a.885.885,0,0,0-.055-.082Z" transform="translate(18.452 15.54)" fill="#667fab"/>
          <path id="Path_4425" data-name="Path 4425" d="M-203.941,373.863l-1.437-1.987-2.042,1.515,1.419,1.954a1.268,1.268,0,0,0,1.771.288,1.264,1.264,0,0,0,.288-1.771Z" transform="translate(4.403 36.75)" fill="#fde3ce"/>
          <path id="Path_4426" data-name="Path 4426" d="M-203.768,366.648a2.239,2.239,0,0,1,3.158-.1,2.226,2.226,0,0,1,.508,2.536s-.215.375-.3.481c-1.579,2.389-8.267,13.787-.064,23.931a10.066,10.066,0,0,1-2.22,1.584c-12.721-14.222-1.149-28.357-1.149-28.357l.009.009.055-.087Z" transform="translate(0 15.539)" fill="#667fab"/>
        </g>
        <path id="Path_595" data-name="Path 595" d="M340.113,297.336l-1.265-1.272a.672.672,0,0,0-.954-.006l-7.944,7.877-3.359-3.385a.67.67,0,0,0-.947-.007l-1.279,1.265a.679.679,0,0,0-.006.954l5.1,5.141a.679.679,0,0,0,.954.007l9.692-9.62a.672.672,0,0,0,.007-.954Z" transform="translate(417.13 365.081)" fill="#faba66"/>
      </g>
    </g>
  </g>
</svg>
