<svg xmlns="http://www.w3.org/2000/svg" width="458.825" height="201.389" viewBox="0 0 458.825 201.389">
  <g id="undraw_best_place_r685_1_" data-name="undraw_best_place_r685 (1)" transform="translate(0 -7.667)">
    <path id="Path_2019" data-name="Path 2019" d="M174.6,494.844l-.787-.177a179.222,179.222,0,0,1,349.509-.476l-.787.179c-18.585-81.6-90.1-138.59-173.914-138.59C265.906,355.779,192.72,414.264,174.6,494.844Z" transform="translate(-116.384 -288.791)" fill="#3f3d56"/>
    <circle id="Ellipse_432" data-name="Ellipse 432" cx="21.918" cy="21.918" r="21.918" transform="translate(341.12 66.821)" fill="#e9f2f9"/>
    <rect id="Rectangle_643" data-name="Rectangle 643" width="0.807" height="31.88" transform="translate(353.905 176.37)" fill="#3f3d56"/>
    <path id="Path_2020" data-name="Path 2020" d="M905.65,608.316c.051,11.148-7.792,20.221-7.792,20.221s-7.926-9-7.978-20.148,7.792-20.221,7.792-20.221S905.6,597.168,905.65,608.316Z" transform="translate(-543.489 -427.883)" fill="tomato"/>
    <path id="Path_2021" data-name="Path 2021" d="M905.65,608.316c.051,11.148-7.792,20.221-7.792,20.221s-7.926-9-7.978-20.148,7.792-20.221,7.792-20.221S905.6,597.168,905.65,608.316Z" transform="translate(-543.489 -427.883)" fill="#0f3756"/>
    <circle id="Ellipse_433" data-name="Ellipse 433" cx="12.61" cy="12.61" r="12.61" transform="translate(189.573 87.768)" fill="#2c4e69" opacity="0.4"/>
    <circle id="Ellipse_434" data-name="Ellipse 434" cx="8.846" cy="8.846" r="8.846" transform="translate(169.999 97.554)" fill="tomato" opacity="0.4"/>
    <circle id="Ellipse_435" data-name="Ellipse 435" cx="8.846" cy="8.846" r="8.846" transform="translate(75.167 122.977)" fill="#2c4e69" opacity="0.4"/>
    <circle id="Ellipse_436" data-name="Ellipse 436" cx="12.61" cy="12.61" r="12.61" transform="translate(332.947 86.73)" fill="#0f3756" opacity="0.4"/>
    <path id="Path_2022" data-name="Path 2022" d="M87.825,690.767a8.122,8.122,0,0,0,3.025,4.092,6.993,6.993,0,0,0-2.475-9.151A8.122,8.122,0,0,0,87.825,690.767Z" transform="translate(-64.973 -486.062)" fill="#3f3d56"/>
    <path id="Path_2023" data-name="Path 2023" d="M83.691,693.973a8.122,8.122,0,0,1,2.1,4.633A6.993,6.993,0,0,1,79,691.993,8.122,8.122,0,0,1,83.691,693.973Z" transform="translate(-59.834 -489.811)" fill="tomato"/>
    <path id="Path_2024" data-name="Path 2024" d="M699.825,690.767a8.122,8.122,0,0,0,3.025,4.092,6.993,6.993,0,0,0-2.475-9.151A8.122,8.122,0,0,0,699.825,690.767Z" transform="translate(-430.006 -486.062)" fill="#3f3d56"/>
    <path id="Path_2025" data-name="Path 2025" d="M695.691,693.973a8.122,8.122,0,0,1,2.1,4.633A6.993,6.993,0,0,1,691,691.993,8.122,8.122,0,0,1,695.691,693.973Z" transform="translate(-424.867 -489.811)" fill="tomato"/>
    <path id="Path_2026" data-name="Path 2026" d="M65.669,436.349,64,433.566,79.582,420.21h40.069v3.9l-14.469,15.583-16.7,3.339Z" transform="translate(-38.173 -250.638)" fill="#3f3d56"/>
    <path id="Path_2027" data-name="Path 2027" d="M181.66,426.763v-8.707h-5.246V420.8l-1.651-1.876-13.356,13.356-2.226,2.226-2.782,11.13,5.009,12.243h25.6V432.838Z" transform="translate(-93.285 -249.354)" fill="#ccc"/>
    <rect id="Rectangle_644" data-name="Rectangle 644" width="42.295" height="25.6" transform="translate(25.827 182.928)" fill="#f2f2f2"/>
    <rect id="Rectangle_645" data-name="Rectangle 645" width="8.904" height="7.791" transform="translate(53.374 190.997)" fill="#3f3d56"/>
    <rect id="Rectangle_646" data-name="Rectangle 646" width="7.791" height="17.808" transform="translate(41.965 190.719)" fill="#ccc"/>
    <path id="Path_2028" data-name="Path 2028" d="M76.993,475.4v-2.782H73.654V475.4h3.339Z" transform="translate(-43.932 -281.896)" fill="#3f3d56"/>
    <path id="Path_2029" data-name="Path 2029" d="M76.714,485.026h-3.06v2.783h3.339v-2.783Z" transform="translate(-43.932 -289.299)" fill="#3f3d56"/>
    <rect id="Rectangle_647" data-name="Rectangle 647" width="3.339" height="2.783" transform="translate(35.287 190.719)" fill="#3f3d56"/>
    <rect id="Rectangle_648" data-name="Rectangle 648" width="3.339" height="2.783" transform="translate(35.287 195.728)" fill="#3f3d56"/>
    <path id="Path_2030" data-name="Path 2030" d="M193.524,476.087V473.3h-3.339v2.783h3.339Z" transform="translate(-113.438 -282.307)" fill="#3f3d56"/>
    <path id="Path_2031" data-name="Path 2031" d="M193.246,485.716h-3.061V488.5h3.339v-2.782Z" transform="translate(-113.438 -289.71)" fill="#3f3d56"/>
    <rect id="Rectangle_649" data-name="Rectangle 649" width="3.339" height="2.783" transform="translate(82.313 190.997)" fill="#3f3d56"/>
    <rect id="Rectangle_650" data-name="Rectangle 650" width="3.339" height="2.783" transform="translate(82.313 196.006)" fill="#3f3d56"/>
    <path id="Path_2032" data-name="Path 2032" d="M464.669,436.349,463,433.566l15.582-13.356h40.069v3.9l-14.469,15.583-16.7,3.339Z" transform="translate(-276.161 -250.638)" fill="#3f3d56"/>
    <path id="Path_2033" data-name="Path 2033" d="M580.66,426.763v-8.707h-5.246V420.8l-1.651-1.876-13.356,13.356-2.226,2.226-2.782,11.13,5.009,12.243h25.6V432.838Z" transform="translate(-331.273 -249.354)" fill="#ccc"/>
    <rect id="Rectangle_651" data-name="Rectangle 651" width="42.295" height="25.6" transform="translate(186.839 182.928)" fill="#f2f2f2"/>
    <rect id="Rectangle_652" data-name="Rectangle 652" width="8.904" height="7.791" transform="translate(214.386 190.997)" fill="#3f3d56"/>
    <rect id="Rectangle_653" data-name="Rectangle 653" width="7.791" height="17.808" transform="translate(202.978 190.719)" fill="#ccc"/>
    <path id="Path_2034" data-name="Path 2034" d="M475.993,475.4v-2.782h-3.339V475.4h3.339Z" transform="translate(-281.919 -281.896)" fill="#3f3d56"/>
    <path id="Path_2035" data-name="Path 2035" d="M475.714,485.026h-3.06v2.783h3.339v-2.783Z" transform="translate(-281.919 -289.299)" fill="#3f3d56"/>
    <rect id="Rectangle_654" data-name="Rectangle 654" width="3.339" height="2.783" transform="translate(196.3 190.719)" fill="#3f3d56"/>
    <rect id="Rectangle_655" data-name="Rectangle 655" width="3.339" height="2.783" transform="translate(196.3 195.728)" fill="#3f3d56"/>
    <path id="Path_2036" data-name="Path 2036" d="M592.524,476.087V473.3h-3.339v2.783h3.339Z" transform="translate(-351.425 -282.307)" fill="#3f3d56"/>
    <path id="Path_2037" data-name="Path 2037" d="M592.246,485.716h-3.061V488.5h3.339v-2.782Z" transform="translate(-351.425 -289.71)" fill="#3f3d56"/>
    <rect id="Rectangle_656" data-name="Rectangle 656" width="3.339" height="2.783" transform="translate(243.325 190.997)" fill="#3f3d56"/>
    <rect id="Rectangle_657" data-name="Rectangle 657" width="3.339" height="2.783" transform="translate(243.325 196.006)" fill="#3f3d56"/>
    <path id="Path_2038" data-name="Path 2038" d="M276.4,320.506l-2.782-2.226L289.2,304.367h39.512V316.61l-25.6,17.252Z" transform="translate(-163.203 -181.543)" fill="#3f3d56"/>
    <path id="Path_2039" data-name="Path 2039" d="M379.551,312.171v-7.526h-5.246v1.843l-1.958-2.121-12.8,13.913-5.008,3.339-7.766,56.739,11.712,11.712H385.7V318.836Z" transform="translate(-206.836 -181.543)" fill="#ccc"/>
    <rect id="Rectangle_658" data-name="Rectangle 658" width="42.295" height="71.79" transform="translate(110.416 136.737)" fill="#f2f2f2"/>
    <rect id="Rectangle_659" data-name="Rectangle 659" width="7.791" height="17.53" transform="translate(126.834 190.997)" fill="#ccc"/>
    <path id="Path_2040" data-name="Path 2040" d="M288.681,481.6v-2.782h-3.339V481.6h3.339Z" transform="translate(-170.195 -285.598)" fill="#3f3d56"/>
    <path id="Path_2041" data-name="Path 2041" d="M288.4,491.232h-3.061v2.783h3.339v-2.783Z" transform="translate(-170.195 -293)" fill="#3f3d56"/>
    <rect id="Rectangle_660" data-name="Rectangle 660" width="3.339" height="2.783" transform="translate(120.712 193.223)" fill="#3f3d56"/>
    <rect id="Rectangle_661" data-name="Rectangle 661" width="3.339" height="2.783" transform="translate(120.712 198.232)" fill="#3f3d56"/>
    <path id="Path_2042" data-name="Path 2042" d="M345.223,481.6v-2.782h-3.339V481.6h3.339Z" transform="translate(-203.92 -285.598)" fill="#3f3d56"/>
    <path id="Path_2043" data-name="Path 2043" d="M344.945,491.232h-3.061v2.783h3.339v-2.783Z" transform="translate(-203.92 -293)" fill="#3f3d56"/>
    <rect id="Rectangle_662" data-name="Rectangle 662" width="3.339" height="2.783" transform="translate(143.529 193.223)" fill="#3f3d56"/>
    <rect id="Rectangle_663" data-name="Rectangle 663" width="3.339" height="2.783" transform="translate(143.529 198.232)" fill="#3f3d56"/>
    <path id="Path_2044" data-name="Path 2044" d="M403.144,343.7v-2.782H399.8V343.7h3.339Z" transform="translate(-238.468 -203.341)" fill="#3f3d56"/>
    <path id="Path_2045" data-name="Path 2045" d="M402.866,353.325H399.8v2.782h3.339v-2.782Z" transform="translate(-238.468 -210.744)" fill="#3f3d56"/>
    <rect id="Rectangle_664" data-name="Rectangle 664" width="3.339" height="2.783" transform="translate(166.903 137.572)" fill="#3f3d56"/>
    <rect id="Rectangle_665" data-name="Rectangle 665" width="3.339" height="2.783" transform="translate(166.903 142.581)" fill="#3f3d56"/>
    <path id="Path_2046" data-name="Path 2046" d="M403.144,382.31v-2.783H399.8v2.783h3.339Z" transform="translate(-238.468 -226.373)" fill="#3f3d56"/>
    <path id="Path_2047" data-name="Path 2047" d="M402.866,391.939H399.8v2.782h3.339v-2.782Z" transform="translate(-238.468 -233.776)" fill="#3f3d56"/>
    <rect id="Rectangle_666" data-name="Rectangle 666" width="3.339" height="2.783" transform="translate(166.903 153.154)" fill="#3f3d56"/>
    <rect id="Rectangle_667" data-name="Rectangle 667" width="3.339" height="2.783" transform="translate(166.903 158.163)" fill="#3f3d56"/>
    <path id="Path_2048" data-name="Path 2048" d="M403.144,420.924v-2.783H399.8v2.783h3.339Z" transform="translate(-238.468 -249.404)" fill="#3f3d56"/>
    <path id="Path_2049" data-name="Path 2049" d="M402.866,430.553H399.8v2.782h3.339v-2.782Z" transform="translate(-238.468 -256.808)" fill="#3f3d56"/>
    <rect id="Rectangle_668" data-name="Rectangle 668" width="3.339" height="2.783" transform="translate(166.903 168.737)" fill="#3f3d56"/>
    <rect id="Rectangle_669" data-name="Rectangle 669" width="3.339" height="2.783" transform="translate(166.903 173.745)" fill="#3f3d56"/>
    <path id="Path_2050" data-name="Path 2050" d="M403.144,459.538v-2.783H399.8v2.783h3.339Z" transform="translate(-238.468 -272.436)" fill="#3f3d56"/>
    <path id="Path_2051" data-name="Path 2051" d="M402.866,469.167H399.8v2.782h3.339v-2.782Z" transform="translate(-238.468 -279.839)" fill="#3f3d56"/>
    <rect id="Rectangle_670" data-name="Rectangle 670" width="3.339" height="2.783" transform="translate(166.903 184.319)" fill="#3f3d56"/>
    <rect id="Rectangle_671" data-name="Rectangle 671" width="3.339" height="2.783" transform="translate(166.903 189.328)" fill="#3f3d56"/>
    <rect id="Rectangle_672" data-name="Rectangle 672" width="32.278" height="6.678" transform="translate(115.147 140.355)" fill="#3f3d56"/>
    <rect id="Rectangle_673" data-name="Rectangle 673" width="32.278" height="6.678" transform="translate(115.147 153.711)" fill="#3f3d56"/>
    <rect id="Rectangle_674" data-name="Rectangle 674" width="32.278" height="6.678" transform="translate(115.147 167.067)" fill="#3f3d56"/>
    <rect id="Rectangle_675" data-name="Rectangle 675" width="32.278" height="6.678" transform="translate(115.147 180.424)" fill="#3f3d56"/>
    <path id="Path_2052" data-name="Path 2052" d="M679.4,320.506l-2.782-2.226L692.2,304.367h39.512V316.61l-25.6,17.252Z" transform="translate(-403.577 -181.543)" fill="#3f3d56"/>
    <path id="Path_2053" data-name="Path 2053" d="M782.551,312.171v-7.526h-5.246v1.843l-1.958-2.121-12.8,13.913-5.008,3.339-7.766,56.739,11.712,11.712H788.7V318.836Z" transform="translate(-447.21 -181.543)" fill="#ccc"/>
    <rect id="Rectangle_676" data-name="Rectangle 676" width="42.295" height="71.79" transform="translate(273.043 136.737)" fill="#f2f2f2"/>
    <rect id="Rectangle_677" data-name="Rectangle 677" width="7.791" height="17.53" transform="translate(289.46 190.997)" fill="#ccc"/>
    <path id="Path_2054" data-name="Path 2054" d="M691.681,481.6v-2.782h-3.339V481.6h3.339Z" transform="translate(-410.568 -285.598)" fill="#3f3d56"/>
    <path id="Path_2055" data-name="Path 2055" d="M691.4,491.232h-3.061v2.783h3.339v-2.783Z" transform="translate(-410.568 -293)" fill="#3f3d56"/>
    <rect id="Rectangle_678" data-name="Rectangle 678" width="3.339" height="2.783" transform="translate(283.339 193.223)" fill="#3f3d56"/>
    <rect id="Rectangle_679" data-name="Rectangle 679" width="3.339" height="2.783" transform="translate(283.339 198.232)" fill="#3f3d56"/>
    <path id="Path_2056" data-name="Path 2056" d="M748.223,481.6v-2.782h-3.339V481.6h3.339Z" transform="translate(-444.293 -285.598)" fill="#3f3d56"/>
    <path id="Path_2057" data-name="Path 2057" d="M747.945,491.232h-3.061v2.783h3.339v-2.783Z" transform="translate(-444.293 -293)" fill="#3f3d56"/>
    <rect id="Rectangle_680" data-name="Rectangle 680" width="3.339" height="2.783" transform="translate(306.156 193.223)" fill="#3f3d56"/>
    <rect id="Rectangle_681" data-name="Rectangle 681" width="3.339" height="2.783" transform="translate(306.156 198.232)" fill="#3f3d56"/>
    <path id="Path_2058" data-name="Path 2058" d="M806.144,343.7v-2.782H802.8V343.7h3.339Z" transform="translate(-478.841 -203.341)" fill="#3f3d56"/>
    <path id="Path_2059" data-name="Path 2059" d="M805.866,353.325H802.8v2.782h3.339v-2.782Z" transform="translate(-478.841 -210.744)" fill="#3f3d56"/>
    <rect id="Rectangle_682" data-name="Rectangle 682" width="3.339" height="2.783" transform="translate(329.529 137.572)" fill="#3f3d56"/>
    <rect id="Rectangle_683" data-name="Rectangle 683" width="3.339" height="2.783" transform="translate(329.529 142.581)" fill="#3f3d56"/>
    <path id="Path_2060" data-name="Path 2060" d="M806.144,382.31v-2.783H802.8v2.783h3.339Z" transform="translate(-478.841 -226.373)" fill="#3f3d56"/>
    <path id="Path_2061" data-name="Path 2061" d="M805.866,391.939H802.8v2.782h3.339v-2.782Z" transform="translate(-478.841 -233.776)" fill="#3f3d56"/>
    <rect id="Rectangle_684" data-name="Rectangle 684" width="3.339" height="2.783" transform="translate(329.529 153.154)" fill="#3f3d56"/>
    <rect id="Rectangle_685" data-name="Rectangle 685" width="3.339" height="2.783" transform="translate(329.529 158.163)" fill="#3f3d56"/>
    <path id="Path_2062" data-name="Path 2062" d="M806.144,420.924v-2.783H802.8v2.783h3.339Z" transform="translate(-478.841 -249.404)" fill="#3f3d56"/>
    <path id="Path_2063" data-name="Path 2063" d="M805.866,430.553H802.8v2.782h3.339v-2.782Z" transform="translate(-478.841 -256.808)" fill="#3f3d56"/>
    <rect id="Rectangle_686" data-name="Rectangle 686" width="3.339" height="2.783" transform="translate(329.529 168.737)" fill="#3f3d56"/>
    <rect id="Rectangle_687" data-name="Rectangle 687" width="3.339" height="2.783" transform="translate(329.529 173.745)" fill="#3f3d56"/>
    <path id="Path_2064" data-name="Path 2064" d="M806.144,459.538v-2.783H802.8v2.783h3.339Z" transform="translate(-478.841 -272.436)" fill="#3f3d56"/>
    <path id="Path_2065" data-name="Path 2065" d="M805.866,469.167H802.8v2.782h3.339v-2.782Z" transform="translate(-478.841 -279.839)" fill="#3f3d56"/>
    <rect id="Rectangle_688" data-name="Rectangle 688" width="3.339" height="2.783" transform="translate(329.529 184.319)" fill="#3f3d56"/>
    <rect id="Rectangle_689" data-name="Rectangle 689" width="3.339" height="2.783" transform="translate(329.529 189.328)" fill="#3f3d56"/>
    <rect id="Rectangle_690" data-name="Rectangle 690" width="32.278" height="6.678" transform="translate(277.774 140.355)" fill="#3f3d56"/>
    <rect id="Rectangle_691" data-name="Rectangle 691" width="32.278" height="6.678" transform="translate(277.774 153.711)" fill="#3f3d56"/>
    <rect id="Rectangle_692" data-name="Rectangle 692" width="32.278" height="6.678" transform="translate(277.774 167.067)" fill="#3f3d56"/>
    <rect id="Rectangle_693" data-name="Rectangle 693" width="32.278" height="6.678" transform="translate(277.774 180.424)" fill="#3f3d56"/>
    <path id="Path_2066" data-name="Path 2066" d="M900.4,320.506l-2.782-2.226L913.2,304.367h39.512V316.61l-25.6,17.252Z" transform="translate(-535.394 -181.543)" fill="#3f3d56"/>
    <path id="Path_2067" data-name="Path 2067" d="M1003.551,312.171v-7.526h-5.246v1.843l-1.958-2.121-12.8,13.913-5.008,3.339-7.766,56.739,11.712,11.712H1009.7V318.836Z" transform="translate(-579.027 -181.543)" fill="#ccc"/>
    <rect id="Rectangle_694" data-name="Rectangle 694" width="42.295" height="71.79" transform="translate(362.226 136.737)" fill="#f2f2f2"/>
    <rect id="Rectangle_695" data-name="Rectangle 695" width="7.791" height="17.53" transform="translate(378.643 190.997)" fill="#ccc"/>
    <path id="Path_2068" data-name="Path 2068" d="M912.681,481.6v-2.782h-3.339V481.6h3.339Z" transform="translate(-542.386 -285.598)" fill="#3f3d56"/>
    <path id="Path_2069" data-name="Path 2069" d="M912.4,491.232h-3.061v2.783h3.339v-2.783Z" transform="translate(-542.386 -293)" fill="#3f3d56"/>
    <rect id="Rectangle_696" data-name="Rectangle 696" width="3.339" height="2.783" transform="translate(372.521 193.223)" fill="#3f3d56"/>
    <rect id="Rectangle_697" data-name="Rectangle 697" width="3.339" height="2.783" transform="translate(372.521 198.232)" fill="#3f3d56"/>
    <path id="Path_2070" data-name="Path 2070" d="M969.223,481.6v-2.782h-3.339V481.6h3.339Z" transform="translate(-576.111 -285.598)" fill="#3f3d56"/>
    <path id="Path_2071" data-name="Path 2071" d="M968.945,491.232h-3.061v2.783h3.339v-2.783Z" transform="translate(-576.111 -293)" fill="#3f3d56"/>
    <rect id="Rectangle_698" data-name="Rectangle 698" width="3.339" height="2.783" transform="translate(395.338 193.223)" fill="#3f3d56"/>
    <rect id="Rectangle_699" data-name="Rectangle 699" width="3.339" height="2.783" transform="translate(395.338 198.232)" fill="#3f3d56"/>
    <path id="Path_2072" data-name="Path 2072" d="M1027.144,343.7v-2.782H1023.8V343.7h3.339Z" transform="translate(-610.659 -203.341)" fill="#3f3d56"/>
    <path id="Path_2073" data-name="Path 2073" d="M1026.866,353.325H1023.8v2.782h3.339v-2.782Z" transform="translate(-610.659 -210.744)" fill="#3f3d56"/>
    <rect id="Rectangle_700" data-name="Rectangle 700" width="3.339" height="2.783" transform="translate(418.712 137.572)" fill="#3f3d56"/>
    <rect id="Rectangle_701" data-name="Rectangle 701" width="3.339" height="2.783" transform="translate(418.712 142.581)" fill="#3f3d56"/>
    <path id="Path_2074" data-name="Path 2074" d="M1027.144,382.31v-2.783H1023.8v2.783h3.339Z" transform="translate(-610.659 -226.373)" fill="#3f3d56"/>
    <path id="Path_2075" data-name="Path 2075" d="M1026.866,391.939H1023.8v2.782h3.339v-2.782Z" transform="translate(-610.659 -233.776)" fill="#3f3d56"/>
    <rect id="Rectangle_702" data-name="Rectangle 702" width="3.339" height="2.783" transform="translate(418.712 153.154)" fill="#3f3d56"/>
    <rect id="Rectangle_703" data-name="Rectangle 703" width="3.339" height="2.783" transform="translate(418.712 158.163)" fill="#3f3d56"/>
    <path id="Path_2076" data-name="Path 2076" d="M1027.144,420.924v-2.783H1023.8v2.783h3.339Z" transform="translate(-610.659 -249.404)" fill="#3f3d56"/>
    <path id="Path_2077" data-name="Path 2077" d="M1026.866,430.553H1023.8v2.782h3.339v-2.782Z" transform="translate(-610.659 -256.808)" fill="#3f3d56"/>
    <rect id="Rectangle_704" data-name="Rectangle 704" width="3.339" height="2.783" transform="translate(418.712 168.737)" fill="#3f3d56"/>
    <rect id="Rectangle_705" data-name="Rectangle 705" width="3.339" height="2.783" transform="translate(418.712 173.745)" fill="#3f3d56"/>
    <path id="Path_2078" data-name="Path 2078" d="M1027.144,459.538v-2.783H1023.8v2.783h3.339Z" transform="translate(-610.659 -272.436)" fill="#3f3d56"/>
    <path id="Path_2079" data-name="Path 2079" d="M1026.866,469.167H1023.8v2.782h3.339v-2.782Z" transform="translate(-610.659 -279.839)" fill="#3f3d56"/>
    <rect id="Rectangle_706" data-name="Rectangle 706" width="3.339" height="2.783" transform="translate(418.712 184.319)" fill="#3f3d56"/>
    <rect id="Rectangle_707" data-name="Rectangle 707" width="3.339" height="2.783" transform="translate(418.712 189.328)" fill="#3f3d56"/>
    <rect id="Rectangle_708" data-name="Rectangle 708" width="32.278" height="6.678" transform="translate(366.956 140.355)" fill="#3f3d56"/>
    <rect id="Rectangle_709" data-name="Rectangle 709" width="32.278" height="6.678" transform="translate(366.956 153.711)" fill="#3f3d56"/>
    <rect id="Rectangle_710" data-name="Rectangle 710" width="32.278" height="6.678" transform="translate(366.956 167.067)" fill="#3f3d56"/>
    <rect id="Rectangle_711" data-name="Rectangle 711" width="32.278" height="6.678" transform="translate(366.956 180.424)" fill="#3f3d56"/>
    <rect id="Rectangle_712" data-name="Rectangle 712" width="458.825" height="0.807" transform="translate(0 208.25)" fill="#3f3d56"/>
    <rect id="Rectangle_713" data-name="Rectangle 713" width="0.807" height="31.88" transform="translate(101.692 176.37)" fill="#3f3d56"/>
    <path id="Path_2080" data-name="Path 2080" d="M280.65,608.316c.051,11.148-7.792,20.221-7.792,20.221s-7.926-9-7.978-20.148,7.791-20.221,7.791-20.221S280.6,597.168,280.65,608.316Z" transform="translate(-170.702 -427.883)" fill="#fe9d2b"/>
    <rect id="Rectangle_714" data-name="Rectangle 714" width="0.807" height="31.88" transform="translate(182.4 176.37)" fill="#3f3d56"/>
    <path id="Path_2081" data-name="Path 2081" d="M480.65,608.316c.051,11.148-7.792,20.221-7.792,20.221s-7.926-9-7.978-20.148,7.792-20.221,7.792-20.221S480.6,597.168,480.65,608.316Z" transform="translate(-289.994 -427.883)" fill="#0f3756"/>
    <rect id="Rectangle_715" data-name="Rectangle 715" width="0.807" height="31.88" transform="translate(343.413 176.37)" fill="#3f3d56"/>
    <path id="Path_2082" data-name="Path 2082" d="M879.65,608.316c.051,11.148-7.792,20.221-7.792,20.221s-7.926-9-7.978-20.148,7.792-20.221,7.792-20.221S879.6,597.168,879.65,608.316Z" transform="translate(-527.981 -427.883)" fill="#fe9d2b"/>
    <circle id="Ellipse_438" data-name="Ellipse 438" cx="10.089" cy="10.089" r="10.089" transform="translate(226.588 7.667)" fill="#f2f2f2"/>
  </g>
</svg>
