<svg xmlns="http://www.w3.org/2000/svg" xmlns:xlink="http://www.w3.org/1999/xlink" width="174.467" height="105.988" viewBox="0 0 174.467 105.988">
  <defs>
    <linearGradient id="linear-gradient" x1="0.5" y1="1" x2="0.5" gradientUnits="objectBoundingBox">
      <stop offset="0" stop-color="gray" stop-opacity="0.251"/>
      <stop offset="0.54" stop-color="gray" stop-opacity="0.122"/>
      <stop offset="1" stop-color="gray" stop-opacity="0.102"/>
    </linearGradient>
  </defs>
  <g id="undraw_personal_trainer_ote3_1_" data-name="undraw_personal_trainer_ote3 (1)" transform="translate(-9.369 -17.143)">
    <g id="Group_131" data-name="Group 131" transform="translate(79.964 69.7)" opacity="0.5">
      <path id="Path_816" data-name="Path 816" d="M468.57,402.58l-5.793.12-.947,1.3v4.493l1.183.828h5.558l1.183-1.3v-4.258Z" transform="translate(-461.83 -402.575)" fill="#667fab"/>
      <path id="Path_817" data-name="Path 817" d="M496.333,467.715s-5.321.828-5.793,0l.119-.59,5.674-.125Z" transform="translate(-489.714 -467)" fill="#667fab" opacity="0.2"/>
      <path id="Path_818" data-name="Path 818" d="M495.241,542.084l.945.947v4.5l-.945.932s-3.428,1.183-5.676.235l-1.065-1.063v-4.5l.947-1.065Z" transform="translate(-488.027 -529.072)" fill="#667fab"/>
      <path id="Path_819" data-name="Path 819" d="M499.526,543.215s-4.138.945-5.556,0V542.15h5.793Z" transform="translate(-492.55 -529.138)" fill="#667fab" opacity="0.2"/>
      <path id="Path_820" data-name="Path 820" d="M504.858,501.443v6.4a.959.959,0,0,1-1,.907h0a.959.959,0,0,1-1-.907v-6.4a.971.971,0,0,1,1.122-.9h0A.945.945,0,0,1,504.858,501.443Z" transform="translate(-499.893 -494.728)" fill="#667fab"/>
      <path id="Path_821" data-name="Path 821" d="M522.161,403.64l-5.793.118-.947,1.3v4.493l1.183.828h5.558l1.183-1.3v-4.258Z" transform="translate(-506.141 -403.451)" fill="#667fab"/>
      <path id="Path_822" data-name="Path 822" d="M549.933,468.8s-5.321.828-5.793,0l.118-.59,5.676-.118Z" transform="translate(-534.034 -467.901)" fill="#667fab" opacity="0.2"/>
      <path id="Path_823" data-name="Path 823" d="M548.811,543.2l.945.947v4.5l-.945.937s-3.43,1.183-5.676.235l-1.065-1.063v-4.493l.947-1.065Z" transform="translate(-532.322 -530.006)" fill="#667fab"/>
      <path id="Path_824" data-name="Path 824" d="M553.116,544.265s-4.138.945-5.556,0V543.2h5.79Z" transform="translate(-536.861 -530.006)" fill="#667fab" opacity="0.2"/>
      <path id="Path_825" data-name="Path 825" d="M558.4,502.493v6.4a.961.961,0,0,1-1,.907h0a.961.961,0,0,1-1.006-.907v-6.4a.972.972,0,0,1,1.124-.9h0A.946.946,0,0,1,558.4,502.493Z" transform="translate(-544.162 -495.596)" fill="#667fab"/>
      <path id="Path_826" data-name="Path 826" d="M596.069,423.39l-4.77.1-.779,1.07v3.7l.973.682h4.576l.973-1.072v-3.5Z" transform="translate(-568.238 -419.782)" fill="#667fab"/>
      <path id="Path_827" data-name="Path 827" d="M623.168,488.425s-4.379.681-4.768,0l.1-.487,4.675-.1Z" transform="translate(-595.436 -484.232)" fill="#667fab" opacity="0.2"/>
      <path id="Path_828" data-name="Path 828" d="M622.241,549.68l.779.779v3.7l-.779.779s-2.822.973-4.675.194l-.876-.876v-3.7l.779-.876Z" transform="translate(-594.022 -535.364)" fill="#667fab"/>
      <path id="Path_829" data-name="Path 829" d="M625.784,550.556s-3.407.779-4.574,0v-.876h4.768Z" transform="translate(-597.759 -535.364)" fill="#667fab" opacity="0.2"/>
      <path id="Path_830" data-name="Path 830" d="M630.174,516.146v5.265a.789.789,0,0,1-.828.746h0a.788.788,0,0,1-.826-.746v-5.265a.8.8,0,0,1,.923-.743h0a.779.779,0,0,1,.731.743Z" transform="translate(-603.803 -507.015)" fill="#667fab"/>
      <path id="Path_831" data-name="Path 831" d="M640.188,424.26l-4.77.1-.777,1.07v3.7l.973.68h4.574l.973-1.07v-3.5Z" transform="translate(-604.719 -420.501)" fill="#667fab"/>
      <path id="Path_832" data-name="Path 832" d="M667.28,489.293s-4.381.682-4.77,0l.1-.487,4.675-.1Z" transform="translate(-631.908 -484.951)" fill="#667fab" opacity="0.2"/>
      <path id="Path_833" data-name="Path 833" d="M666.369,550.55l.777.777v3.7l-.777.779s-2.824.973-4.675.2l-.874-.871v-3.7l.779-.876Z" transform="translate(-630.511 -536.084)" fill="#667fab"/>
      <path id="Path_834" data-name="Path 834" d="M669.894,551.426s-3.406.777-4.574,0v-.876h4.77Z" transform="translate(-634.232 -536.084)" fill="#667fab" opacity="0.2"/>
      <path id="Path_835" data-name="Path 835" d="M674.285,517.036V522.3a.79.79,0,0,1-.828.746h0a.79.79,0,0,1-.828-.746v-5.264a.8.8,0,0,1,.925-.741h0A.777.777,0,0,1,674.285,517.036Z" transform="translate(-640.276 -507.756)" fill="#667fab"/>
    </g>
    <path id="Path_836" data-name="Path 836" d="M250.324,238.882a2.922,2.922,0,0,0-1.8-1.321,6.578,6.578,0,0,0-2.265-.142,19.91,19.91,0,0,0-3.624.6,3.776,3.776,0,0,0-2,1.039c-.014.017-.029.038-.045.055-.76.2-1.515.506-2.251.755a21.127,21.127,0,0,1-2.251.611,13.333,13.333,0,0,0,2.786-1.965,7.878,7.878,0,0,0,1.039-1.24,4.123,4.123,0,0,0,1.731.116,6.253,6.253,0,0,0,3-1.856l2.834-2.608a5.747,5.747,0,0,0,1.212-1.385,5.42,5.42,0,0,0,.454-2.521c.014-1.188,0-2.376-.035-3.562l.9.693a7.942,7.942,0,0,1,.786-4.252,4.744,4.744,0,0,0,.729-1.958,2.964,2.964,0,0,0-1.879-2.424,11.14,11.14,0,0,1-2.819-1.529c-1.167-1.1-1.385-2.853-1.962-4.36a17.324,17.324,0,0,0-1.212-2.384l-1.122-1.957a27.737,27.737,0,0,0-1.884-2.976,27.3,27.3,0,0,0-4.1-4.064l-7.591-6.54a71.34,71.34,0,0,0-5.695-4.576,70.846,70.846,0,0,0-13.159-6.683,8.333,8.333,0,0,0-3.569-.918,4.081,4.081,0,0,0-2.5,1.07,14.94,14.94,0,0,1-1.9-.724l-.048-.023c.014-.1.029-.2.04-.3.016-.135.024-.27.035-.407a3.177,3.177,0,0,0,.98-.32,1.175,1.175,0,0,0,.4-.313,1.435,1.435,0,0,0,.206-.767,34.382,34.382,0,0,0,.128-5.437,11.5,11.5,0,0,0-1.558-5.155,2.676,2.676,0,0,0-1.181-1.143c-.693-.277-1.494-.019-2.234-.144-1.28-.216-2.078-1.468-3-2.391a7.287,7.287,0,0,0-9.054-.8,26.466,26.466,0,0,0-2.76,2.552,6.124,6.124,0,0,1-3.221,1.8,1.569,1.569,0,0,0-.653.173,1.345,1.345,0,0,0-.464.75,13.259,13.259,0,0,0-.784,3.011c-.012-.062-.023-.125-.033-.187a5.875,5.875,0,0,0-.029,1.145,3.34,3.34,0,0,0,.412,1.385,1.879,1.879,0,0,0,.947.9,2.579,2.579,0,0,0,.912.147h.137c-.05.133-.1.267-.144.4a11.081,11.081,0,0,0-.58,3.551,10.887,10.887,0,0,0,10.806,10.971,10.769,10.769,0,0,0,2.138-.225c.234.074.467.151.693.232a12.985,12.985,0,0,1,1.354.533c.187.088.944.53,1.858,1.1h0l-.062.13a6.881,6.881,0,0,0-1.989,6.654c.661,2.575,2.831,4.782,2.613,7.433a4.537,4.537,0,0,0-.047,1.134,2.749,2.749,0,0,0,.791,1.326c.3.336.622.661.944.98-.026,1.692-.173,3.382-.332,5.068-.014.147-.017.3-.019.447a3.117,3.117,0,0,0,.748,1.986,3.221,3.221,0,0,1,.608,2.344,16.177,16.177,0,0,1-1.1,3.342c-1.742,4.992.4,10.621-.807,15.775a22.4,22.4,0,0,0-.866,3.809,7.153,7.153,0,0,1-.225,2.424,4.547,4.547,0,0,1-1.373,1.586q-1.134.971-2.209,2.008a30.583,30.583,0,0,0-3.349-1.576,6.016,6.016,0,0,0-.571-.2,24.685,24.685,0,0,0-4.665-3.009c-1.33-.771-2.6-1.636-3.872-2.5a21.653,21.653,0,0,1-3.475-2.737c-.519-.54-.982-1.136-1.541-1.629a13.1,13.1,0,0,0-1.558-1.115,62.616,62.616,0,0,1-7.009-5.272c-1.685-1.461-3.063-3.343-4.864-4.654a5.58,5.58,0,0,0-3.736-1.385,3.565,3.565,0,0,0-1.231.379,3.22,3.22,0,0,0-1.129-.253,5.764,5.764,0,0,0-3.047,1.134q-8.311,5.051-16.882,9.651c-1.153.62-2.313,1.235-3.414,1.944a23.189,23.189,0,0,0-5.634,5.137c-.291.369-.658.788-1.12.732a1,1,0,0,1-.358-.128,4.507,4.507,0,0,1-1.558-1.841,5.855,5.855,0,0,0-1.056-1.456h0a3.075,3.075,0,0,0-.371-.693c.615-1.517,1.144-3.07,1.636-4.633.256-.821.5-1.647.831-2.443.807-1.97,2.093-3.756,2.549-5.84.109-.5.173-1.022.258-1.531a10.841,10.841,0,1,0-7.837-1.491v.061a7.656,7.656,0,0,1-.1,1.039,13.149,13.149,0,0,1-1.19,3.309c-.329.708-.658,1.42-1,2.126a1.974,1.974,0,0,1-.473-.159,1.431,1.431,0,0,1-.532-.835,29.862,29.862,0,0,0-1.8-4.2,7.271,7.271,0,0,0-1.039-1.595,8.758,8.758,0,0,0-2.7-1.754c-.173-.083-.334-.173-.5-.253a4.28,4.28,0,0,0-.45-.293,11.379,11.379,0,0,1-2.37-1.42c-.5-.478-.85-1.1-1.321-1.607a8.432,8.432,0,0,0-2.917-1.783,3.871,3.871,0,0,0-1.719-.45,2.061,2.061,0,0,0-.251.028,3.984,3.984,0,0,0-.426.1,2.317,2.317,0,0,1-.384-.256,3.8,3.8,0,0,1-1.1-2.137,9.987,9.987,0,0,1-.5-4.046,6.124,6.124,0,0,1,.152-.693c.054-.088.106-.173.152-.268a9.033,9.033,0,0,0,4.729-13.931c-.088-.121-.173-.239-.272-.357l.1-.057a2.474,2.474,0,0,0,.732-3.027,5.46,5.46,0,0,0-2.339-2.356c-.139-.085-.279-.165-.421-.244l-.121-.066-.32-.173-.126-.064c-.126-.064-.253-.125-.379-.184l-.057-.028c-.158-.071-.315-.14-.474-.206h0c-.154-.064-.308-.123-.464-.173l-.064-.024c-.147-.054-.3-.1-.445-.152l-.033-.01a11.64,11.64,0,0,0-3.369-.568,19.481,19.481,0,0,0-6.45,1.264,11.112,11.112,0,0,0-4.271,3.2,4.115,4.115,0,0,0-.713.118,7.169,7.169,0,0,0-2.55,1.352,8.138,8.138,0,0,0-1.7,1.683A7.262,7.262,0,0,0,80.5,197.6c-.656,3.07.151,6.233.745,9.319s.937,6.448-.519,9.217c-.549,1.039-1.328,1.941-1.9,2.961a4.494,4.494,0,0,0-.644,3.382c.4,1.373,1.731,2.237,2.424,3.484a4.269,4.269,0,0,1-.473,4.675c-.047.055-.093.111-.144.173a1.734,1.734,0,0,1-.187.187,3.92,3.92,0,0,0,3.29-.646,5.841,5.841,0,0,0,1.941-1.868c1.238-2.033.682-4.661,1.119-7.011.573-3.077,2.886-5.821,2.568-8.936-.215-2.09-1.579-3.837-2.651-5.634a22.287,22.287,0,0,1-1.783-3.8l-.059-.173h0a5.577,5.577,0,0,1-.393-2.77,3.875,3.875,0,0,1,.27-.878c0,.033,0,.068,0,.1a6.8,6.8,0,0,0,.59,2.616c1.082,2.251,3.686,3.29,5.34,5.115.069.076.135.154.2.234.019.021.036.043.054.066l.14.173.059.081c.043.061.087.121.126.184l.054.078c.055.088.111.173.163.268a4.123,4.123,0,0,0,1.025-1.558c.016-.052.026-.106.036-.159.014.014.026.029.04.045.033.185.059.371.083.558h0a3.763,3.763,0,0,0,.085.795,34.963,34.963,0,0,1-.085,5.037c-.059.892.173,2.216-.395,2.881l-.017.019a.915.915,0,0,1-.109.107h0c-.1.1-.2.2-.287.3a12.053,12.053,0,0,0-2.725,8.114,27.924,27.924,0,0,0,2.31,9.632,27.047,27.047,0,0,0,1.482,3.29,5.745,5.745,0,0,0,1.145,1.539,6.9,6.9,0,0,0,1.662.992c.145.069.293.137.438.208l.372.173,2.834,1.347c.519.764,1.022,1.548,1.529,2.334.073.111.144.225.218.336.554.866,1.112,1.731,1.68,2.573l4.777,7.075a5.963,5.963,0,0,0,1.195,1.423,2.438,2.438,0,0,0,.447.279,2.32,2.32,0,0,0,.248.1.79.79,0,0,0-.126.535.906.906,0,0,0,.346.452c1.08.893,2.28,1.835,2.62,3.208.241.978,0,2.026.216,3.009.4,1.773,2.15,2.848,3.809,3.53a21.341,21.341,0,0,0,11.8,1.4,17.233,17.233,0,0,0,10.259-5.887c.786-.966,1.456-2.021,2.2-3.018a25.254,25.254,0,0,1,1.681-2.019,13.879,13.879,0,0,0,1.837-1.015,35.47,35.47,0,0,0,3.463-2.881c.85-.741,1.74-1.441,2.521-2.251a26.378,26.378,0,0,0,1.962-2.424q2.078-2.753,4.292-5.4a8.552,8.552,0,0,1,2.729-2.424l.05-.021a6.247,6.247,0,0,0,1.177,2.1c1.783,2.77,3.65,5.622,6.406,7.388a20.478,20.478,0,0,0,4.921,2.1c4.329,1.368,8.727,2.441,13.128,3.517.145-.277.287-.533.447-.783a2.369,2.369,0,0,1,.19.229c.019.028.035.057.054.085a.631.631,0,0,0-.093.026,1.231,1.231,0,0,0-.622.654,7.268,7.268,0,0,0-.542,3.117c-.016,1.039,0,2.078,0,3.117a2.688,2.688,0,0,0,.173,1.139,2.357,2.357,0,0,0,1.953,1.039,16.324,16.324,0,0,0,3.982-.156,3.068,3.068,0,0,0,.369.881,6.292,6.292,0,0,0,3.352,2.481,29.762,29.762,0,0,0,4.126.931c2.457.488,4.971,1.269,7.414.719.975-.22,1.9-.646,2.879-.833,2.232-.422,4.545.433,6.792.09a10.673,10.673,0,0,0,3.1-1.1,4.246,4.246,0,0,0,1.325-.914,1.659,1.659,0,0,0,.428-1.5,6.078,6.078,0,0,0-.409-.841,4.475,4.475,0,0,1-.293-1.42,38.977,38.977,0,0,0-.931-5.458c-.012-.05-.026-.1-.04-.154a23.6,23.6,0,0,0,4.723-2.784l3.233-2.261a19.2,19.2,0,0,1,3.271-1.981,14.162,14.162,0,0,1,5.724-1.009c.8,0,1.6.04,2.393.113a1.038,1.038,0,0,0-.223.384,1.426,1.426,0,0,0,.469,1.4,6.175,6.175,0,0,0,1.307.817,7.909,7.909,0,0,1,2.943,2.893,3.161,3.161,0,0,1,.485,2.519c-.346,1.049-1.581,1.773-1.51,2.878a1.771,1.771,0,0,0,1.164,1.43,4.7,4.7,0,0,0,1.9.218,7.238,7.238,0,0,0,3.084-.594,7.987,7.987,0,0,0,1.7-1.3,4.943,4.943,0,0,0,1.247-1.5,4.557,4.557,0,0,0,.308-1.813c.052-2.9-.448-5.844.128-8.687.173-.866.45-1.712.6-2.585a18.211,18.211,0,0,0,.055-4.176A4.565,4.565,0,0,0,250.324,238.882Z" transform="translate(-68.684 -146.315)" fill="url(#linear-gradient)"/>
    <path id="Path_837" data-name="Path 837" d="M737.509,321.98a2.876,2.876,0,0,0-1,2.163c-.369,3.475,1.065,6.915.97,10.408a23.975,23.975,0,0,1-2.133,8.015,47.71,47.71,0,0,0-3,13.928c-.351,4.729-.866,9.653-3.4,13.653-.576.906-1.248,1.747-1.813,2.658-.592.952-1.061,1.974-1.584,2.964a31.9,31.9,0,0,1-5.887,7.908,8.122,8.122,0,0,1-2.31,1.719,4.651,4.651,0,0,1-3.612.038,3.452,3.452,0,0,1-2.23-2.876,5.121,5.121,0,0,1,1.326-3.1,50.843,50.843,0,0,1,7.965-8.443,4.585,4.585,0,0,0,1.385-1.57,7.024,7.024,0,0,0,.225-2.4,21.125,21.125,0,0,1,.866-3.771c1.212-5.106-.942-10.681.81-15.628a15.745,15.745,0,0,0,1.1-3.309,3.145,3.145,0,0,0-.611-2.324,3.054,3.054,0,0,1-.75-1.967,3.732,3.732,0,0,1,.017-.442,47.755,47.755,0,0,0,.306-6.817,15.983,15.983,0,0,0-1.615-6.579,18.684,18.684,0,0,1-1.583-3.158,8,8,0,0,1,.764-5.541,9.668,9.668,0,0,1,2.637-3.572,7.064,7.064,0,0,1,7.811-.5,11.535,11.535,0,0,1,3.932,4.613A8.088,8.088,0,0,1,737.509,321.98Z" transform="translate(-592.451 -269.546)" fill="#181d21" opacity="0.06"/>
    <path id="Path_838" data-name="Path 838" d="M751.562,257.375q-.5,1.345-.992,2.691c-.218.589-.435,1.183-.66,1.771a27.487,27.487,0,0,1-4.019,7.629c.272-.336-2.285-2.026-4.171-3.179-.919-.566-1.681-1-1.868-1.089a13.669,13.669,0,0,0-1.363-.53c-.719-.242-1.446-.452-2.164-.713-1.662-.6-.5-1.5.211-2.473,2.329-3.175,2.77-7.515,5.414-10.432a9.749,9.749,0,0,0,4.377,4.233c.036.019.074.036.113.052,1.57.734,3.305,1.051,4.929,1.666.088.033.19.08.22.173A.346.346,0,0,1,751.562,257.375Z" transform="translate(-612.275 -218.741)" fill="#a1616a"/>
    <path id="Path_839" data-name="Path 839" d="M795.566,611.757a7.81,7.81,0,0,0-.805,7.475,2.534,2.534,0,0,0,.583.9,2.734,2.734,0,0,0,1.113.519,23.963,23.963,0,0,0,10.631.173,18.719,18.719,0,0,0,3.5-.892,23.391,23.391,0,0,0,4.838-2.794l3.252-2.241a19.707,19.707,0,0,1,3.29-1.963,14.461,14.461,0,0,1,5.757-1,26.871,26.871,0,0,1,5.021.48c1.1.213,2.424.433,3.2-.372a3.029,3.029,0,0,0,.661-1.75,26.081,26.081,0,0,0-.019-7.371.957.957,0,0,0-.213-.563.865.865,0,0,0-.429-.2c-1.532-.346-3.07.372-4.559.866-3.094,1.029-6.417,1.152-9.565,2-3.3.888-6.406,2.57-9.821,2.911-1.628.163-3.262.021-4.893.057-1.513.033-2.924.556-4.407.618C799.846,608.741,797.361,609.24,795.566,611.757Z" transform="translate(-660.799 -508.987)" fill="#a1616a"/>
    <path id="Path_840" data-name="Path 840" d="M795.566,611.757a7.81,7.81,0,0,0-.805,7.475,2.534,2.534,0,0,0,.583.9,2.734,2.734,0,0,0,1.113.519,23.963,23.963,0,0,0,10.631.173,18.719,18.719,0,0,0,3.5-.892,23.391,23.391,0,0,0,4.838-2.794l3.252-2.241a19.707,19.707,0,0,1,3.29-1.963,14.461,14.461,0,0,1,5.757-1,26.871,26.871,0,0,1,5.021.48c1.1.213,2.424.433,3.2-.372a3.029,3.029,0,0,0,.661-1.75,26.081,26.081,0,0,0-.019-7.371.957.957,0,0,0-.213-.563.865.865,0,0,0-.429-.2c-1.532-.346-3.07.372-4.559.866-3.094,1.029-6.417,1.152-9.565,2-3.3.888-6.406,2.57-9.821,2.911-1.628.163-3.262.021-4.893.057-1.513.033-2.924.556-4.407.618C799.846,608.741,797.361,609.24,795.566,611.757Z" transform="translate(-660.799 -508.987)" fill="#181d21" opacity="0.06"/>
    <path id="Path_841" data-name="Path 841" d="M817.948,521.759a2.342,2.342,0,0,0-.04,1.162,2.165,2.165,0,0,0,.693.932c2.944,2.635,7.149,3.181,11.081,3.608a8.389,8.389,0,0,0,5.946-.977,26.308,26.308,0,0,0,5.453-3.141c1.6-1.3,2.886-2.961,4.545-4.185,1.886-1.385,4.2-2.178,5.887-3.809a7.914,7.914,0,0,0,2.308-4.374,12.471,12.471,0,0,0,0-3.446,10.244,10.244,0,0,0-.983-3.825,9.247,9.247,0,0,0-3.231-3.208,16.773,16.773,0,0,0-9.177-2.84c-4.5.04-8.657,2.66-11.888,5.6a34.988,34.988,0,0,0-8.138,11.069A33.8,33.8,0,0,0,817.948,521.759Z" transform="translate(-680.387 -422.649)" fill="#464353"/>
    <path id="Path_842" data-name="Path 842" d="M817.948,521.759a2.342,2.342,0,0,0-.04,1.162,2.165,2.165,0,0,0,.693.932c2.944,2.635,7.149,3.181,11.081,3.608a8.389,8.389,0,0,0,5.946-.977,26.308,26.308,0,0,0,5.453-3.141c1.6-1.3,2.886-2.961,4.545-4.185,1.886-1.385,4.2-2.178,5.887-3.809a7.914,7.914,0,0,0,2.308-4.374,12.471,12.471,0,0,0,0-3.446,10.244,10.244,0,0,0-.983-3.825,9.247,9.247,0,0,0-3.231-3.208,16.773,16.773,0,0,0-9.177-2.84c-4.5.04-8.657,2.66-11.888,5.6a34.988,34.988,0,0,0-8.138,11.069A33.8,33.8,0,0,0,817.948,521.759Z" transform="translate(-680.387 -422.649)" fill="#181d21" opacity="0.06"/>
    <path id="Path_843" data-name="Path 843" d="M737.509,321.98a2.876,2.876,0,0,0-1,2.163c-.369,3.475,1.065,6.915.97,10.408a23.975,23.975,0,0,1-2.133,8.015,47.71,47.71,0,0,0-3,13.928c-.351,4.729-.866,9.653-3.4,13.653-.576.906-1.248,1.747-1.813,2.658-.592.952-1.061,1.974-1.584,2.964a31.9,31.9,0,0,1-5.887,7.908,8.122,8.122,0,0,1-2.31,1.719,4.651,4.651,0,0,1-3.612.038,3.452,3.452,0,0,1-2.23-2.876,5.121,5.121,0,0,1,1.326-3.1,50.843,50.843,0,0,1,7.965-8.443,4.585,4.585,0,0,0,1.385-1.57,7.024,7.024,0,0,0,.225-2.4,21.125,21.125,0,0,1,.866-3.771c1.212-5.106-.942-10.681.81-15.628a15.745,15.745,0,0,0,1.1-3.309,3.145,3.145,0,0,0-.611-2.324,3.054,3.054,0,0,1-.75-1.967,3.732,3.732,0,0,1,.017-.442,47.755,47.755,0,0,0,.306-6.817,15.983,15.983,0,0,0-1.615-6.579,18.684,18.684,0,0,1-1.583-3.158,8,8,0,0,1,.764-5.541,9.668,9.668,0,0,1,2.637-3.572,7.064,7.064,0,0,1,7.811-.5,11.535,11.535,0,0,1,3.932,4.613A8.088,8.088,0,0,1,737.509,321.98Z" transform="translate(-592.451 -269.546)" fill="#a1616a"/>
    <ellipse id="Ellipse_108" data-name="Ellipse 108" cx="6.554" cy="10.283" rx="6.554" ry="10.283" transform="translate(128.938 43.499)" fill="#a1616a"/>
    <path id="Path_844" data-name="Path 844" d="M702.965,657.282a2.285,2.285,0,0,1,.346,1.9,3.33,3.33,0,0,0,2.128.62,6.581,6.581,0,0,0,2.19-.5,7.237,7.237,0,0,0,1.7-.893,7.51,7.51,0,0,0,2.078-2.614c.293-.547.542-1.255.173-1.747a1.676,1.676,0,0,0-.519-.4,30.846,30.846,0,0,0-4.156-1.976,3.054,3.054,0,0,0-1.253-.281,2.686,2.686,0,0,0-1.437.646,7.79,7.79,0,0,0-2.237,2.77c-.163.346-.655,1.169-.41,1.525.111.164.519.222.693.325A2.241,2.241,0,0,1,702.965,657.282Z" transform="translate(-584.187 -549.764)" fill="#fbbebe"/>
    <path id="Path_845" data-name="Path 845" d="M702.965,657.282a2.285,2.285,0,0,1,.346,1.9,3.33,3.33,0,0,0,2.128.62,6.581,6.581,0,0,0,2.19-.5,7.237,7.237,0,0,0,1.7-.893,7.51,7.51,0,0,0,2.078-2.614c.293-.547.542-1.255.173-1.747a1.676,1.676,0,0,0-.519-.4,30.846,30.846,0,0,0-4.156-1.976,3.054,3.054,0,0,0-1.253-.281,2.686,2.686,0,0,0-1.437.646,7.79,7.79,0,0,0-2.237,2.77c-.163.346-.655,1.169-.41,1.525.111.164.519.222.693.325A2.241,2.241,0,0,1,702.965,657.282Z" transform="translate(-584.187 -549.764)" fill="#181d21" opacity="0.03"/>
    <path id="Path_846" data-name="Path 846" d="M707.677,662.235c2.93.544,5.624,1.96,8.5,2.724a28.247,28.247,0,0,1,3.479.973,4.735,4.735,0,0,1,2.642,2.334,6.685,6.685,0,0,1,.4,1.648,2.365,2.365,0,0,1-2.54,3.292c-3.044.362-6.088.725-9.142.982a15.949,15.949,0,0,0-1.844.22c-.5.1-.992.253-1.491.371-.646.151-1.3.246-1.957.346a20.193,20.193,0,0,1-5.049.3,2.354,2.354,0,0,1-1.964-1.025,2.618,2.618,0,0,1-.173-1.129c-.009-1.029-.017-2.055,0-3.082a6.991,6.991,0,0,1,.545-3.089,1.228,1.228,0,0,1,.625-.649,1.435,1.435,0,0,1,.537-.049,6.343,6.343,0,0,1,2.637.471c.639.317,1.158.845,1.809,1.132,1.233.547,2.72.154,3.969.668a4.968,4.968,0,0,0,.009-2.724,21.22,21.22,0,0,1-.611-2.76,1.761,1.761,0,0,0-.118-.6C707.851,662.393,707.882,662.206,707.677,662.235Z" transform="translate(-581.73 -558.729)" fill="#464353"/>
    <path id="Path_847" data-name="Path 847" d="M707.677,662.235c2.93.544,5.624,1.96,8.5,2.724a28.247,28.247,0,0,1,3.479.973,4.735,4.735,0,0,1,2.642,2.334,6.685,6.685,0,0,1,.4,1.648,2.365,2.365,0,0,1-2.54,3.292c-3.044.362-6.088.725-9.142.982a15.949,15.949,0,0,0-1.844.22c-.5.1-.992.253-1.491.371-.646.151-1.3.246-1.957.346a20.193,20.193,0,0,1-5.049.3,2.354,2.354,0,0,1-1.964-1.025,2.618,2.618,0,0,1-.173-1.129c-.009-1.029-.017-2.055,0-3.082a6.991,6.991,0,0,1,.545-3.089,1.228,1.228,0,0,1,.625-.649,1.435,1.435,0,0,1,.537-.049,6.343,6.343,0,0,1,2.637.471c.639.317,1.158.845,1.809,1.132,1.233.547,2.72.154,3.969.668a4.968,4.968,0,0,0,.009-2.724,21.22,21.22,0,0,1-.611-2.76,1.761,1.761,0,0,0-.118-.6C707.851,662.393,707.882,662.206,707.677,662.235Z" transform="translate(-581.73 -558.729)" fill="#181d21" opacity="0.06"/>
    <path id="Path_848" data-name="Path 848" d="M174.2,440.595c-.59-.187-1.16.336-1.491.866a7.754,7.754,0,0,0-.163,7.359,5.586,5.586,0,0,0,1.067,1.588,10.271,10.271,0,0,0,2.078,1.385,15.633,15.633,0,0,1,4.98,4.675c.847,1.248,1.513,2.621,2.474,3.783,2.365,2.86,6.252,4.155,8.546,7.064a9,9,0,0,0,1.745,2,2.968,2.968,0,0,0,4.646-2.3,33.364,33.364,0,0,0,2.315-4.185,49.812,49.812,0,0,0,2.6-6.73c.258-.814.507-1.633.836-2.424.812-1.953,2.105-3.721,2.563-5.785a24.957,24.957,0,0,1,.5-2.492,4.742,4.742,0,0,1,1.191-1.9c1.8-1.751,2.77-4.3,4.2-6.361a13.735,13.735,0,0,0,1.57-2.606,4.122,4.122,0,0,0,.173-2.973,2.479,2.479,0,0,0-2.31-1.667,3.509,3.509,0,0,0-1.3.4,14.449,14.449,0,0,0-3.8,2.618,18.389,18.389,0,0,0-1.385,1.489,15.29,15.29,0,0,0-3.917,8.889c-.048,1.129.042,2.381-.675,3.255-1.977,2.415-2.613,5.736-4.3,8.365a7.223,7.223,0,0,1-3.011,3.02,1.284,1.284,0,0,1-.634.125c-.533-.061-.84-.622-1.065-1.11a42.952,42.952,0,0,0-3.046-5.5,5.234,5.234,0,0,0-1.68-1.809c-.5-.275-1.07-.4-1.536-.72a4.548,4.548,0,0,1-1.326-1.927,29.941,29.941,0,0,0-4.123-6.427c-.751-.9-1.742-1.82-2.9-1.686C175.918,439,175.243,440.16,174.2,440.595Z" transform="translate(-146.117 -366.611)" fill="#fbbebe"/>
    <path id="Path_849" data-name="Path 849" d="M174.2,440.595c-.59-.187-1.16.336-1.491.866a7.754,7.754,0,0,0-.163,7.359,5.586,5.586,0,0,0,1.067,1.588,10.271,10.271,0,0,0,2.078,1.385,15.633,15.633,0,0,1,4.98,4.675c.847,1.248,1.513,2.621,2.474,3.783,2.365,2.86,6.252,4.155,8.546,7.064a9,9,0,0,0,1.745,2,2.968,2.968,0,0,0,4.646-2.3,33.364,33.364,0,0,0,2.315-4.185,49.812,49.812,0,0,0,2.6-6.73c.258-.814.507-1.633.836-2.424.812-1.953,2.105-3.721,2.563-5.785a24.957,24.957,0,0,1,.5-2.492,4.742,4.742,0,0,1,1.191-1.9c1.8-1.751,2.77-4.3,4.2-6.361a13.735,13.735,0,0,0,1.57-2.606,4.122,4.122,0,0,0,.173-2.973,2.479,2.479,0,0,0-2.31-1.667,3.509,3.509,0,0,0-1.3.4,14.449,14.449,0,0,0-3.8,2.618,18.389,18.389,0,0,0-1.385,1.489,15.29,15.29,0,0,0-3.917,8.889c-.048,1.129.042,2.381-.675,3.255-1.977,2.415-2.613,5.736-4.3,8.365a7.223,7.223,0,0,1-3.011,3.02,1.284,1.284,0,0,1-.634.125c-.533-.061-.84-.622-1.065-1.11a42.952,42.952,0,0,0-3.046-5.5,5.234,5.234,0,0,0-1.68-1.809c-.5-.275-1.07-.4-1.536-.72a4.548,4.548,0,0,1-1.326-1.927,29.941,29.941,0,0,0-4.123-6.427c-.751-.9-1.742-1.82-2.9-1.686C175.918,439,175.243,440.16,174.2,440.595Z" transform="translate(-146.117 -366.611)" fill="#181d21" opacity="0.03"/>
    <ellipse id="Ellipse_109" data-name="Ellipse 109" cx="4.564" cy="4.119" rx="4.564" ry="4.119" transform="translate(23.399 57.472)" fill="#faba66"/>
    <ellipse id="Ellipse_110" data-name="Ellipse 110" cx="1.643" cy="1.643" rx="1.643" ry="1.643" transform="translate(30.6 59.102)" fill="#fbbebe"/>
    <ellipse id="Ellipse_111" data-name="Ellipse 111" cx="6.287" cy="1.681" rx="6.287" ry="1.681" transform="translate(22.275 58.229)" fill="#fdb59c"/>
    <path id="Path_850" data-name="Path 850" d="M146.085,343.253a11.386,11.386,0,0,1,.36,1.48,8.843,8.843,0,0,1-1.361-1.789,1.332,1.332,0,0,1-.241-.381,10.171,10.171,0,0,1-.944-4.057,8.893,8.893,0,1,1,11.23,8.579,11.111,11.111,0,0,0,.693-2.64,1.9,1.9,0,0,0-.128-.892,2.032,2.032,0,0,0-.653-.751,5.639,5.639,0,0,0-3.511-1.067,9.635,9.635,0,0,0-3.61.866c-.358.154-.788.362-1.212.5A3.156,3.156,0,0,1,146.085,343.253Z" transform="translate(-123.13 -283.701)" fill="#fdb59c"/>
    <path id="Path_851" data-name="Path 851" d="M178.684,434.918a3.033,3.033,0,0,1-2.857,1.11,9.75,9.75,0,0,1-5.35-2.493c-1.541-1.281-2.888-2.77-4.464-4a15.843,15.843,0,0,0-9.963-3.274c.729-.6.461-2.038.519-2.98a29.128,29.128,0,0,0,0-5.736c-.026-.2-.055-.4-.09-.6.059.062.121.123.185.185a8.9,8.9,0,0,0,8.5,2.168,6.929,6.929,0,0,0-.223.921,9.662,9.662,0,0,0,.5,4.007,3.743,3.743,0,0,0,1.108,2.116,4.881,4.881,0,0,0,1.444.611,7.964,7.964,0,0,1,2.691,1.558,21.761,21.761,0,0,0,1.626,1.456,11.321,11.321,0,0,0,1.757.907,21.991,21.991,0,0,1,4.225,2.561,1.385,1.385,0,0,1,.549.651A1.07,1.07,0,0,1,178.684,434.918Z" transform="translate(-133.176 -355.908)" fill="#fdb59c"/>
    <path id="Path_852" data-name="Path 852" d="M174.46,491.605c-.119.79-.843,1.406-1.354,2.019-1.389,1.676-2.8,3.357-4.349,4.891a68.044,68.044,0,0,1-5.31,4.562l-2.365,1.893a2.978,2.978,0,0,1-1.006.606,1.837,1.837,0,0,1-1.3-.154,2.535,2.535,0,0,1-.448-.275,6.072,6.072,0,0,1-1.2-1.411q-2.4-3.5-4.8-7.007c-.571-.835-1.132-1.692-1.69-2.549-.074-.111-.145-.223-.22-.334-.509-.779-1.016-1.558-1.538-2.311l-2.85-1.335-.374-.173-.442-.206a6.994,6.994,0,0,1-1.671-.982,5.657,5.657,0,0,1-1.151-1.525,26.7,26.7,0,0,1-1.493-3.267,27.257,27.257,0,0,1-2.324-9.542,11.789,11.789,0,0,1,2.741-8.036,8.62,8.62,0,0,1,.847-.821,1.514,1.514,0,0,1,1.229-.424c.476.068.928.137,1.385.215q1.891.326,3.752.8a7.771,7.771,0,0,0,3.408.384c.182-.036.362-.088.542-.135.147-.038.293-.074.443-.1a2.05,2.05,0,0,1,.253-.028,3.976,3.976,0,0,1,1.731.447,8.6,8.6,0,0,1,2.943,1.766c.474.5.822,1.119,1.328,1.591a11.475,11.475,0,0,0,2.386,1.408,4.287,4.287,0,0,1,.452.289,5.135,5.135,0,0,1,.866.822h0c1.049,1.238,1.673,2.909,2.831,4.14a16.9,16.9,0,0,1,2.4,3.25c.109.2.215.393.319.594q.26.5.483,1.016c.038.088.076.173.111.265a15.885,15.885,0,0,1,.57,1.588,10.276,10.276,0,0,0,1.527,3.768,18.888,18.888,0,0,0,2.166,1.84,3.832,3.832,0,0,1,1.053,1.432A2.047,2.047,0,0,1,174.46,491.605Z" transform="translate(-118.724 -395.819)" fill="#fdb59c"/>
    <path id="Path_853" data-name="Path 853" d="M182.768,483.091q-.3.376-.611.741c-.035.045-.073.088-.111.132a33.07,33.07,0,0,1-6.209,5.629c-1.423.994-2.924,1.875-4.422,2.755l-2.77,1.622a17.155,17.155,0,0,1-3.617,1.757c-.412.123-.843.222-1.264.338-.074-.111-.145-.223-.22-.334-.509-.779-1.016-1.558-1.538-2.312l-2.85-1.335a16.692,16.692,0,0,0,4.131-3.7,44.89,44.89,0,0,0,4.375-6.988,5.253,5.253,0,0,0,.538-1.247,4.286,4.286,0,0,0-.185-2.2,11.6,11.6,0,0,0-4.64-6.256,21.932,21.932,0,0,0-5.094-2.28,8.573,8.573,0,0,0-3.832-.663,8.416,8.416,0,0,1,.847-.819,1.509,1.509,0,0,1,1.229-.426c.476.068.928.137,1.385.216.926.284,1.837.623,2.743.973a12.853,12.853,0,0,1,1.731.784,15.491,15.491,0,0,1,1.595,1.117,39.859,39.859,0,0,0,4.73,3.1c1.9,1.051,3.9,1.9,5.9,2.77a1.569,1.569,0,0,0,.684.173.537.537,0,0,0,.519-.405.653.653,0,0,0-.083-.362,3.61,3.61,0,0,0-1.844-1.409,44.653,44.653,0,0,1-8.121-5.532.815.815,0,0,1-.163-.173l.443-.1a66.051,66.051,0,0,0,9.082,5.475q.251.128.5.249c.121.061.241.119.364.173h0a7.75,7.75,0,0,1,2.35,1.558,7.174,7.174,0,0,1,1.039,1.577,29.641,29.641,0,0,1,1.808,4.155.955.955,0,0,0,.033.09,1.6,1.6,0,0,0,.319.594.672.672,0,0,0,.182.144C182.053,482.866,182.5,482.845,182.768,483.091Z" transform="translate(-131.853 -397.705)" fill="#181d21" opacity="0.06"/>
    <path id="Path_854" data-name="Path 854" d="M166.056,466.385a65.873,65.873,0,0,0,9.081,5.473l.5.251a8.971,8.971,0,0,1,2.715,1.731,7.226,7.226,0,0,1,1.039,1.579,29.355,29.355,0,0,1,1.806,4.155,1.405,1.405,0,0,0,.535.828c.294.163.762.151,1.023.4-.235.294-.474.585-.722.866a33.022,33.022,0,0,1-6.209,5.631c-1.423.994-2.924,1.875-4.422,2.755l-2.77,1.622a17.231,17.231,0,0,1-3.617,1.756c-.483.147-.994.258-1.484.4-.509-.779-1.016-1.558-1.538-2.311l-3.224-1.51a16.227,16.227,0,0,0,4.5-3.923,44.793,44.793,0,0,0,4.375-6.986,5.281,5.281,0,0,0,.538-1.247,4.293,4.293,0,0,0-.185-2.2,11.6,11.6,0,0,0-4.628-6.238,22,22,0,0,0-5.094-2.28,8.572,8.572,0,0,0-3.832-.661,8.621,8.621,0,0,1,.847-.821,1.514,1.514,0,0,1,1.229-.424c.476.068.928.137,1.385.215.926.286,1.837.625,2.743.975a12.643,12.643,0,0,1,1.731.784,15.51,15.51,0,0,1,1.595,1.117,39.827,39.827,0,0,0,4.737,3.092c1.9,1.053,3.9,1.913,5.9,2.77a1.567,1.567,0,0,0,.684.173.533.533,0,0,0,.519-.405.649.649,0,0,0-.083-.36,3.6,3.6,0,0,0-1.844-1.409,44.343,44.343,0,0,1-8.121-5.541.767.767,0,0,1-.163-.173Z" transform="translate(-131.853 -395.819)" fill="#667fab"/>
    <ellipse id="Ellipse_112" data-name="Ellipse 112" cx="10.868" cy="10.868" rx="10.868" ry="10.868" transform="translate(47.594 58.229)" fill="#667fab"/>
    <path id="Path_855" data-name="Path 855" d="M394.233,556.884a23.322,23.322,0,0,0,5.887-2.459,34.76,34.76,0,0,0,3.477-2.853c.857-.734,1.751-1.427,2.537-2.237a26.442,26.442,0,0,0,1.974-2.393q2.085-2.729,4.306-5.354a8.645,8.645,0,0,1,2.744-2.4c1.972-.926,4.287-.3,6.368.334a59.229,59.229,0,0,1,9.133,3.411c1.659.826,3.266,1.747,4.94,2.538a69.888,69.888,0,0,0,9.549,3.425,1.212,1.212,0,0,0,.762.062,1.121,1.121,0,0,0,.452-.378,6.451,6.451,0,0,0,1-1.731.332.332,0,0,0-.081-.448,23.09,23.09,0,0,0-4.862-3.139c-1.337-.763-2.616-1.621-3.894-2.478a21.307,21.307,0,0,1-3.5-2.711c-.519-.535-.987-1.125-1.55-1.614a12.981,12.981,0,0,0-1.576-1.1,63.309,63.309,0,0,1-7.05-5.224c-1.693-1.447-3.08-3.312-4.89-4.611a5.69,5.69,0,0,0-3.759-1.377c-1.652.173-2.871,1.558-4.022,2.753-3.87,4.019-8.753,6.895-13.071,10.428-3.525,2.881-6.82,6.3-11.114,7.824.192.637.26,1.274.454,1.9a19.887,19.887,0,0,0,.9,2.57,20.2,20.2,0,0,0,1.2,2.147l1.721,2.81a7.106,7.106,0,0,0,1.2,1.605C393.74,556.432,394.233,556.522,394.233,556.884Z" transform="translate(-324.965 -444.532)" fill="#464353"/>
    <path id="Path_856" data-name="Path 856" d="M394.233,556.884a23.322,23.322,0,0,0,5.887-2.459,34.76,34.76,0,0,0,3.477-2.853c.857-.734,1.751-1.427,2.537-2.237a26.442,26.442,0,0,0,1.974-2.393q2.085-2.729,4.306-5.354a8.645,8.645,0,0,1,2.744-2.4c1.972-.926,4.287-.3,6.368.334a59.229,59.229,0,0,1,9.133,3.411c1.659.826,3.266,1.747,4.94,2.538a69.888,69.888,0,0,0,9.549,3.425,1.212,1.212,0,0,0,.762.062,1.121,1.121,0,0,0,.452-.378,6.451,6.451,0,0,0,1-1.731.332.332,0,0,0-.081-.448,23.09,23.09,0,0,0-4.862-3.139c-1.337-.763-2.616-1.621-3.894-2.478a21.307,21.307,0,0,1-3.5-2.711c-.519-.535-.987-1.125-1.55-1.614a12.981,12.981,0,0,0-1.576-1.1,63.309,63.309,0,0,1-7.05-5.224c-1.693-1.447-3.08-3.312-4.89-4.611a5.69,5.69,0,0,0-3.759-1.377c-1.652.173-2.871,1.558-4.022,2.753-3.87,4.019-8.753,6.895-13.071,10.428-3.525,2.881-6.82,6.3-11.114,7.824.192.637.26,1.274.454,1.9a19.887,19.887,0,0,0,.9,2.57,20.2,20.2,0,0,0,1.2,2.147l1.721,2.81a7.106,7.106,0,0,0,1.2,1.605C393.74,556.432,394.233,556.522,394.233,556.884Z" transform="translate(-324.965 -444.532)" fill="#181d21" opacity="0.06"/>
    <path id="Path_857" data-name="Path 857" d="M690.822,666.177a2.29,2.29,0,0,1,.346,1.9,3.323,3.323,0,0,0,2.123.625,6.672,6.672,0,0,0,2.2-.5,7.31,7.31,0,0,0,1.7-.893,7.6,7.6,0,0,0,2.086-2.616c.293-.545.542-1.254.164-1.745a1.629,1.629,0,0,0-.519-.4,30.921,30.921,0,0,0-4.147-1.976,3.094,3.094,0,0,0-1.254-.282,2.69,2.69,0,0,0-1.439.648,7.791,7.791,0,0,0-2.235,2.77c-.163.346-.655,1.17-.412,1.527.111.165.519.222.693.324A2.242,2.242,0,0,1,690.822,666.177Z" transform="translate(-574.153 -557.123)" fill="#fbbebe"/>
    <path id="Path_858" data-name="Path 858" d="M699.905,670.615c2.93.545,5.624,1.96,8.5,2.724a28.244,28.244,0,0,1,3.479.973,4.735,4.735,0,0,1,2.642,2.334,6.705,6.705,0,0,1,.4,1.648,2.365,2.365,0,0,1-2.54,3.292c-3.044.364-6.088.725-9.142.982a16.341,16.341,0,0,0-1.841.22c-.5.1-.992.253-1.491.371-.644.152-1.3.246-1.957.346a20.2,20.2,0,0,1-5.049.3,2.354,2.354,0,0,1-1.964-1.025,2.616,2.616,0,0,1-.173-1.129c0-1.027-.017-2.055,0-3.082a6.989,6.989,0,0,1,.545-3.089,1.233,1.233,0,0,1,.625-.649,1.433,1.433,0,0,1,.537-.048,6.342,6.342,0,0,1,2.637.471c.639.317,1.1-.63,1.75-.346,1.235.545.4-1.108,1.645-.594.291-.9,1.527-.364,1.312-1.283s.556-.519.467-1.465a1.767,1.767,0,0,0-.118-.6C700.078,670.773,700.109,670.586,699.905,670.615Z" transform="translate(-575.308 -565.658)" fill="#464353"/>
    <path id="Path_859" data-name="Path 859" d="M159.961,333.269a4.306,4.306,0,0,1-2.287.3,14.212,14.212,0,0,0-2.048.106,1.933,1.933,0,0,0-.7.187,1.763,1.763,0,0,0-.654.764,5.411,5.411,0,0,0-.552,1.7,3.9,3.9,0,0,1-.5,1.924c-.566.719-1.449.608-2.251.75a6.061,6.061,0,0,0-1.976.755,4.881,4.881,0,0,0-2.289,3.361c-.022.158-.038.313-.045.471-.017.447.028.9-.031,1.34a2.331,2.331,0,0,1-.066.324.691.691,0,0,1-.029.092c-.026-.2-.055-.4-.09-.6a8.838,8.838,0,0,1-1.361-1.789,1.331,1.331,0,0,1-.241-.381,10.171,10.171,0,0,1-.944-4.057,8.891,8.891,0,0,1,16.07-5.246Z" transform="translate(-123.121 -283.709)" fill="#181d21" opacity="0.06"/>
    <path id="Path_860" data-name="Path 860" d="M106.091,310.883a5.42,5.42,0,0,0-2.351-2.334,12.8,12.8,0,0,0-6.32-1.879,19.094,19.094,0,0,0-6.467,1.234,11.146,11.146,0,0,0-4.3,3.172,4.316,4.316,0,0,0-.719.116,7.242,7.242,0,0,0-2.564,1.34,8.163,8.163,0,0,0-1.707,1.667,7.164,7.164,0,0,0-1.151,2.706c-.66,3.04.152,6.178.748,9.23s.944,6.387-.519,9.13c-.552,1.039-1.337,1.922-1.925,2.933a4.359,4.359,0,0,0-.646,3.35c.4,1.364,1.738,2.23,2.438,3.458a4.156,4.156,0,0,1-.809,4.973,4.008,4.008,0,0,0,3.314-.639,5.856,5.856,0,0,0,1.951-1.851c1.245-2.015.693-4.618,1.125-6.947.577-3.047,2.9-5.766,2.583-8.851-.216-2.078-1.588-3.8-2.666-5.582a21.876,21.876,0,0,1-1.806-3.745,5.655,5.655,0,0,1-.455-2.905,3.912,3.912,0,0,1,.272-.866v.1a6.633,6.633,0,0,0,.592,2.6c1.288,2.632,4.718,3.6,6.171,6.145a4.1,4.1,0,0,0,1.039-1.55,7.115,7.115,0,0,0,.1-1.666,4.826,4.826,0,0,1,2.334-3.83,6,6,0,0,1,1.976-.753c.8-.144,1.683-.035,2.251-.753a3.9,3.9,0,0,0,.5-1.922,5.378,5.378,0,0,1,.552-1.7,1.747,1.747,0,0,1,.654-.762,1.9,1.9,0,0,1,.706-.187,14.193,14.193,0,0,1,2.047-.106,4.248,4.248,0,0,0,2.317-.317A2.445,2.445,0,0,0,106.091,310.883Z" transform="translate(-68.681 -264.731)" fill="#464353"/>
    <path id="Path_861" data-name="Path 861" d="M746.44,255.311v.071c-.313,2.7-2.911,2.576-3.517,6.832-.239,1.667-2.77,1.976-4.434,2.424-.719-.242-1.446-.452-2.164-.713-1.662-.6-.5-1.5.211-2.473,2.329-3.175,2.77-7.515,5.414-10.432a9.75,9.75,0,0,0,4.377,4.233A.626.626,0,0,0,746.44,255.311Z" transform="translate(-612.275 -218.716)" fill="#181d21" opacity="0.06"/>
    <path id="Path_862" data-name="Path 862" d="M695.355,214.952a11.013,11.013,0,0,1-.069,1.226,10.868,10.868,0,1,1,.069-1.226Z" transform="translate(-561.13 -179.907)" fill="#a1616a"/>
    <path id="Path_863" data-name="Path 863" d="M769.9,273.846a8.46,8.46,0,0,1,3.591.907,72.109,72.109,0,0,1,13.23,6.621,72.891,72.891,0,0,1,5.728,4.535l7.634,6.486a27.627,27.627,0,0,1,4.121,4.026,27.339,27.339,0,0,1,1.893,2.944l1.133,1.931a17.324,17.324,0,0,1,1.212,2.363c.582,1.491.8,3.229,1.972,4.318a11.452,11.452,0,0,0,2.836,1.513,2.959,2.959,0,0,1,1.889,2.408,4.55,4.55,0,0,1-.734,1.939,7.775,7.775,0,0,0-.79,4.213l-12.484-9.54a4.242,4.242,0,0,0-1.628-.9,4.429,4.429,0,0,0-2.367.4,45.891,45.891,0,0,1-18.823,2.474,19.774,19.774,0,0,1-8.154-2.109,25.287,25.287,0,0,1-3.774-2.77,46.25,46.25,0,0,1-4.329-3.944,2.789,2.789,0,0,1-.795-1.316,4.362,4.362,0,0,1,.047-1.122c.218-2.627-1.964-4.813-2.628-7.364a6.753,6.753,0,0,1,2.114-6.7c1.487,1.3,1.434,3.589,1.261,5.558-.234,2.651.507,3.965.273,6.618.942-.035.771.571,1.172-.282a7.9,7.9,0,0,0,.556-2.757q.417-5.1,1.013-10.184c.2-1.7.422-3.387.639-5.08a7,7,0,0,1,.658-2.907A4.458,4.458,0,0,1,769.9,273.846Z" transform="translate(-631.3 -237.585)" fill="#faba66"/>
    <path id="Path_864" data-name="Path 864" d="M804.066,291.194a4.23,4.23,0,0,1,2.443.216q2.112.627,4.2,1.325a11.386,11.386,0,0,1,3.253,1.5,17.8,17.8,0,0,1,3.842,5.078,12.161,12.161,0,0,1,.693,3.439,4.509,4.509,0,0,1-.019,1.518,3.688,3.688,0,0,1-.836,1.46,9.985,9.985,0,0,1-2.054,1.841,19.217,19.217,0,0,1-6.9,2.447,45.416,45.416,0,0,1-6.484,1,2.684,2.684,0,0,1-2.357-.672,2.653,2.653,0,0,1-.346-.682,25.826,25.826,0,0,1-1.622-10.6,7.814,7.814,0,0,1,.3-1.943,13.919,13.919,0,0,1,3.144-4.82,6.64,6.64,0,0,1,4.182-1.084" transform="translate(-663.838 -251.845)" fill="#a1616a"/>
    <path id="Path_865" data-name="Path 865" d="M755.679,320.57a2.876,2.876,0,0,0-1,2.163c-.369,3.475,1.065,6.915.97,10.408a24.036,24.036,0,0,1-2.133,8.015,47.709,47.709,0,0,0-3,13.928c-.352,4.729-.866,9.653-3.4,13.653-.577.906-1.248,1.747-1.813,2.658-.592.952-1.061,1.974-1.584,2.964a31.9,31.9,0,0,1-5.887,7.908,8.124,8.124,0,0,1-2.31,1.719,4.651,4.651,0,0,1-3.612.038,3.452,3.452,0,0,1-2.23-2.876,5.121,5.121,0,0,1,1.326-3.1,50.85,50.85,0,0,1,7.965-8.443,4.585,4.585,0,0,0,1.385-1.57,7.024,7.024,0,0,0,.225-2.4,21.118,21.118,0,0,1,.866-3.771c1.212-5.106-.942-10.681.81-15.628a15.742,15.742,0,0,0,1.1-3.309,3.152,3.152,0,0,0-.611-2.324,3.065,3.065,0,0,1-.751-1.967,3.388,3.388,0,0,1,.019-.441,47.737,47.737,0,0,0,.306-6.817,15.981,15.981,0,0,0-1.615-6.58,18.7,18.7,0,0,1-1.583-3.158,8,8,0,0,1,.764-5.541,9.666,9.666,0,0,1,2.637-3.572,7.064,7.064,0,0,1,7.811-.5,11.534,11.534,0,0,1,3.932,4.613C754.96,317.957,755.7,319.071,755.679,320.57Z" transform="translate(-607.475 -268.381)" fill="#181d21" opacity="0.06"/>
    <path id="Path_866" data-name="Path 866" d="M757.958,320.57a2.876,2.876,0,0,0-1,2.163c-.369,3.475,1.065,6.915.97,10.408a24.038,24.038,0,0,1-2.133,8.015,47.766,47.766,0,0,0-3,13.928c-.353,4.729-.866,9.653-3.4,13.652-.577.906-1.247,1.747-1.813,2.658-.59.952-1.061,1.974-1.584,2.964a31.935,31.935,0,0,1-5.887,7.908,8.133,8.133,0,0,1-2.312,1.719,4.651,4.651,0,0,1-3.612.038,3.453,3.453,0,0,1-2.228-2.876,5.1,5.1,0,0,1,1.326-3.1,50.833,50.833,0,0,1,7.965-8.443,4.566,4.566,0,0,0,1.385-1.57,6.975,6.975,0,0,0,.225-2.4,21.118,21.118,0,0,1,.866-3.771c1.212-5.106-.942-10.681.81-15.628a15.748,15.748,0,0,0,1.106-3.309,3.161,3.161,0,0,0-.611-2.324,3.046,3.046,0,0,1-.772-1.967,3.41,3.41,0,0,1,.019-.442,47.977,47.977,0,0,0,.3-6.817,15.98,15.98,0,0,0-1.615-6.58,18.691,18.691,0,0,1-1.582-3.158,8,8,0,0,1,.763-5.541,9.686,9.686,0,0,1,2.637-3.572,7.064,7.064,0,0,1,7.811-.5,11.534,11.534,0,0,1,3.932,4.613A7.933,7.933,0,0,1,757.958,320.57Z" transform="translate(-609.359 -268.381)" fill="#a1616a"/>
    <path id="Path_867" data-name="Path 867" d="M982.589,627l-.149.045" transform="translate(-816.48 -529.597)" fill="#464353"/>
    <path id="Path_868" data-name="Path 868" d="M808.15,670.793a1.28,1.28,0,0,1,.031-.173" transform="translate(-672.367 -565.664)" fill="#464353"/>
    <path id="Path_869" data-name="Path 869" d="M1004.175,595.082a3.834,3.834,0,0,1,2.007-1.027,20.153,20.153,0,0,1,3.636-.592,6.8,6.8,0,0,1,2.279.14,2.936,2.936,0,0,1,1.811,1.309,4.551,4.551,0,0,1,.426,1.962,17.949,17.949,0,0,1-.055,4.135c-.147.866-.423,1.7-.6,2.563-.578,2.815-.076,5.729-.128,8.6a4.447,4.447,0,0,1-.31,1.8,5,5,0,0,1-1.254,1.482,7.954,7.954,0,0,1-1.712,1.283,7.369,7.369,0,0,1-3.1.589,4.749,4.749,0,0,1-1.9-.216,1.774,1.774,0,0,1-1.172-1.416c-.069-1.1,1.167-1.813,1.52-2.852a3.1,3.1,0,0,0-.488-2.495,7.9,7.9,0,0,0-2.963-2.866,6.279,6.279,0,0,1-1.314-.81,1.393,1.393,0,0,1-.473-1.385,1.653,1.653,0,0,1,1.5-.924,5.145,5.145,0,0,0,1.827-.289,2.5,2.5,0,0,0,1.077-1.212,4.5,4.5,0,0,0,.2-3.388,4.159,4.159,0,0,0-.644-1.172c-.26-.332-.793-.613-.978-.977C1003.022,596.668,1003.733,595.6,1004.175,595.082Z" transform="translate(-831.27 -501.835)" fill="#1c2137"/>
    <path id="Path_870" data-name="Path 870" d="M835.393,429.115c-2.86-2.528-6.848-3.215-10.588-3.982q-2.89-.59-5.752-1.316a21.454,21.454,0,0,0-3.809-.746,6.453,6.453,0,0,0-3.747.755,3.847,3.847,0,0,0-1.957,3.153c0,.519.123,1.029.085,1.543a8.021,8.021,0,0,1-.833,2.332,6.129,6.129,0,0,0-.209,3.837c.554,2.021,2.15,3.8,2.012,5.887a39.443,39.443,0,0,0,.558,10.562c.717,3.42,1.612,6.855,1.591,10.354s-1.08,7.179-3.693,9.509a14.272,14.272,0,0,0,6.29,3.437c2.014.5,4.408.454,5.842-1.048a1.615,1.615,0,0,0,.538-1.285,2.51,2.51,0,0,0-.372-.84,8.435,8.435,0,0,1-.429-5.91,48.807,48.807,0,0,0,1.371-5.9c.139-1.46-.017-2.944.262-4.384.215-1.1.679-2.142.957-3.231.822-3.231-.042-6.623-.9-9.842a11.171,11.171,0,0,0,3.484,4.065c2.133,1.7,4.713,3.2,7.425,2.9a8.846,8.846,0,0,0,5.887-3.917c.012-2.277.8-4.429.661-6.7a17,17,0,0,0-.533-2.952,14.66,14.66,0,0,0-1.039-3.163C837.831,430.919,836.5,430.09,835.393,429.115Z" transform="translate(-672.55 -360.96)" fill="#181d21" opacity="0.06"/>
    <path id="Path_871" data-name="Path 871" d="M838.827,429.115c-2.86-2.528-6.846-3.215-10.588-3.982q-2.89-.59-5.75-1.316a21.484,21.484,0,0,0-3.809-.746,6.451,6.451,0,0,0-3.745.755,3.843,3.843,0,0,0-1.956,3.153c0,.519.121,1.029.083,1.543a8.235,8.235,0,0,1-.833,2.332,6.129,6.129,0,0,0-.208,3.837c.552,2.021,2.149,3.8,2.012,5.887a39.372,39.372,0,0,0,.556,10.562c.717,3.42,1.612,6.855,1.591,10.354s-1.087,7.167-3.7,9.494a14.282,14.282,0,0,0,6.29,3.437c2.014.5,4.41.454,5.842-1.048a1.616,1.616,0,0,0,.538-1.285,2.511,2.511,0,0,0-.372-.84,8.435,8.435,0,0,1-.429-5.91,49.125,49.125,0,0,0,1.373-5.9c.137-1.46-.019-2.943.261-4.384.213-1.1.679-2.142.956-3.231.822-3.231-.04-6.623-.9-9.842a11.16,11.16,0,0,0,3.485,4.065c2.133,1.7,4.711,3.2,7.423,2.9a8.846,8.846,0,0,0,5.887-3.917c.01-2.277.8-4.429.66-6.7a17.01,17.01,0,0,0-.533-2.952,14.56,14.56,0,0,0-1.039-3.163C841.275,430.919,839.931,430.09,838.827,429.115Z" transform="translate(-675.391 -360.96)" fill="#a1616a"/>
    <path id="Path_872" data-name="Path 872" d="M747.975,687.1a10.81,10.81,0,0,1-3.222-3.018,8.5,8.5,0,0,0-.97-1.271,1.873,1.873,0,0,0-1.437-.591,2.34,2.34,0,0,0-1.463.99c-1.022,1.266-1.679,2.814-2.814,3.982a10.289,10.289,0,0,1-4.959,2.542c-1.823.464-3.705.708-5.492,1.3a2.5,2.5,0,0,0-1.454.94,2.1,2.1,0,0,0,.232,2.133,6.257,6.257,0,0,0,3.371,2.457,30.51,30.51,0,0,0,4.156.923c2.469.483,5,1.257,7.456.712.98-.218,1.9-.641,2.9-.824,2.251-.419,4.573.428,6.832.088a10.694,10.694,0,0,0,3.117-1.093,4.293,4.293,0,0,0,1.333-.906,1.632,1.632,0,0,0,.431-1.491,6.01,6.01,0,0,0-.41-.835,4.291,4.291,0,0,1-.294-1.406,38.532,38.532,0,0,0-.949-5.416,2.205,2.205,0,0,0-.964-1.586.52.52,0,0,0-.386-.043c-.206.078-.273.327-.336.537a3.3,3.3,0,0,1-5.745,1.139" transform="translate(-604.409 -575.247)" fill="#1c2137"/>
    <path id="Path_873" data-name="Path 873" d="M698.226,214.961a11,11,0,0,1-.069,1.226,3.506,3.506,0,0,1-3.013-1c-.365-.388-.639-.857-1-1.248a1.527,1.527,0,0,0-2.516-.036,3.682,3.682,0,0,0-.843,1.491,2.033,2.033,0,0,1-.5,1.1,1.577,1.577,0,0,1-1.112.23,3.315,3.315,0,0,1-1.461-.277c-.831-.448-1.112-1.475-1.42-2.369-.519-1.5-1.688-4.341-3.5-4.644a3.838,3.838,0,0,0-2.6.807,4.651,4.651,0,0,1-3.1,1.2h0a10.87,10.87,0,0,1,21.153,3.518Z" transform="translate(-564 -179.916)" fill="#181d21" opacity="0.06"/>
    <path id="Path_874" data-name="Path 874" d="M666.237,183.216a2.613,2.613,0,0,1-.918-.145,2.476,2.476,0,0,1-1.319-2.2,9.841,9.841,0,0,1,.805-4.01,1.328,1.328,0,0,1,.466-.743,1.617,1.617,0,0,1,.656-.164,6.209,6.209,0,0,0,3.24-1.785,26.479,26.479,0,0,1,2.77-2.528,7.409,7.409,0,0,1,9.1.788c.931.914,1.731,2.154,3.023,2.369a10.889,10.889,0,0,1,2.251.144,2.657,2.657,0,0,1,1.188,1.131,11.219,11.219,0,0,1,1.57,5.106,33.345,33.345,0,0,1-.128,5.387,1.406,1.406,0,0,1-.2.764,1.165,1.165,0,0,1-.407.312,3.5,3.5,0,0,1-4.033-.679c-.367-.386-.639-.855-1-1.248a1.528,1.528,0,0,0-2.516-.035,3.685,3.685,0,0,0-.843,1.491,2.008,2.008,0,0,1-.5,1.1,1.589,1.589,0,0,1-1.113.232,3.312,3.312,0,0,1-1.46-.279c-.833-.447-1.113-1.473-1.42-2.367-.519-1.5-1.686-4.342-3.5-4.644a3.829,3.829,0,0,0-2.6.807A4.717,4.717,0,0,1,666.237,183.216Z" transform="translate(-553.163 -152.086)" fill="#464353"/>
    <path id="Path_875" data-name="Path 875" d="M270.96,609.295c-.12.79-.843,1.406-1.354,2.019-1.389,1.676-2.8,3.357-4.349,4.891a68.065,68.065,0,0,1-5.31,4.562l-2.365,1.893a2.978,2.978,0,0,1-1.006.606,1.837,1.837,0,0,1-1.3-.154c.035-.069.071-.133.111-.2l2.836-4.753c.558-.932.923-1.78,1.558-2.654a26.458,26.458,0,0,1,3.1-3.735,26.869,26.869,0,0,1,5.175-3.439,1.486,1.486,0,0,1,2.055-.618,2.565,2.565,0,0,1,.715.549A2.046,2.046,0,0,1,270.96,609.295Z" transform="translate(-215.225 -513.509)" fill="#181d21" opacity="0.06"/>
    <path id="Path_876" data-name="Path 876" d="M258.955,549.942l-2.836,4.755a.672.672,0,0,0,.161,1.077c1.087.885,2.292,1.818,2.634,3.177.244.97,0,2.008.218,2.981.4,1.756,2.164,2.822,3.833,3.5a21.7,21.7,0,0,0,11.866,1.385,17.387,17.387,0,0,0,10.318-5.842c.79-.956,1.465-2,2.215-2.989a47.48,47.48,0,0,1,7.331-7.182c3.368-2.853,5.352-7.109,8.311-10.389a4.149,4.149,0,0,1,1.9-1.409c.433-.109,1.039.052,1.056.5a5.056,5.056,0,0,0,1.212,2.3c1.794,2.743,3.671,5.57,6.443,7.319a20.5,20.5,0,0,0,4.95,2.078c4.346,1.354,8.777,2.424,13.2,3.484a7.406,7.406,0,0,1,.8-1.262c.459-.563,1.063-.992,1.524-1.558a8.224,8.224,0,0,0,1.409-3.664c-2.644-1.619-5.357-3.29-7.965-4.973a18.8,18.8,0,0,1-3.7-2.852c-.693-.752-1.274-1.612-1.969-2.369a20.092,20.092,0,0,0-2.289-2.031l-6.233-4.992c-1.79-1.432-3.615-2.944-5.368-4.426a4.374,4.374,0,0,0-6.432-.628q-8.359,5.006-16.968,9.561c-1.162.613-2.329,1.222-3.437,1.927a23.166,23.166,0,0,0-5.665,5.087c-.293.365-.663.781-1.127.725a1.014,1.014,0,0,1-.362-.126,4.415,4.415,0,0,1-1.558-1.823,4.225,4.225,0,0,0-1.583-1.8,1.486,1.486,0,0,0-2.055.62,28.186,28.186,0,0,0-5.179,3.459,26.35,26.35,0,0,0-3.1,3.735C259.878,548.164,259.511,549.012,258.955,549.942Z" transform="translate(-215.755 -445.094)" fill="#464353"/>
    <path id="Path_877" data-name="Path 877" d="M246.61,502.52a34.894,34.894,0,0,1,4.9,2.694" transform="translate(-208.056 -426.67)" fill="#181d21" opacity="0.06"/>
    <path id="Path_878" data-name="Path 878" d="M966.071,459.224c.052,1.615.093,3.234.074,4.848a5.284,5.284,0,0,1-.457,2.5,5.433,5.433,0,0,1-1.212,1.371l-2.852,2.585a6.356,6.356,0,0,1-3.018,1.837c-1.349.229-2.666-.428-3.963-.866a13.008,13.008,0,0,0-4.052-.68,14.972,14.972,0,0,1-2.365-.062,9.689,9.689,0,0,1-1.652-.469L944,469.391c.073-.649.693-1.063,1.212-1.473,1.844-1.5,2.653-3.9,3.234-6.2a36.986,36.986,0,0,0,1.008-5.473,8.986,8.986,0,0,0-.064-2.743,10.92,10.92,0,0,0-.762-2.1l-.906-2.041c-.519-1.153-1.558-1.666-2.616-2.346,1.6.606,3.542.843,4.756,2.045a3.151,3.151,0,0,0,.821.665,3.887,3.887,0,0,0,1.068.232,11.839,11.839,0,0,1,4.824,2.45q2.734,1.925,5.62,3.617a13.214,13.214,0,0,1,2.488,1.7,4.013,4.013,0,0,1,1.347,2.625" transform="translate(-784.696 -380.771)" fill="#464353"/>
    <path id="Path_879" data-name="Path 879" d="M158.819,444.2c-2.27.448-3.451,3.117-3.317,5.425a8.83,8.83,0,0,0,2.393,5.515c.947,1,2.128,1.764,2.983,2.84,1.264,1.586,1.7,3.683,2.834,5.368a14.622,14.622,0,0,0,3.117,3.1q3.958,3.158,8.174,5.979a6.825,6.825,0,0,0,3.768,1.506,4.7,4.7,0,0,0,3.333-1.771,14.216,14.216,0,0,0,1.934-3.356c1.977-4.311,3.969-8.669,4.914-13.317a17.224,17.224,0,0,1,1.157-4.3,20.87,20.87,0,0,1,1.974-2.867,19.778,19.778,0,0,0,3.338-7.459,9.621,9.621,0,0,0-.116-5.316,4.834,4.834,0,0,0-3.917-3.267,4.76,4.76,0,0,0-3.762,1.681,9.306,9.306,0,0,0-1.9,3.78,18.105,18.105,0,0,0-.623,6.06,20.716,20.716,0,0,1,.163,4.936,13.222,13.222,0,0,1-1.2,3.276,34.959,34.959,0,0,1-4.514,7.792,2.86,2.86,0,0,1-2.462,1.335c-1.333-.242-1.686-1.931-2.344-3.117-.807-1.454-2.337-2.329-3.537-3.484-1.707-1.645-2.731-3.851-3.944-5.887s-2.784-4.046-5.021-4.827-5.219.222-5.793,2.521" transform="translate(-132.714 -368.586)" fill="#181d21" opacity="0.06"/>
    <path id="Path_880" data-name="Path 880" d="M160.6,442.013c-2.272.448-5.163.741-5.021,3.053a8.813,8.813,0,0,0,2.393,5.515c.947,1,2.128,1.766,2.983,2.841,1.264,1.586,1.7,3.681,2.834,5.367a14.543,14.543,0,0,0,3.117,3.1q3.958,3.16,8.174,5.979a6.815,6.815,0,0,0,3.768,1.508,4.7,4.7,0,0,0,3.333-1.771,14.158,14.158,0,0,0,1.934-3.357c1.977-4.311,3.969-8.669,4.914-13.317a17.212,17.212,0,0,1,1.157-4.3,20.994,20.994,0,0,1,1.974-2.869,19.759,19.759,0,0,0,3.338-7.457,9.628,9.628,0,0,0-.116-5.317,4.834,4.834,0,0,0-3.917-3.267A4.766,4.766,0,0,0,187.7,429.4a9.292,9.292,0,0,0-1.9,3.782,18.1,18.1,0,0,0-.623,6.06,20.721,20.721,0,0,1,.163,4.936,13.209,13.209,0,0,1-1.2,3.278,35,35,0,0,1-4.514,7.792,2.865,2.865,0,0,1-2.462,1.335c-1.333-.244-1.686-1.932-2.344-3.117-.807-1.454-2.337-2.329-3.537-3.484-1.707-1.643-2.731-3.851-3.944-5.887s-2.784-4.045-5.021-4.827.564,4.23-.012,6.529" transform="translate(-132.78 -364.816)" fill="#181d21" opacity="0.06"/>
    <path id="Path_881" data-name="Path 881" d="M158.819,441.927c-2.27.448-3.451,3.117-3.317,5.425a8.831,8.831,0,0,0,2.393,5.516c.947,1,2.128,1.764,2.983,2.84,1.264,1.586,1.7,3.683,2.834,5.368a14.591,14.591,0,0,0,3.117,3.1q3.958,3.158,8.174,5.977a6.815,6.815,0,0,0,3.768,1.508,4.7,4.7,0,0,0,3.333-1.771,14.216,14.216,0,0,0,1.934-3.356c1.977-4.311,3.969-8.669,4.914-13.318a17.212,17.212,0,0,1,1.157-4.3,21,21,0,0,1,1.974-2.869,19.759,19.759,0,0,0,3.338-7.457,9.627,9.627,0,0,0-.116-5.317,4.829,4.829,0,0,0-3.917-3.266,4.755,4.755,0,0,0-3.762,1.681,9.306,9.306,0,0,0-1.9,3.78,18.106,18.106,0,0,0-.623,6.06,20.7,20.7,0,0,1,.163,4.935,13.209,13.209,0,0,1-1.2,3.278,34.959,34.959,0,0,1-4.514,7.792,2.865,2.865,0,0,1-2.462,1.335c-1.333-.244-1.686-1.931-2.344-3.117-.807-1.456-2.337-2.331-3.537-3.484-1.707-1.645-2.731-3.851-3.944-5.887s-2.784-4.045-5.021-4.826-5.219.222-5.793,2.521" transform="translate(-132.714 -366.708)" fill="#fdb59c"/>
    <g id="Group_132" data-name="Group 132" transform="translate(11.119 42.225)" opacity="0.06">
      <path id="Path_882" data-name="Path 882" d="M94.469,381.138a21.874,21.874,0,0,1-1.806-3.745l-.059-.173a5.609,5.609,0,0,1-.912-1.314,6.625,6.625,0,0,1-.592-2.6v-.1a3.911,3.911,0,0,0-.272.866,5.676,5.676,0,0,0,.455,2.905,21.936,21.936,0,0,0,1.806,3.745c1.075,1.8,2.448,3.529,2.661,5.591.32,3.085-2.007,5.8-2.582,8.851-.44,2.329.118,4.931-1.127,6.947a5.832,5.832,0,0,1-1.951,1.849,5.519,5.519,0,0,1-1.6.693,3.722,3.722,0,0,1-.332.346,4.009,4.009,0,0,0,3.314-.639,5.856,5.856,0,0,0,1.951-1.851c1.245-2.015.693-4.618,1.125-6.947.577-3.047,2.9-5.766,2.583-8.851C96.919,384.641,95.548,382.911,94.469,381.138Z" transform="translate(-88.16 -361.975)" fill="#181d21"/>
      <path id="Path_883" data-name="Path 883" d="M163.557,312.247a5.42,5.42,0,0,0-2.351-2.334,13.611,13.611,0,0,0-3.949-1.593,14.116,14.116,0,0,1,2.566,1.2,5.446,5.446,0,0,1,2.353,2.336,2.425,2.425,0,0,1-.738,3,4.265,4.265,0,0,1-2.317.317,13.93,13.93,0,0,0-2.047.1,1.968,1.968,0,0,0-.706.187,1.757,1.757,0,0,0-.654.77,5.381,5.381,0,0,0-.554,1.7,3.9,3.9,0,0,1-.5,1.922c-.564.719-1.448.609-2.251.751a6.061,6.061,0,0,0-1.976.755,4.816,4.816,0,0,0-2.334,3.83,7.1,7.1,0,0,1-.1,1.664,2.746,2.746,0,0,1-.45.866,5.906,5.906,0,0,1,.8,1.079,4.1,4.1,0,0,0,1.039-1.55,7.117,7.117,0,0,0,.1-1.666,4.826,4.826,0,0,1,2.334-3.83A6,6,0,0,1,153.8,321c.8-.144,1.683-.035,2.251-.753a3.894,3.894,0,0,0,.5-1.922,5.378,5.378,0,0,1,.552-1.7,1.747,1.747,0,0,1,.655-.762,1.9,1.9,0,0,1,.706-.187,14.175,14.175,0,0,1,2.047-.106,4.249,4.249,0,0,0,2.317-.317A2.442,2.442,0,0,0,163.557,312.247Z" transform="translate(-137.267 -308.32)" fill="#181d21"/>
    </g>
    <path id="Path_884" data-name="Path 884" d="M174.52,426.55s2.045,1.759,5.929.693C180.449,427.239,178.044,428.186,174.52,426.55Z" transform="translate(-148.448 -363.854)" fill="#181d21" opacity="0.06"/>
    <path id="Path_885" data-name="Path 885" d="M688.766,229.2a1.411,1.411,0,0,1-.208.758,1.157,1.157,0,0,1-.407.31,3.492,3.492,0,0,1-4.031-.677c-.367-.388-.639-.866-1-1.248a1.841,1.841,0,0,0-1.385-.675,1.817,1.817,0,0,0-1.131.639,3.749,3.749,0,0,0-.843,1.491,2.014,2.014,0,0,1-.5,1.1,1.578,1.578,0,0,1-1.113.23,3.278,3.278,0,0,1-1.46-.277c-.833-.447-1.113-1.475-1.422-2.367-.519-1.5-1.686-4.343-3.5-4.646a3.844,3.844,0,0,0-2.6.807,4.7,4.7,0,0,1-3.1,1.212,2.646,2.646,0,0,1-.918-.145,2.372,2.372,0,0,1-1.292-1.948,5.769,5.769,0,0,0-.029,1.134,2.485,2.485,0,0,0,1.321,2.2,2.648,2.648,0,0,0,.918.145,4.655,4.655,0,0,0,3.1-1.2,3.84,3.84,0,0,1,2.6-.807c1.809.294,2.987,3.134,3.5,4.635.308.893.589,1.922,1.422,2.369a3.3,3.3,0,0,0,1.46.277,1.633,1.633,0,0,0,1.113-.23,2.148,2.148,0,0,0,.5-1.1,3.735,3.735,0,0,1,.843-1.491,1.826,1.826,0,0,1,1.131-.639,1.763,1.763,0,0,1,1.385.675c.346.393.634.866,1,1.248a3.492,3.492,0,0,0,4.031.677,1.179,1.179,0,0,0,.407-.31,1.414,1.414,0,0,0,.208-.76,41.321,41.321,0,0,0,.173-4.387C688.918,227.192,688.844,228.194,688.766,229.2Z" transform="translate(-553.021 -196.176)" fill="#181d21" opacity="0.06"/>
    <path id="Path_886" data-name="Path 886" d="M85.112,658.185s.275-.306-.242-.428v-.5h.312a2.658,2.658,0,0,0-2.107-2.6v-.611h.081v-.795h-2v.795h.057v.618a2.659,2.659,0,0,0-2.078,2.6h.275v.483s-.656.31,0,.866.554.957.554.957-.275,1.039-.828,1.174v9.632a2.14,2.14,0,0,0,2.14,2.142h1.692a2.142,2.142,0,0,0,2.142-2.142V660.74s-.968-.726-.795-1.174A10.832,10.832,0,0,1,85.112,658.185Z" transform="translate(-69.562 -551.302)" fill="#464353"/>
  </g>
</svg>
