<svg id="undraw_drone_delivery_5vrm" xmlns="http://www.w3.org/2000/svg" xmlns:xlink="http://www.w3.org/1999/xlink" width="245.717" height="184.068" viewBox="0 0 245.717 184.068">
  <defs>
    <linearGradient id="linear-gradient" x1="0.5" y1="1" x2="0.5" gradientUnits="objectBoundingBox">
      <stop offset="0" stop-color="gray" stop-opacity="0.251"/>
      <stop offset="0.54" stop-color="gray" stop-opacity="0.122"/>
      <stop offset="1" stop-color="gray" stop-opacity="0.102"/>
    </linearGradient>
    <linearGradient id="linear-gradient-2" x1="0.454" y1="1" x2="0.454" y2="0" xlink:href="#linear-gradient"/>
    <linearGradient id="linear-gradient-3" x1="0.499" y1="1" x2="0.499" y2="0" xlink:href="#linear-gradient"/>
  </defs>
  <path id="Path_1831" data-name="Path 1831" d="M233.348,92.38V75.969H223.6V92.38H212.065V66.994H203.6V48.018h-6.924V28.53H182.32V48.018H175.4V66.994H167.19V44.172h-4.616V32.633h-2.821V44.172H143.343V117H130.778V109.3h-7.693V117H110.52V92.38H87.954V75.969H78.21V92.38H77.7v31.541H67.44V105.458H55.132v18.463H44.875V66.994H36.925V48.018H7.693V66.994H0V167.257H244.888V92.38Z" transform="translate(0 -21.217)" fill="#e7eaed"/>
  <rect id="Rectangle_496" data-name="Rectangle 496" width="10.77" height="6.154" transform="translate(4.872 51.675)" fill="#fff" opacity="0.4"/>
  <rect id="Rectangle_497" data-name="Rectangle 497" width="10.77" height="6.154" transform="translate(39.746 57.829) rotate(180)" fill="#fff" opacity="0.4"/>
  <rect id="Rectangle_498" data-name="Rectangle 498" width="10.77" height="6.154" transform="translate(4.872 63.727)" fill="#fff" opacity="0.4"/>
  <rect id="Rectangle_499" data-name="Rectangle 499" width="10.77" height="6.154" transform="translate(39.746 69.881) rotate(180)" fill="#fff" opacity="0.4"/>
  <rect id="Rectangle_500" data-name="Rectangle 500" width="10.77" height="6.154" transform="translate(4.872 75.779)" fill="#fff" opacity="0.4"/>
  <rect id="Rectangle_501" data-name="Rectangle 501" width="10.77" height="6.154" transform="translate(39.746 81.934) rotate(180)" fill="#fff" opacity="0.4"/>
  <rect id="Rectangle_502" data-name="Rectangle 502" width="10.77" height="6.154" transform="translate(4.872 87.831)" fill="#fff" opacity="0.4"/>
  <rect id="Rectangle_503" data-name="Rectangle 503" width="10.77" height="6.154" transform="translate(39.746 93.986) rotate(180)" fill="#fff" opacity="0.4"/>
  <rect id="Rectangle_504" data-name="Rectangle 504" width="10.77" height="6.154" transform="translate(4.872 99.883)" fill="#fff" opacity="0.4"/>
  <rect id="Rectangle_505" data-name="Rectangle 505" width="10.77" height="6.154" transform="translate(39.746 106.038) rotate(180)" fill="#fff" opacity="0.4"/>
  <rect id="Rectangle_506" data-name="Rectangle 506" width="10.77" height="6.154" transform="translate(4.872 111.935)" fill="#fff" opacity="0.4"/>
  <rect id="Rectangle_507" data-name="Rectangle 507" width="10.77" height="6.154" transform="translate(39.746 118.09) rotate(180)" fill="#fff" opacity="0.4"/>
  <rect id="Rectangle_508" data-name="Rectangle 508" width="10.77" height="6.154" transform="translate(4.872 123.988)" fill="#fff" opacity="0.4"/>
  <rect id="Rectangle_509" data-name="Rectangle 509" width="10.77" height="6.154" transform="translate(39.746 130.142) rotate(180)" fill="#fff" opacity="0.4"/>
  <rect id="Rectangle_510" data-name="Rectangle 510" width="25.13" height="3.077" transform="translate(48.721 108.858)" fill="#fff" opacity="0.4"/>
  <rect id="Rectangle_511" data-name="Rectangle 511" width="25.13" height="3.077" transform="translate(48.721 113.474)" fill="#fff" opacity="0.4"/>
  <rect id="Rectangle_512" data-name="Rectangle 512" width="25.13" height="3.077" transform="translate(48.721 118.09)" fill="#fff" opacity="0.4"/>
  <rect id="Rectangle_513" data-name="Rectangle 513" width="25.13" height="3.077" transform="translate(114.366 110.397)" fill="#fff" opacity="0.4"/>
  <rect id="Rectangle_514" data-name="Rectangle 514" width="25.13" height="3.077" transform="translate(114.366 115.013)" fill="#fff" opacity="0.4"/>
  <rect id="Rectangle_515" data-name="Rectangle 515" width="25.13" height="3.077" transform="translate(114.366 119.628)" fill="#fff" opacity="0.4"/>
  <rect id="Rectangle_516" data-name="Rectangle 516" width="25.13" height="3.077" transform="translate(48.721 122.705)" fill="#fff" opacity="0.4"/>
  <rect id="Rectangle_517" data-name="Rectangle 517" width="25.13" height="3.077" transform="translate(48.721 127.321)" fill="#fff" opacity="0.4"/>
  <rect id="Rectangle_518" data-name="Rectangle 518" width="25.13" height="3.077" transform="translate(48.721 131.937)" fill="#fff" opacity="0.4"/>
  <rect id="Rectangle_519" data-name="Rectangle 519" width="6.924" height="8.975" transform="translate(83.082 77.061)" fill="#fff" opacity="0.4"/>
  <rect id="Rectangle_520" data-name="Rectangle 520" width="6.924" height="8.975" transform="translate(105.135 86.036) rotate(180)" fill="#fff" opacity="0.4"/>
  <rect id="Rectangle_521" data-name="Rectangle 521" width="6.924" height="8.975" transform="translate(83.082 91.421)" fill="#fff" opacity="0.4"/>
  <rect id="Rectangle_522" data-name="Rectangle 522" width="6.924" height="8.975" transform="translate(105.135 100.396) rotate(180)" fill="#fff" opacity="0.4"/>
  <rect id="Rectangle_523" data-name="Rectangle 523" width="6.924" height="8.975" transform="translate(83.082 105.781)" fill="#fff" opacity="0.4"/>
  <rect id="Rectangle_524" data-name="Rectangle 524" width="6.924" height="8.975" transform="translate(105.135 114.756) rotate(180)" fill="#fff" opacity="0.4"/>
  <rect id="Rectangle_525" data-name="Rectangle 525" width="6.924" height="8.975" transform="translate(83.082 120.141)" fill="#fff" opacity="0.4"/>
  <rect id="Rectangle_526" data-name="Rectangle 526" width="6.924" height="8.975" transform="translate(105.135 129.116) rotate(180)" fill="#fff" opacity="0.4"/>
  <rect id="Rectangle_527" data-name="Rectangle 527" width="9.231" height="11.796" transform="translate(143.343 28.853)" fill="#fff" opacity="0.4"/>
  <rect id="Rectangle_528" data-name="Rectangle 528" width="9.231" height="11.796" transform="translate(143.343 45.777)" fill="#fff" opacity="0.4"/>
  <rect id="Rectangle_529" data-name="Rectangle 529" width="9.231" height="11.796" transform="translate(143.343 62.701)" fill="#fff" opacity="0.4"/>
  <rect id="Rectangle_530" data-name="Rectangle 530" width="9.231" height="11.796" transform="translate(143.343 79.626)" fill="#fff" opacity="0.4"/>
  <rect id="Rectangle_531" data-name="Rectangle 531" width="9.231" height="11.796" transform="translate(143.343 96.55)" fill="#fff" opacity="0.4"/>
  <rect id="Rectangle_532" data-name="Rectangle 532" width="9.231" height="11.796" transform="translate(143.343 113.474)" fill="#fff" opacity="0.4"/>
  <rect id="Rectangle_533" data-name="Rectangle 533" width="34.361" height="10.001" transform="translate(172.447 52.957)" fill="#fff" opacity="0.4"/>
  <rect id="Rectangle_534" data-name="Rectangle 534" width="34.361" height="10.001" transform="translate(172.575 74.497)" fill="#fff" opacity="0.4"/>
  <rect id="Rectangle_535" data-name="Rectangle 535" width="34.361" height="10.001" transform="translate(172.704 96.037)" fill="#fff" opacity="0.4"/>
  <rect id="Rectangle_536" data-name="Rectangle 536" width="34.361" height="10.001" transform="translate(172.832 117.577)" fill="#fff" opacity="0.4"/>
  <rect id="Rectangle_537" data-name="Rectangle 537" width="4.616" height="9.744" transform="translate(7.693 32.187)" fill="#fff" opacity="0.4"/>
  <rect id="Rectangle_538" data-name="Rectangle 538" width="11.539" height="14.873" transform="translate(233.348 77.061)" fill="#fff" opacity="0.4"/>
  <rect id="Rectangle_539" data-name="Rectangle 539" width="11.539" height="14.873" transform="translate(233.348 98.601)" fill="#fff" opacity="0.4"/>
  <rect id="Rectangle_540" data-name="Rectangle 540" width="11.539" height="14.873" transform="translate(233.348 120.141)" fill="#fff" opacity="0.4"/>
  <path id="Path_1832" data-name="Path 1832" d="M333.169,160.156h-1.764a1.236,1.236,0,1,0,0-2.469H317.114a1.236,1.236,0,0,0,0,2.469h1.764a1.236,1.236,0,1,0,0,2.469h-2.469a1.236,1.236,0,0,0,0,2.469H330.7a1.236,1.236,0,0,0,0-2.469h2.469a1.236,1.236,0,1,0,0-2.469Z" transform="translate(-265.298 -140.616)" fill="#252223" opacity="0.1"/>
  <path id="Path_1833" data-name="Path 1833" d="M578.843,281.156h-1.764a1.236,1.236,0,1,0,0-2.469H562.788a1.236,1.236,0,0,0,0,2.469h1.764a1.236,1.236,0,1,0,0,2.469h-2.469a1.236,1.236,0,1,0,0,2.469h14.291a1.236,1.236,0,1,0,0-2.469h2.469a1.236,1.236,0,1,0,0-2.469Z" transform="translate(-447.891 -230.588)" fill="#252223" opacity="0.1"/>
  <path id="Path_1834" data-name="Path 1834" d="M997.843,123.156h-1.764a1.236,1.236,0,1,0,0-2.469H981.788a1.236,1.236,0,0,0,0,2.469h1.764a1.236,1.236,0,1,0,0,2.469h-2.469a1.236,1.236,0,1,0,0,2.469h14.291a1.236,1.236,0,1,0,0-2.469h2.469a1.236,1.236,0,1,0,0-2.469Z" transform="translate(-759.448 -113.104)" fill="#252223" opacity="0.1"/>
  <path id="Path_1835" data-name="Path 1835" d="M670.1,92.282a46.445,46.445,0,0,0-6.464.39h0a1.551,1.551,0,0,0-3.1,0h0a46.446,46.446,0,0,0-6.465-.39c-4.782,0-8.662.513-8.662,1.164s3.877,1.164,8.662,1.164a46.445,46.445,0,0,0,6.465-.39h0a1.541,1.541,0,0,0,.1.546,1.026,1.026,0,0,0-.1,1.674,2.864,2.864,0,0,0-1.7,1.564,2.649,2.649,0,0,0-1.487-.541l-16.106-.718A6.293,6.293,0,0,0,636.2,94.22H626.056a6.293,6.293,0,0,0-5.072,2.564l-15.3.685a2.649,2.649,0,0,0-1.392.469,2.864,2.864,0,0,0-1.49-1.431,1.026,1.026,0,0,0-.244-1.844,1.54,1.54,0,0,0,.064-.444h0a46.443,46.443,0,0,0,6.465.39c4.782,0,8.662-.513,8.662-1.164s-3.877-1.164-8.662-1.164a46.446,46.446,0,0,0-6.465.39h0a1.539,1.539,0,0,0-1.539-1.539h0a1.539,1.539,0,0,0-1.539,1.539h0a46.444,46.444,0,0,0-6.465-.39c-4.782,0-8.662.513-8.662,1.164s3.877,1.164,8.662,1.164a46.443,46.443,0,0,0,6.465-.39h0a1.539,1.539,0,0,0,.1.546,1.026,1.026,0,0,0-.062,1.708,2.857,2.857,0,0,0-1.849,2.669v1.913a2.857,2.857,0,0,0,2.833,2.854h1.136a2.849,2.849,0,0,0,2.29-1.154,2.649,2.649,0,0,0,1.733.71l15,.421a6.332,6.332,0,0,0,1.859,1.895c-1.436,1.459-7.036,7.929-6.134,19.329,0,0,.905,1.68,3.231,0,0,0-1.487-12.7,6.839-17.935a2.067,2.067,0,0,0,1.951,1.387h1.064a5.559,5.559,0,1,0,4.08,0h1.064a2.067,2.067,0,0,0,1.951-1.387c8.326,5.231,6.839,17.934,6.839,17.934,2.326,1.68,3.231,0,3.231,0,1.026-13.057-6.464-19.647-6.464-19.647h-.136a6.336,6.336,0,0,0,1.405-1.554l15.791-.441a2.651,2.651,0,0,0,1.808-.769,2.852,2.852,0,0,0,2.344,1.226h1.136a2.857,2.857,0,0,0,2.857-2.857V99.156a2.856,2.856,0,0,0-1.692-2.608,1.026,1.026,0,0,0-.185-1.874,1.54,1.54,0,0,0,.064-.444h0a46.441,46.441,0,0,0,6.464.39c4.782,0,8.662-.513,8.662-1.164S674.887,92.282,670.1,92.282Z" transform="translate(-465.461 -91.12)" fill="url(#linear-gradient)"/>
  <path id="Path_4684" data-name="Path 4684" d="M5.241,0A5.241,5.241,0,1,1,0,5.241,5.241,5.241,0,0,1,5.241,0Z" transform="translate(160.88 17.081)" fill="#faba66"/>
  <circle id="Ellipse_392" data-name="Ellipse 392" cx="3.536" cy="3.536" r="3.536" transform="translate(162.585 18.786)" fill="#fe9d2b"/>
  <circle id="Ellipse_394" data-name="Ellipse 394" cx="2.316" cy="2.316" r="2.316" transform="translate(163.805 20.006)" fill="tomato"/>
  <circle id="Ellipse_395" data-name="Ellipse 395" cx="2.316" cy="2.316" r="2.316" transform="translate(163.805 20.006)" fill="#faba66"/>
  <path id="Path_1836" data-name="Path 1836" d="M718.538,147.733s-7.07,6.221-6.1,18.529c0,0,.854,1.585,3.049,0,0,0-1.828-15.606,10.362-18.532Z" transform="translate(-560.587 -133.214)" fill="#3d4862"/>
  <path id="Path_1837" data-name="Path 1837" d="M779.006,147.733s7.072,6.221,6.105,18.529c0,0-.854,1.585-3.049,0,0,0,1.828-15.606-10.362-18.532Z" transform="translate(-604.717 -133.214)" fill="#3d4862"/>
  <rect id="Rectangle_541" data-name="Rectangle 541" width="21.458" height="11.888" rx="5.944" transform="translate(154.964 3.911)" fill="#3d4862"/>
  <path id="Path_1840" data-name="Path 1840" d="M682.913,122.263l-16.742-.469a2.51,2.51,0,0,1-2.441-2.51v-.641a2.51,2.51,0,0,1,2.4-2.508l16.742-.751a2.51,2.51,0,0,1,2.623,2.508v1.864a2.51,2.51,0,0,1-2.58,2.508Z" transform="translate(-527.434 -110.159)" fill="#667fab" opacity="0.172"/>
  <path id="Path_1841" data-name="Path 1841" d="M790.18,122.263l16.742-.469a2.51,2.51,0,0,0,2.441-2.51v-.641a2.51,2.51,0,0,0-2.4-2.508l-16.742-.751a2.51,2.51,0,0,0-2.623,2.508v1.864a2.511,2.511,0,0,0,2.58,2.508Z" transform="translate(-619.54 -110.159)" fill="#667fab" opacity="0.172"/>
  <rect id="Rectangle_542" data-name="Rectangle 542" width="6.462" height="7.193" rx="3.231" transform="translate(134.178 5.862)" fill="#3d4862"/>
  <rect id="Rectangle_543" data-name="Rectangle 543" width="6.462" height="7.193" rx="3.231" transform="translate(191.602 5.862)" fill="#3d4862"/>
  <rect id="Rectangle_544" data-name="Rectangle 544" width="3.9" height="1.951" rx="0.976" transform="translate(135.519 4.277)" fill="#3d4862"/>
  <rect id="Rectangle_545" data-name="Rectangle 545" width="2.926" height="4.39" rx="1.463" transform="translate(135.886 0.985)" fill="#667fab"/>
  <ellipse id="Ellipse_396" data-name="Ellipse 396" cx="8.17" cy="1.098" rx="8.17" ry="1.098" transform="translate(121.618 2.082)" fill="tomato"/>
  <ellipse id="Ellipse_397" data-name="Ellipse 397" cx="8.17" cy="1.098" rx="8.17" ry="1.098" transform="translate(136.737 2.082)" fill="tomato"/>
  <rect id="Rectangle_546" data-name="Rectangle 546" width="3.9" height="1.951" rx="0.976" transform="translate(193.064 4.277)" fill="#3d4862"/>
  <rect id="Rectangle_547" data-name="Rectangle 547" width="2.926" height="4.39" rx="1.463" transform="translate(193.43 0.985)" fill="#667fab"/>
  <ellipse id="Ellipse_398" data-name="Ellipse 398" cx="8.17" cy="1.098" rx="8.17" ry="1.098" transform="translate(179.165 2.082)" fill="tomato"/>
  <ellipse id="Ellipse_399" data-name="Ellipse 399" cx="8.17" cy="1.098" rx="8.17" ry="1.098" transform="translate(194.282 2.082)" fill="tomato"/>
  <ellipse id="Ellipse_400" data-name="Ellipse 400" cx="8.17" cy="1.098" rx="8.17" ry="1.098" transform="translate(121.618 2.082)" fill="#3d4862"/>
  <ellipse id="Ellipse_401" data-name="Ellipse 401" cx="8.17" cy="1.098" rx="8.17" ry="1.098" transform="translate(136.737 2.082)" fill="#3d4862"/>
  <ellipse id="Ellipse_402" data-name="Ellipse 402" cx="8.17" cy="1.098" rx="8.17" ry="1.098" transform="translate(179.165 2.082)" fill="#3d4862"/>
  <ellipse id="Ellipse_403" data-name="Ellipse 403" cx="8.17" cy="1.098" rx="8.17" ry="1.098" transform="translate(194.282 2.082)" fill="#3d4862"/>
  <rect id="Rectangle_548" data-name="Rectangle 548" width="9.754" height="3.9" rx="1.95" transform="translate(161.244 13.542)" fill="tomato"/>
  <rect id="Rectangle_549" data-name="Rectangle 549" width="9.754" height="3.9" rx="1.95" transform="translate(161.244 13.542)" fill="#3d4862"/>
  <path id="Path_1842" data-name="Path 1842" d="M619.372,131.85H597.65v21.722h27.271V131.85Z" transform="translate(-444.397 -98.043)" fill="#667fab"/>
  <rect id="Rectangle_550" data-name="Rectangle 550" width="5.552" height="21.722" transform="translate(174.975 33.807)" fill="#181d21" opacity="0.25"/>
  <rect id="Rectangle_551" data-name="Rectangle 551" width="4.103" height="2.172" transform="translate(155.908 37.428)" fill="#181d21" opacity="0.25"/>
  <path id="Path_1843" data-name="Path 1843" d="M756.331,207.712a5,5,0,0,1,.769,2.992,5.1,5.1,0,0,1-2.564-1.741c-.928-1.308-1.282-2.646-.769-2.993S755.407,206.4,756.331,207.712Z" transform="translate(-591.207 -176.459)" fill="#67647e"/>
  <path id="Path_1844" data-name="Path 1844" d="M768.281,207.712a5,5,0,0,0-.769,2.992,5.094,5.094,0,0,0,2.564-1.741c.928-1.308,1.282-2.646.769-2.993S769.2,206.4,768.281,207.712Z" transform="translate(-601.596 -176.459)" fill="#67647e"/>
  <path id="Path_1845" data-name="Path 1845" d="M324.4,444.59l-.028.087A.513.513,0,0,0,324.4,444.59Z" transform="translate(-272.095 -353.951)" fill="url(#linear-gradient-2)"/>
  <path id="Path_1846" data-name="Path 1846" d="M336.238,399.053a.618.618,0,0,0,.049-.074l.028-.054c.013-.026.028-.049.038-.074l.021-.054c0-.026.02-.051.028-.077s0-.033.013-.051a.227.227,0,0,0,.018-.079.152.152,0,0,0,0-.049v-.369a.152.152,0,0,0-.021-.092v-.028a.357.357,0,0,0-.031-.1v-.021a1.039,1.039,0,0,0-.041-.1v-.015q-.023-.054-.051-.105h0l-.062-.11h0a3.8,3.8,0,0,0-.88-.954c-2.644,1.09-5.9-.156-5.9-.156s-4.359-2.177-4.044-1.557a1.912,1.912,0,0,1-.067,1.095,5.73,5.73,0,0,1-3.864-2.564l2.377-2.564s-9.644-5.444-10.731-8.244-6.377-10.731-6.377-10.731-1.71-6.221-4.821-7.621a115.151,115.151,0,0,1-9.826-13.765c1.282-3.2,3.077-8.206,2.672-10.342-.513-2.662.018-7.693.231-9.472,1.721,1.436,8.719,7.121,11.434,6.985a6.1,6.1,0,0,0,3.016-1.269,21.232,21.232,0,0,0,4.452-4.175c-.318.031-.577-.256-.787-.744,2.6-2.821,7.977-8.626,8.565-8.744.769-.156,4.977-7.465,2.644-9.021s-6.531,4.044-6.688,5.129c-.105.739-3.359,3.98-5.441,5.99v-.08l-.308.154V324.8l-5.372,2.685-4.582-6.262s-1.244-6.688-4.359-7.777S292.156,309,292.156,309a3.208,3.208,0,0,0-.069.331c-.156-.208-.241-.331-.241-.331a.2.2,0,0,1-.021.074,8.182,8.182,0,0,1-.177-2.928l.044-.026c.018-.121.038-.236.059-.346a7.783,7.783,0,0,0,3.152-9.639,17.329,17.329,0,0,1,2.918-1.318,8.559,8.559,0,0,0,3.511-2.654,3.1,3.1,0,0,0-1.626.033c-.067-.721.769-1.539.118-2.087a1.983,1.983,0,0,0-1.715-.141,9.652,9.652,0,0,1-1.695.513,4.067,4.067,0,0,1-2.8-.933,7.288,7.288,0,0,0-2.464-1.459c-2-.513-3.977.669-5.982,1.172-3.221.805-5.129,1.667-5.285,3.718a6.667,6.667,0,0,0-1.139.967,4.244,4.244,0,0,0-1.364,2.308,6.216,6.216,0,0,0,.974,4.062c.387.71,2.249,4.39,3.513,3.905a7.821,7.821,0,0,0,1.164,1.09c-.041.423-.1.851-.167,1.282a2.892,2.892,0,0,1-.915.315,11.012,11.012,0,0,1-2.11.185,30.9,30.9,0,0,1-3.31-.2,27.946,27.946,0,0,0-3.218-.185,15.7,15.7,0,0,0-1.605.077h-.082l-.318.038h-.049l-.346.056h-.038l-.282.056-.064.013-.287.069h0l-.282.079-.046.013-.221.069-.049.015c-.167.056-.323.118-.472.179l-.046.021-.185.079-.033.015-.208.1h-.018l-.18.09-.044.023-.174.09h0l-.221.115-.133.069-.062.033-.182.092c-1.556.769-16.642,4.821-19.286,12.909l.054.049h0l.059.054c-.044.118-.087.236-.126.354,0,0,.256.231.656.605-.71,3.093-2.613,11-3.613,11.37-1.244.467-2.644,9.954.623,9.644s3.267-7.931,3.267-7.931a92.6,92.6,0,0,1,3.741-8.706,4.088,4.088,0,0,1,.623,1.208v0a.875.875,0,0,1,.018.41c.154-.451.951-2.523,2.616-2.246,1.777.3,8.49-6.316,9.126-6.949-.015.172-.036.387-.056.636h0c0,.146-.026.3-.038.472v.738l-.013.192v1.085l-.018.282v.038l-.015.256v.721l-.013.256v.051q0,.167-.015.336v.021q0,.154-.013.308v.792q0,.351-.023.71v2.728c0,3.393.208,6.847.969,8.816a9.688,9.688,0,0,1,.636,3.313,13.521,13.521,0,0,1-1.569,5.864h0l.182-.056-.033.059.1-.031c-.154.321-.256.5-.256.5s.226-.072.628-.19a16.5,16.5,0,0,0,.149,9.057s.623,3.421.156,4.667-.933,11.2-.933,11.2a2.118,2.118,0,0,1-2.644.467c-1.71-.777-22.707-3.421-22.707-3.421s-.049.085-.131.236c-.646-.2-1.577-.513-2.257-.8.256-.354.485-.556.677-.528,0,0-1.121-.541-2.341-.969h0l-.223-.077h0l-.218-.072H235.4l-.208-.064h-.023l-.19-.054h-.038l-.179-.046h-.046l-.172-.038H234.5l-.154-.031h-.059l-.138-.023h-.067l-.126-.015h-.582l-.085.018h-.056l-.072.026-.051.018a.61.61,0,0,0-.067.038l-.038.023a.483.483,0,0,0-.085.08c-.769.933-5.129,18.819-3.11,20.063l.174.105.072.041.092.051.09.046.064.033.1.046.049.023.1.044.036.015.1.038h.023l.105.033h.013c1.128.305,1.5-.739,2.869-2.975,1.339-2.19,3.059-4.952,4.562-5.975.033.074.067.149.1.221,0,0,15.709,1.71,21.463,3.59s10.257,4.359,14,0c3.349-3.905,6.7-16.57,7.349-19.137h0l.1-.385h0v-.067l12.442,9.488,5.444,6.377s7.621,10.731,9.021,10.888,7.706,10.426,7.706,10.426l.236-.256c.056.285.1.546.133.769a4.8,4.8,0,0,0,.428,3.7h0l.021.041.054.108.028.056.051.1.026.049.054.1.028.049.041.074.02.038.054.092.023.038.033.054.018.031.041.067.015.026.026.038v.018l.026.041h0l.015.021h0s16.332-3.887,18.352-5.129c.064-.038.123-.079.18-.12l.051-.041.1-.082.051-.049.079-.074.046-.054.062-.072Z" transform="translate(-201.388 -237.483)" fill="url(#linear-gradient-3)"/>
  <path id="Path_1847" data-name="Path 1847" d="M256.29,598.3s-3.636-1.062-3.787-1.515-3.182,8.331-3.182,8.331l3.031,2.121s3.182-1.818,4.849-1.515S256.29,598.3,256.29,598.3Z" transform="translate(-216.29 -467.103)" fill="#4c4c56"/>
  <path id="Path_1848" data-name="Path 1848" d="M565.785,687.22s.454,4.1,5.454,4.544-3.334,4.1-3.334,4.1l-6.362.454a12.7,12.7,0,0,0-1.213-4.544C559.269,689.8,565.785,687.22,565.785,687.22Z" transform="translate(-447.462 -534.364)" fill="#4c4c56"/>
  <path id="Path_1849" data-name="Path 1849" d="M294.577,497.737s-2.877,4.393-.908,11.362c0,0,.605,3.334.151,4.544s-.908,10.908-.908,10.908a2.048,2.048,0,0,1-2.564.454c-1.657-.759-22.117-3.333-22.117-3.333s-3.334,5.757-1.516,9.231c0,0,15.3,1.667,20.906,3.485s10,4.241,13.634,0S308.53,515.3,308.53,515.3l12.119,9.231,5.3,6.211s7.424,10.452,8.788,10.6,7.726,10.149,7.726,10.149l7.726-8.331s-9.408-5.28-10.467-8.008-6.211-10.452-6.211-10.452-1.667-6.059-4.7-7.424c0,0-10.908-13.029-11.967-19.088s-18.183-3.177-18.183-3.177Z" transform="translate(-228.822 -390.935)" fill="#5f5d7e"/>
  <path id="Path_1850" data-name="Path 1850" d="M572.493,702.895s1.062-2.423.769-3.031,3.921,1.523,3.921,1.523,3.182,1.213,5.757.151c0,0,2.272,1.667.3,2.877s-17.876,5-17.876,5-2.423-3.485-.454-5.454Z" transform="translate(-450.383 -543.684)" fill="#986365"/>
  <path id="Path_1851" data-name="Path 1851" d="M462.2,538.494c-1.062-2.726-6.211-10.452-6.211-10.452s-1.667-6.059-4.7-7.424c0,0-10.908-13.029-11.967-19.088a3.769,3.769,0,0,0-2.413-2.71l-2.113,6.346-2.885,8.667a15.709,15.709,0,0,0-1.026,5.264c.074-.287.113-.446.113-.446l12.119,9.231,5.3,6.211s7.424,10.452,8.788,10.6,7.726,10.149,7.726,10.149l7.726-8.331S463.256,541.223,462.2,538.494Z" transform="translate(-351.295 -394.275)" fill="#181d21" opacity="0.1"/>
  <path id="Path_1852" data-name="Path 1852" d="M444.51,348.347a8.082,8.082,0,0,0,.38,6.288c1.662,3.031-.682,8.408-2.2,8.719s-7.575-3.636-8.029-6.211,1.969-7.877.769-11.362Z" transform="translate(-354.063 -280.478)" fill="#fdc2cc"/>
  <path id="Path_1853" data-name="Path 1853" d="M397.407,377.65s4.7,9.544,9.847,2.726c0,0,5.152,10.452,3.485,12.119a34.927,34.927,0,0,1-3.787,3.2l-2.726,19.088s-15.452-5.3-21.966-4.393l10-23.935Z" transform="translate(-315.14 -304.176)" fill="#181d21" opacity="0.1"/>
  <path id="Path_1854" data-name="Path 1854" d="M397.407,375.88s4.7,9.544,9.847,2.726c0,0,5.152,10.452,3.485,12.119a34.926,34.926,0,0,1-3.787,3.182L404.225,413s-15.452-5.3-21.966-4.393l10-23.935Z" transform="translate(-315.14 -302.86)" fill="#fe9d2b"/>
  <path id="Path_1855" data-name="Path 1855" d="M295.856,419s-2.564,11.816-3.787,12.27-2.564,9.7.605,9.393,3.182-7.726,3.182-7.726,3.334-8.939,4.7-10S295.856,419,295.856,419Z" transform="translate(-247.068 -334.923)" fill="#fdc2cc"/>
  <path id="Path_1856" data-name="Path 1856" d="M542.95,403.48s6.818-6.362,6.97-7.424,4.241-6.513,6.513-5-1.818,8.634-2.564,8.788-9.7,10-9.7,10Z" transform="translate(-434.625 -313.949)" fill="#fdc2cc"/>
  <path id="Path_1857" data-name="Path 1857" d="M340.927,366.13s-.833.985-6.439.38-6.97.454-8.483,1.213-16.209,4.7-18.786,12.565c0,0,5.757,5.152,5.152,6.513,0,0,.769-2.564,2.564-2.272s8.939-6.818,8.939-6.818-1.364,13.334.454,18.027-.908,9.393-.908,9.393,12.878-4.1,18.635-2.121c0,0,3.334-15,.454-21.058s1.213-11.816,1.213-11.816Z" transform="translate(-259.343 -295.61)" fill="#181d21" opacity="0.1"/>
  <path id="Path_1858" data-name="Path 1858" d="M341.517,364.36s-.833.985-6.439.38-6.97.454-8.483,1.213-16.209,4.7-18.786,12.565c0,0,5.757,5.152,5.152,6.513,0,0,.769-2.564,2.564-2.272s8.939-6.818,8.939-6.818-1.364,13.334.454,18.027-.905,9.4-.905,9.4,12.878-4.1,18.635-2.121c0,0,3.334-15,.454-21.058s1.218-11.819,1.218-11.819Z" transform="translate(-259.781 -294.294)" fill="#181d21" opacity="0.1"/>
  <path id="Path_1859" data-name="Path 1859" d="M340.927,364.36s-.833.985-6.439.38-6.97.454-8.483,1.213-16.209,4.7-18.786,12.565c0,0,5.757,5.152,5.152,6.513,0,0,.769-2.564,2.564-2.272s8.939-6.818,8.939-6.818-1.364,13.334.454,18.027-.908,9.393-.908,9.393,12.878-4.1,18.635-2.121c0,0,3.334-15,.454-21.058s1.221-11.811,1.221-11.811Z" transform="translate(-259.343 -294.294)" fill="#667fab"/>
  <path id="Path_1860" data-name="Path 1860" d="M450.457,375s2.2,3.257,5.226,4.318,4.241,7.575,4.241,7.575l4.544,6.211,5.454-2.718s.151,7.424,1.667,7.272c0,0-3.787,4.849-6.818,5s-11.511-7.144-11.511-7.144-.908,6.667-.3,9.847-3.787,12.878-3.787,12.878l-6.059-1.213s3.182-12.119,7.121-14.088c0,0,0-8.18-.605-10.149s3.939-9.393,3.334-10.908c-.341-.849-1.674-2.667-2.349-4.318A4.321,4.321,0,0,1,450.457,375Z" transform="translate(-360.387 -302.205)" fill="#181d21" opacity="0.1"/>
  <path id="Path_1861" data-name="Path 1861" d="M452.219,373.81s2.2,3.257,5.226,4.318,4.241,7.575,4.241,7.575l4.544,6.211,5.454-2.726s.151,7.424,1.667,7.272c0,0-3.787,4.849-6.818,5s-11.514-7.121-11.514-7.121-.908,6.667-.3,9.847-3.787,12.878-3.787,12.878l-6.059-1.213s3.182-12.119,7.121-14.088c0,0,0-8.18-.605-10.149s3.939-9.393,3.334-10.908c-.341-.849-1.674-2.667-2.349-4.318A4.32,4.32,0,0,1,452.219,373.81Z" transform="translate(-361.695 -301.321)" fill="#181d21" opacity="0.1"/>
  <path id="Path_1862" data-name="Path 1862" d="M451.047,373.81s2.2,3.257,5.226,4.318,4.241,7.575,4.241,7.575l4.546,6.211,5.454-2.726s.151,7.424,1.667,7.272c0,0-3.787,4.849-6.818,5s-11.514-7.121-11.514-7.121-.908,6.667-.3,9.847-3.787,12.878-3.787,12.878l-6.059-1.213s3.182-12.119,7.121-14.088c0,0,0-8.18-.605-10.149s3.939-9.393,3.334-10.908c-.341-.849-1.674-2.667-2.349-4.318A4.321,4.321,0,0,1,451.047,373.81Z" transform="translate(-360.825 -301.321)" fill="#ec7580"/>
  <path id="Path_1863" data-name="Path 1863" d="M452.047,374.81s2.2,3.257,5.226,4.318,4.241,7.575,4.241,7.575l4.546,6.211,5.454-2.726s.151,7.424,1.667,7.272c0,0-3.787,4.849-6.818,5s-11.514-7.121-11.514-7.121-.908,6.667-.3,9.847-3.787,12.878-3.787,12.878l-6.059-1.213s3.182-12.119,7.121-14.088c0,0,0-8.18-.605-10.149s3.939-9.393,3.334-10.908c-.341-.849-1.674-2.667-2.349-4.318A4.321,4.321,0,0,1,452.047,374.81Z" transform="translate(-361.569 -302.064)" fill="#667fab"/>
  <path id="Path_1864" data-name="Path 1864" d="M242.414,592.658s-4.393-2.121-5.152-1.213-5,18.329-3.031,19.542,2.121.3,3.787-2.423,3.939-6.362,5.605-6.211c0,0-4.849-1.667-4.7-2.272S241.355,592.507,242.414,592.658Z" transform="translate(-204.686 -462.98)" fill="#986365"/>
  <path id="Path_1865" data-name="Path 1865" d="M438.064,350.553a7.572,7.572,0,0,0,8.442.474,7.673,7.673,0,0,1,.374-1.513l-9.09-2.564A8.539,8.539,0,0,1,438.064,350.553Z" transform="translate(-356.431 -281.348)" fill="#181d21" opacity="0.1"/>
  <path id="Path_1866" data-name="Path 1866" d="M435.555,305.175c1.846.159,4.1-.187,4.782-1.444.2-.362.238-.769.438-1.121.58-1.041,2.236-1.467,3.567-2.051a8.337,8.337,0,0,0,3.418-2.585,3.016,3.016,0,0,0-1.585.033c-.064-.7.744-1.5.115-2.033a1.94,1.94,0,0,0-1.672-.136,10.913,10.913,0,0,1-1.651.513,3.958,3.958,0,0,1-2.731-.91,7.069,7.069,0,0,0-2.4-1.421c-1.944-.513-3.875.654-5.826,1.141-4,1-5.944,2.09-4.857,5.57C427.959,303.308,432.2,304.885,435.555,305.175Z" transform="translate(-348.3 -241.896)" fill="#865a61"/>
  <circle id="Ellipse_404" data-name="Ellipse 404" cx="7.575" cy="7.575" r="7.575" transform="translate(78.631 55.293)" fill="#fdc2cc"/>
  <path id="Path_1867" data-name="Path 1867" d="M421.392,310.224a4.444,4.444,0,0,1,2.9-3.287,6.359,6.359,0,0,1,3.813.474,9.662,9.662,0,0,0,3.775.885,2.816,2.816,0,0,0,2.762-2.272,1.087,1.087,0,0,0-.095-.587,1.444,1.444,0,0,0-.541-.513,11.7,11.7,0,0,0-6.331-2.136,15.482,15.482,0,0,0-5.364,1.415c-2.18.867-4.659,2.08-5.108,4.382a6.116,6.116,0,0,0,.949,3.957c.385.7,2.246,4.39,3.477,3.782C422.125,316.088,421.156,311.177,421.392,310.224Z" transform="translate(-341.074 -248.509)" fill="#181d21" opacity="0.1"/>
  <path id="Path_1868" data-name="Path 1868" d="M422.572,309.044a4.444,4.444,0,0,1,2.9-3.287,6.359,6.359,0,0,1,3.813.474,9.663,9.663,0,0,0,3.775.885,2.816,2.816,0,0,0,2.762-2.272,1.088,1.088,0,0,0-.095-.587,1.444,1.444,0,0,0-.541-.513,11.7,11.7,0,0,0-6.331-2.136,15.481,15.481,0,0,0-5.364,1.415c-2.18.867-4.659,2.08-5.108,4.382a6.115,6.115,0,0,0,.949,3.957c.385.7,2.246,4.39,3.477,3.782C423.3,314.908,422.338,310,422.572,309.044Z" transform="translate(-341.951 -247.632)" fill="#865a61"/>
  <path id="Path_1869" data-name="Path 1869" d="M234.693,611.157c-1.969-1.213,2.272-18.635,3.031-19.542.331-.4,1.362-.215,2.416.118-1.195-.418-2.49-.726-2.869-.256-.769.908-5,18.329-3.031,19.542a3.573,3.573,0,0,0,1.1.5A5.561,5.561,0,0,1,234.693,611.157Z" transform="translate(-204.691 -462.996)" fill="#fff" opacity="0.5"/>
  <path id="Path_1870" data-name="Path 1870" d="M585.674,710.34c.205.513.144,1.126-.705,1.646-1.969,1.213-17.876,5-17.876,5a7.594,7.594,0,0,1-.433-.736,8.1,8.1,0,0,0,.585,1.039s15.9-3.787,17.876-5A1.28,1.28,0,0,0,585.674,710.34Z" transform="translate(-452.255 -551.555)" fill="#fff" opacity="0.5"/>
  <g id="Group_356" data-name="Group 356" transform="translate(47.893 70.058)" opacity="0.05">
    <path id="Path_1871" data-name="Path 1871" d="M313.227,384.234a34.463,34.463,0,0,0-4.736-5.149c2.564-7.877,17.27-11.816,18.786-12.565a9.939,9.939,0,0,1,3.108-1.2,9.375,9.375,0,0,0-4.318,1.351c-1.515.769-16.209,4.7-18.786,12.565,0,0,5.534,4.952,5.177,6.429A4.742,4.742,0,0,1,313.227,384.234Z" transform="translate(-307.28 -365.066)" fill="#181d21"/>
    <path id="Path_1872" data-name="Path 1872" d="M327.338,444.67l-.028.085a.494.494,0,0,0,.028-.085Z" transform="translate(-322.174 -424.069)" fill="#181d21"/>
    <path id="Path_1873" data-name="Path 1873" d="M435.922,364.586l-.174-.256a1.938,1.938,0,0,1-1.008.395A8.837,8.837,0,0,0,435.922,364.586Z" transform="translate(-402.056 -364.33)" fill="#181d21"/>
    <path id="Path_1874" data-name="Path 1874" d="M338,435.65a2.021,2.021,0,0,0,.662-.18A1.645,1.645,0,0,0,338,435.65Z" transform="translate(-330.123 -417.228)" fill="#181d21"/>
    <path id="Path_1875" data-name="Path 1875" d="M414.86,505.877a17.966,17.966,0,0,1,7.242.341s.036-.159.095-.444A23.708,23.708,0,0,0,414.86,505.877Z" transform="translate(-387.274 -469.323)" fill="#181d21"/>
    <path id="Path_1876" data-name="Path 1876" d="M371.66,436.134c.513-1.026,2.351-5.082.769-9.147-1.818-4.7-.454-18.027-.454-18.027s-.513.513-1.313,1.282c-.28,3.305-.941,13.037.556,16.906,1.818,4.7-.908,9.393-.908,9.393S370.817,436.372,371.66,436.134Z" transform="translate(-354.121 -397.516)" fill="#181d21"/>
  </g>
  <path id="Path_1877" data-name="Path 1877" d="M365.863,685.734c-1.826.941-3.739,1.754-5.626,2.564-6.972,2.944-14.05,5.913-21.54,6.924-14.057,1.9-28.576-3.236-42.4-.044-11.578,2.672-21.153,10.86-32.464,14.506a52.741,52.741,0,0,1-16.252,2.359h-.726q-1.026-.013-2.036-.051a110.573,110.573,0,0,1-16.706-2.1c-17.327-3.334-34.961-9.444-48.208-20.694C218.484,682.142,297.938,671.325,365.863,685.734Z" transform="translate(-164.678 -527.975)" fill="#252223" opacity="0.1"/>
  <path id="Path_1878" data-name="Path 1878" d="M730.3,534.72a11.893,11.893,0,0,1,2.169,12.37c-2.81,7.39,4.821,19.681,4.821,19.681l-.233-.038a14.5,14.5,0,0,1-9.624-22.194C729.544,541.3,731.28,537.515,730.3,534.72Z" transform="translate(-570.039 -420.969)" fill="#57b894"/>
  <path id="Path_1879" data-name="Path 1879" d="M742.125,534.72s2.821,6.106,0,11.085-.482,18.958,6.988,20.965" transform="translate(-581.865 -420.969)" fill="none" stroke="#535461" stroke-miterlimit="10" stroke-width="1"/>
  <path id="Path_1880" data-name="Path 1880" d="M710.89,613.089s5.682-.905,6.2,4.187,10.929,5.8,10.929,5.8l-.195.131c-8.6,5.641-16.811,3.59-15.573-3.9C712.713,616.523,712.672,613.725,710.89,613.089Z" transform="translate(-559.501 -479.196)" fill="#57b894"/>
  <path id="Path_1882" data-name="Path 1882" d="M710.89,613.27s4.411.969,4.049,4.98,6.552,8.819,13.078,5.008" transform="translate(-559.501 -479.377)" fill="none" stroke="#535461" stroke-miterlimit="10" stroke-width="1"/>
  <path id="Path_1883" data-name="Path 1883" d="M754.915,645.825s-3.575-.715-4.526-1.667-5.241-2.621-5.718-1.428-6.434,5.241-2.382,5.957,9.531.954,10.721.477S754.915,645.825,754.915,645.825Z" transform="translate(-581.804 -500.975)" fill="#a8a8a8"/>
  <path id="Path_1884" data-name="Path 1884" d="M742.307,658.341c4.052.715,9.531.954,10.721.477.908-.364,1.539-2.105,1.795-2.918l.118.026s-.715,2.859-1.905,3.334-6.667.238-10.721-.477c-1.169-.205-1.5-.69-1.377-1.305C741.03,657.88,741.448,658.187,742.307,658.341Z" transform="translate(-581.825 -511.075)" fill="#181d21" opacity="0.2"/>
  <path id="Path_1885" data-name="Path 1885" d="M1041.171,573.505s3.387-11.506-.636-19.973a18.173,18.173,0,0,1-1.469-11.4,30.578,30.578,0,0,1,1.613-5.352" transform="translate(-803.27 -422.501)" fill="none" stroke="#535461" stroke-miterlimit="10" stroke-width="2"/>
  <path id="Path_1886" data-name="Path 1886" d="M1036.58,509.149c0,1.41,2.564,5.5,2.564,5.5s2.564-4.09,2.564-5.5a2.564,2.564,0,0,0-5.105,0Z" transform="translate(-801.675 -400.229)" fill="#57b894"/>
  <path id="Path_1887" data-name="Path 1887" d="M1019.255,535.454c.769,1.185,5.129,3.229,5.129,3.229s-.08-4.821-.846-6a2.564,2.564,0,0,0-4.287,2.774Z" transform="translate(-788.571 -418.724)" fill="#57b894"/>
  <path id="Path_1888" data-name="Path 1888" d="M1016.159,584.06c1.259.636,6.059.2,6.059.2s-2.5-4.121-3.762-4.757a2.564,2.564,0,1,0-2.308,4.559Z" transform="translate(-785.29 -453.982)" fill="#57b894"/>
  <path id="Path_1889" data-name="Path 1889" d="M1027.8,624.69c1.133.839,5.939,1.218,5.939,1.218s-1.769-4.485-2.9-5.323a2.564,2.564,0,0,0-3.036,4.1Z" transform="translate(-794.518 -484.545)" fill="#57b894"/>
  <path id="Path_1890" data-name="Path 1890" d="M1044.4,547.735c-1.01.982-5.723,2-5.723,2s1.154-4.68,2.164-5.662a2.564,2.564,0,0,1,3.559,3.662Z" transform="translate(-803.237 -427.501)" fill="#57b894"/>
  <path id="Path_1891" data-name="Path 1891" d="M1053.889,591.719c-1.259.636-6.059.2-6.059.2s2.5-4.121,3.762-4.757a2.564,2.564,0,1,1,2.308,4.559Z" transform="translate(-810.04 -459.678)" fill="#57b894"/>
  <path id="Path_1892" data-name="Path 1892" d="M1058.229,639.24c-1.134.839-5.939,1.218-5.939,1.218s1.769-4.485,2.9-5.323a2.564,2.564,0,0,1,3.036,4.1Z" transform="translate(-813.357 -495.364)" fill="#57b894"/>
  <path id="Path_1893" data-name="Path 1893" d="M1006.5,657.97s-6.193-1.239-7.844-2.89-9.083-4.541-9.908-2.477-11.147,9.083-4.128,10.321,16.514,1.651,18.576.826S1006.5,657.97,1006.5,657.97Z" transform="translate(-761.229 -508.091)" fill="#a8a8a8"/>
  <path id="Path_1894" data-name="Path 1894" d="M984.632,679.671c7.018,1.239,16.514,1.651,18.576.826,1.572-.628,2.664-3.649,3.095-5.057l.208.044s-1.239,4.954-3.3,5.78-11.56.413-18.576-.826c-2.026-.357-2.605-1.2-2.387-2.259C982.419,678.871,983.124,679.4,984.632,679.671Z" transform="translate(-761.241 -525.605)" fill="#181d21" opacity="0.2"/>
</svg>
