<svg xmlns="http://www.w3.org/2000/svg" width="42.728" height="42.728" viewBox="0 0 42.728 42.728">
  <g id="Group_9077" data-name="Group 9077" transform="translate(11.571 96.738)">
    <path id="Path_4625" data-name="Path 4625" d="M-110.913-96.982a21.393,21.393,0,0,0-21.374,21.364,21.4,21.4,0,0,0,21.374,21.364A21.389,21.389,0,0,0-89.559-75.618a21.383,21.383,0,0,0-21.354-21.364Zm0,1.038A20.319,20.319,0,0,1-90.6-75.618,20.33,20.33,0,0,1-110.913-55.3,20.326,20.326,0,0,1-131.24-75.618a20.315,20.315,0,0,1,20.327-20.326" transform="translate(120.716 0.244)" fill="#fff"/>
    <path id="Path_4626" data-name="Path 4626" d="M-131.352-76.993a11.551,11.551,0,0,0,5.576-.95,10.2,10.2,0,0,0,2.23-1.348,5.381,5.381,0,0,1-2.308-.582,5.236,5.236,0,0,1-2.55-2.851c-.116-.281-.116-.281.2-.262a4.217,4.217,0,0,0,1.959-.126,5.5,5.5,0,0,1-1.261-.475,5.383,5.383,0,0,1-2.89-4.558c-.019-.242.049-.271.262-.165a5.242,5.242,0,0,0,2.095.572c-.339-.3-.63-.553-.9-.815a5.486,5.486,0,0,1-.844-6.051c.136-.272.184-.272.369-.058a15.088,15.088,0,0,0,9.32,5.2c.378.078.8.078,1.183.165.262.039.291-.087.252-.291a5.338,5.338,0,0,1,2.647-5.586,5.308,5.308,0,0,1,6.294.776.578.578,0,0,0,.582.145,10.181,10.181,0,0,0,2.822-1.106.527.527,0,0,0,.233-.145,5.238,5.238,0,0,1-2.26,2.958,11.127,11.127,0,0,0,2.88-.747c.02.116-.077.194-.126.3a10.893,10.893,0,0,1-2.221,2.26.464.464,0,0,0-.194.427,15.565,15.565,0,0,1-3.685,10.435,14.416,14.416,0,0,1-8.922,5,15.2,15.2,0,0,1-10.629-2.066l-.116-.058Z" transform="translate(128.849 9.891)" fill="#fff" fill-rule="evenodd"/>
  </g>
</svg>
