<svg xmlns="http://www.w3.org/2000/svg" width="42.738" height="42.728" viewBox="0 0 42.738 42.728">
  <g id="Group_9076" data-name="Group 9076" transform="translate(76.713 97.01)">
    <path id="Path_4622" data-name="Path 4622" d="M-115.855-97.01a21.391,21.391,0,0,0-21.364,21.364,21.391,21.391,0,0,0,21.364,21.364A21.393,21.393,0,0,0-94.481-75.646,21.393,21.393,0,0,0-115.855-97.01Zm0,1.047A20.319,20.319,0,0,1-95.529-75.646a20.321,20.321,0,0,1-20.327,20.326,20.313,20.313,0,0,1-20.317-20.326,20.311,20.311,0,0,1,20.317-20.317" transform="translate(60.506 0)" fill="#fff"/>
    <path id="Path_4623" data-name="Path 4623" d="M-122.178-73.612a5.66,5.66,0,0,1-1.425.126,10.833,10.833,0,0,1-5.576-1.426.634.634,0,0,0-.63-.1c-1.115.262-2.2.572-3.307.853-.233.068-.252.019-.2-.2.291-1.018.572-2.066.892-3.123a.772.772,0,0,0-.126-.727,10.216,10.216,0,0,1,.359-11.521,9.779,9.779,0,0,1,10.454-4.025,9.678,9.678,0,0,1,7.846,7.8,10.177,10.177,0,0,1-8.282,12.345Zm10.319-12.937a12.36,12.36,0,0,0-12.054-9.543,17.463,17.463,0,0,0-2.366.243,12.337,12.337,0,0,0-8.457,18,.8.8,0,0,1,.107.611c-.572,1.9-1.105,3.84-1.619,5.751-.078.33-.078.33.233.252,2.007-.553,3.986-1.067,5.993-1.552a.49.49,0,0,1,.436.019,12.5,12.5,0,0,0,8.117,1.144,12.4,12.4,0,0,0,9.611-14.925Z" transform="translate(68.565 7.993)" fill="#fff" fill-rule="evenodd"/>
  </g>
</svg>
