<svg xmlns="http://www.w3.org/2000/svg" width="42.719" height="42.728" viewBox="0 0 42.719 42.728">
  <g id="Group_9078" data-name="Group 9078" transform="translate(-54.881 96.865)">
    <path id="Path_4743" data-name="Path 4743" d="M-105.866-97A21.383,21.383,0,0,0-127.22-75.631a21.383,21.383,0,0,0,21.355,21.364A21.385,21.385,0,0,0-84.5-75.631,21.385,21.385,0,0,0-105.866-97Zm0,1.038A20.328,20.328,0,0,1-85.539-75.631,20.315,20.315,0,0,1-105.866-55.3a20.317,20.317,0,0,1-20.307-20.326,20.33,20.33,0,0,1,20.307-20.327" transform="translate(182.101 0.131)" fill="#fff"/>
    <path id="Path_4742" data-name="Path 4742" d="M-106.686-77.779c-.019,1.028-.281,1.309-1.3,1.309h-14.362c-1,0-1.29-.281-1.29-1.309,0-2.647.01-5.343-.039-8.01,0-.756.213-.921.912-.9,1.009.087,1.028.039.912,1.028a6.788,6.788,0,0,0,5.3,7.341,6.839,6.839,0,0,0,7.836-4.723,6.69,6.69,0,0,0,.155-3.152c-.078-.388.019-.456.359-.456,1.513-.126,1.513-.136,1.513,1.435v7.438Zm-8.466-11.434a4.288,4.288,0,0,1,4.228,4.257,4.294,4.294,0,0,1-4.3,4.248,4.3,4.3,0,0,1-4.209-4.286,4.35,4.35,0,0,1,4.277-4.219Zm6.294-4.218c2.172,0,2.172,0,2.172,2.182,0,2.114,0,2.114-2.134,2.114-2.163,0-2.163,0-2.163-2.153s0-2.143,2.124-2.143Zm1.775-2.492h-16.156a2.612,2.612,0,0,0-2.909,2.938v16.127a2.574,2.574,0,0,0,2.822,2.871h16.244a2.61,2.61,0,0,0,2.909-2.89V-93.053a2.608,2.608,0,0,0-2.909-2.87Z" transform="translate(191.407 9.455)" fill="#fff" fill-rule="evenodd"/>
  </g>
</svg>
